<?xml version="1.0" standalone="no"?>
<!DOCTYPE svg PUBLIC "-//W3C//DTD SVG 1.1//EN" "http://www.w3.org/Graphics/SVG/1.1/DTD/svg11.dtd" >
<svg xmlns="http://www.w3.org/2000/svg" xmlns:xlink="http://www.w3.org/1999/xlink" version="1.1">
<metadata></metadata>
<defs>
<font id="karma_regularregular" horiz-adv-x="1249" >
<font-face units-per-em="2048" ascent="1638" descent="-410" />
<missing-glyph horiz-adv-x="548" />
<glyph horiz-adv-x="0" />
<glyph horiz-adv-x="682" />
<glyph horiz-adv-x="0" />
<glyph horiz-adv-x="0" />
<glyph unicode="&#xd;" horiz-adv-x="681" />
<glyph unicode=" "  horiz-adv-x="548" />
<glyph unicode="&#x09;" horiz-adv-x="548" />
<glyph unicode="&#xa0;" horiz-adv-x="548" />
<glyph unicode="!" horiz-adv-x="509" d="M147 80q0 47 31 77.5t77 30.5t76.5 -30.5t30.5 -77.5t-30.5 -79t-76.5 -32t-77 32t-31 79zM182 1417q68 25 160 10l-41 -1032q-47 -16 -96 0z" />
<glyph unicode="&#x22;" horiz-adv-x="593" d="M104 1395q84 25 166 8l-39 -379q-47 -10 -98 0zM326 1395q84 25 166 8l-39 -379q-48 -10 -99 0z" />
<glyph unicode="#" horiz-adv-x="1441" d="M115 498h243l105 374h-248q-31 45 -37 105h311l99 354h114l-96 -354l342 2l96 352h115l-96 -352h227q31 -39 37 -107h-293l-102 -374h295q31 -47 35 -109h-359l-96 -354h-117l96 354h-340l-96 -354h-117l97 354h-178q-33 41 -37 109zM475 498h340l105 374h-342z" />
<glyph unicode="$" horiz-adv-x="956" d="M84 178q0 43 27.5 74t76.5 31q43 -215 281 -215q119 0 199 60t80 171t-62.5 163t-221.5 115.5t-255 139.5t-96 197.5t84 204.5t215 108l-15 182q70 25 133 0l-12 -174q115 -2 208 -49.5t93 -145.5q0 -59 -33.5 -86.5t-80.5 -23.5q0 201 -222 200q-106 0 -172.5 -47 t-66.5 -129q0 -104 100 -166q76 -49 222.5 -106t226 -127t79.5 -206t-97 -246.5t-257 -133.5l12 -178q-68 -27 -133 0l13 176q-127 8 -226.5 65.5t-99.5 145.5z" />
<glyph unicode="%" horiz-adv-x="1540" d="M92 922q1 352 273 352q268 0 268 -346q0 -174 -70.5 -264.5t-200 -90.5t-200 87.5t-70.5 261.5zM203 925q0 -263 157 -263q162 0 162 263t-159.5 263t-159.5 -263zM344 0l725 1274h129l-725 -1274h-129zM907 316q0 173 70 263.5t202 90.5t200.5 -88t68.5 -260 t-70.5 -262.5t-199.5 -90.5t-200 87t-71 260zM1016 320.5q0 -263.5 160.5 -263.5t160.5 267q0 125 -40.5 192.5t-118.5 67.5q-162 0 -162 -263.5z" />
<glyph unicode="&#x26;" horiz-adv-x="1486" d="M80 317q0 111 66.5 217.5t209.5 184.5q-152 203 -151.5 348t89.5 230t245 85q113 0 205 -74.5t92 -209.5t-89.5 -240.5t-209.5 -152.5q8 -10 27.5 -32t29.5 -34q182 -203 358 -348q88 117 131 295l-120 12q-8 84 55 84h303q-2 -6 0 -16.5t-1 -21.5t-7 -21q-8 -23 -53 -27 l-68 -4q-47 -213 -158 -367q178 -135 266.5 -135t126.5 57q29 -25 29 -68.5t-38 -78.5t-107 -35q-143 0 -365 164q-180 -166 -438 -166q-209 0 -318.5 99.5t-109.5 254.5zM227 330.5q0 -101.5 77 -181t247 -79.5t313 125q-172 143 -356 344q-41 43 -92 106 q-90 -55 -139.5 -134t-49.5 -180.5zM334 1087q0 -117 149 -313q113 45 167.5 135t54.5 187.5t-54.5 142.5t-113.5 45q-100 0 -151.5 -55t-51.5 -142z" />
<glyph unicode="'" horiz-adv-x="370" d="M102 1395q84 25 166 8l-39 -379q-47 -10 -98 0z" />
<glyph unicode="(" horiz-adv-x="571" d="M119 525.5q0 545.5 354 928.5l68 -55q-193 -297 -244 -572q-27 -143 -27 -303q0 -522 262 -856l-71 -61q-342 373 -342 918.5z" />
<glyph unicode=")" horiz-adv-x="571" d="M31 1399l67 55q354 -383 354.5 -928.5t-341.5 -918.5l-72 61q262 334 262 856q0 408 -186 736q-35 63 -84 139z" />
<glyph unicode="*" horiz-adv-x="1173" d="M139 1106q8 109 56 172l280 -150l-53 314q92 27 178 0l-51 -312l282 148q53 -74 54 -170l-316 -47l228 -225q-53 -78 -146 -105l-139 283l-139 -285q-94 29 -146 107l226 223z" />
<glyph unicode="+" horiz-adv-x="978" d="M102 528v115h328v330h121v-330h326v-115h-326v-329h-121v329h-328z" />
<glyph unicode="," horiz-adv-x="389" d="M86 80q0 45 29.5 74.5t78 29.5t79 -30.5t30.5 -100t-54 -154.5t-116 -112q-10 -4 -25.5 11.5t-15.5 23.5q63 45 86 145q-41 4 -66.5 36t-25.5 77z" />
<glyph unicode="-" horiz-adv-x="794" d="M98 451v120h598v-120h-598z" />
<glyph unicode="." horiz-adv-x="389" d="M86 80q0 47 30.5 77.5t78 30.5t78 -30.5t30.5 -77.5t-30.5 -79t-78 -32t-78 32t-30.5 79z" />
<glyph unicode="/" horiz-adv-x="823" d="M41 -268l602 1693h139l-604 -1693h-137z" />
<glyph unicode="0" horiz-adv-x="1032" d="M72 614.5q0 329.5 109.5 493.5t336.5 166t335 -161t108 -495.5t-110 -490.5t-335 -158t-334.5 158t-109.5 487.5zM219 608.5q0 -278.5 73 -405.5t226.5 -127t224 128t70.5 409.5t-71.5 417.5t-224 136t-225.5 -140t-73 -418.5z" />
<glyph unicode="1" horiz-adv-x="729" d="M86 1122l233 131q33 20 78 21q59 0 60 -70v-1106l184 -12q9 -86 -57 -86h-467v16q0 51 28 64q14 6 35 8l131 6v1012l-147 -53q-33 -10 -55.5 16.5t-22.5 52.5z" />
<glyph unicode="2" horiz-adv-x="933" d="M74 74q90 80 224 220t167 182t82 109.5t71 119.5q61 131 61.5 232t-59 165.5t-170 64.5t-169 -71.5t-58.5 -200.5q-49 -2 -84 24.5t-35 88.5q0 112 103.5 189t265.5 77t260 -89t98 -239q0 -225 -229 -491q-80 -92 -122 -135.5t-129 -125t-97 -92.5l494 7l18 124 q6 43 41 59.5t55 4.5v-297h-776q-16 49 -12 74z" />
<glyph unicode="3" horiz-adv-x="890" d="M70 158q0 84 90 102q16 -86 76.5 -137t175 -51t193.5 75.5t76 187t-70.5 172t-153.5 77t-189 8.5l-2 113q104 0 217 53q60 28 100 84.5t40 139.5t-52.5 135t-143.5 52t-139 -54t-50 -146q-59 4 -90 33.5t-25 76.5q6 80 95 137.5t229.5 57.5t234.5 -78t94 -207 q0 -96 -61.5 -179t-186.5 -132q141 -23 224.5 -110t83.5 -218q0 -164 -126 -272.5t-325 -108.5q-137 0 -226 52.5t-89 136.5z" />
<glyph unicode="4" horiz-adv-x="950" d="M39 395l567 858q66 18 129 4l2 -854h183v-106h-181v-297l-141 -20v317h-516q-39 63 -43 98zM166 403h432v670z" />
<glyph unicode="5" horiz-adv-x="870" d="M70 143q0 45 29.5 65.5t64.5 22.5q23 -160 225 -159q127 0 205 88t78 230t-80 202.5t-194.5 60.5t-213.5 -51l-26 14l28 639l545 -2l-8 -120h-436l-15 -383q84 22 170 22q168 0 274.5 -90t106.5 -279.5t-122.5 -311.5t-319.5 -122q-145 0 -228 47t-83 127z" />
<glyph unicode="6" horiz-adv-x="966" d="M104 506q0 375 133.5 571.5t374.5 196.5q113 0 172.5 -37t59.5 -94q0 -92 -99 -101q0 53 -36.5 92.5t-112.5 39.5q-141 0 -229.5 -140.5t-106.5 -400.5q135 88 298 88t251 -90t88 -258t-105.5 -286t-283.5 -118q-403 0 -404 537zM256 504q0 -432 256 -432 q113 0 174.5 74.5t61.5 205.5t-60.5 197.5t-190.5 66.5t-241 -90v-22z" />
<glyph unicode="7" horiz-adv-x="792" d="M37 963v292h721q18 -29 18 -67l-510 -1202l-147 49l514 1112l-481 -6l-19 -131q-6 -35 -46 -48.5t-50 1.5z" />
<glyph unicode="8" horiz-adv-x="929" d="M88 270q-4 125 74 225.5t196 166.5q-193 129 -192 303q0 135 91 222t230.5 87t230.5 -74t91 -203q0 -186 -199 -313q123 -74 190.5 -148.5t67.5 -191.5q0 -150 -112.5 -262.5t-294.5 -112.5t-275.5 88t-97.5 213zM227 295q0 -94 62.5 -159.5t183.5 -65.5t193.5 65.5 t72.5 158.5t-63.5 158.5t-179.5 129.5l-58 30q-92 -53 -151.5 -138t-59.5 -179zM295 993q0 -80 58.5 -137t185.5 -129q141 109 141 258q0 88 -49 141.5t-136 53.5t-143.5 -53.5t-56.5 -133.5z" />
<glyph unicode="9" horiz-adv-x="903" d="M43 872.5q0 167.5 104.5 284.5t284.5 117q403 0 404 -539q0 -373 -134.5 -569.5t-375.5 -196.5q-111 0 -170.5 37t-59.5 96q0 90 97 99q0 -53 36.5 -92t112.5 -39q141 0 230.5 140t107.5 400q-135 -88 -297 -88t-251 91.5t-89 259zM193 891q0 -264 231 -264q150 0 260 90 v22q0 434 -256 435q-113 0 -174 -75t-61 -208z" />
<glyph unicode=":" horiz-adv-x="393" d="M86 80q0 47 32 80t79 33t78.5 -33t31.5 -80t-31.5 -79t-78.5 -32t-79 32t-32 79zM86 719q0 47 32 79.5t79 32.5t78.5 -32.5t31.5 -79.5t-31.5 -80t-78.5 -33t-79 33t-32 80z" />
<glyph unicode=";" horiz-adv-x="417" d="M86 729q0 47 30.5 79t78 32t78 -32t30.5 -79t-30.5 -77.5t-78 -30.5t-78 30.5t-30.5 77.5zM115 72q0 45 29.5 74.5t77.5 29.5t79 -30.5t31 -100.5t-54.5 -155t-115.5 -111q-10 -4 -25.5 11t-15.5 24q63 45 86 145q-41 4 -66.5 36t-25.5 77z" />
<glyph unicode="&#x3c;" horiz-adv-x="931" d="M78 547v86l692 362l57 -108l-571 -297l569 -295l-57 -109z" />
<glyph unicode="=" horiz-adv-x="978" d="M102 393v117h775v-117h-775zM102 672v114h775v-114h-775z" />
<glyph unicode="&#x3e;" horiz-adv-x="899" d="M72 428l569 172l-567 170l57 64l690 -209v-50l-692 -210z" />
<glyph unicode="?" horiz-adv-x="995" d="M98 1174q0 106 108.5 193t294 87t292 -91t106.5 -253t-123 -280.5t-282 -155.5l-13 -291q-45 -6 -100 0l-10 367q164 41 269 137t105 227q0 100 -66.5 171t-191.5 71t-194.5 -85t-69.5 -196q-125 0 -125 99zM322 80q0 47 31.5 77.5t77.5 30.5t77 -30.5t31 -77.5t-31 -79 t-78 -32t-77.5 32t-30.5 79z" />
<glyph unicode="@" horiz-adv-x="1984" d="M117 519q0 390 255 636t672 246q371 0 597.5 -180.5t226.5 -472t-169 -465.5t-446 -174q-59 0 -86.5 20.5t-21.5 83.5q-139 -123 -288.5 -123t-230.5 105.5t-57.5 318.5t151.5 345t324 132q106 0 201 -47l4 25l131 14l-108 -778q219 -6 352 137t133 395t-196.5 411 t-518.5 159q-367 0 -589 -216.5t-222 -564.5t225.5 -557t592.5 -209q276 0 462 119l25 -92q-230 -123 -506 -123q-412 0 -662.5 232.5t-250.5 622.5zM705.5 537.5q-21.5 -142.5 26.5 -238.5t179 -96q66 0 119 26.5t129 83.5l68 490q-80 84 -213 84t-210 -103.5t-98.5 -246z " />
<glyph unicode="A" d="M23 0v16q0 53 28 70q14 6 35 8l82 4l395 1291q33 4 66 4t67 -4l396 -1287l133 -12q1 -9 1 -17q0 -73 -57 -73h-393v16q0 53 29 70q14 6 35 8l94 4l-109 375h-434l-108 -371l153 -12q1 -10 1 -19q0 -71 -56 -71h-358zM422 575h373l-185 642z" />
<glyph unicode="B" horiz-adv-x="1114" d="M86 0v12q0 80 64 80l94 8v1186l-150 12q-1 11 -1 20q0 72 54 73h428q205 0 308.5 -96.5t103.5 -241.5q0 -221 -227 -316q123 -23 209 -108.5t86 -220.5v-6q0 -186 -125 -293q-127 -109 -344 -109h-500zM391 100l144 -2h14q352 0 352 289q0 161 -94 227q-89 62 -279 62 h-24l-113 -2v-574zM391 766h88q186 0 269 70.5t83 208t-89 201.5q-76 54 -204 54q-22 0 -46 -2l-99 -6h-2v-526z" />
<glyph unicode="C" horiz-adv-x="1144" d="M79 658v27q-1 309 155 516q162 216 452 216q166 0 277.5 -74.5t111.5 -189.5t-129 -117q0 129 -73.5 200t-202.5 71q-211 0 -321.5 -170t-110.5 -451q0 -592 456 -592q213 0 369 125q27 -14 27 -45q0 -63 -125 -134t-306 -71q-276 0 -424.5 181.5t-155.5 507.5z" />
<glyph unicode="D" horiz-adv-x="1361" d="M86 0v33q0 23 11.5 36t17.5 15t13 5t17 3l97 8v1186l-148 12v15q0 77 60 78h428q367 0 533.5 -168t166.5 -515.5t-178 -527.5t-520 -180h-498zM389 100l150 -2h15q274 0 420 142q150 146 150 463t-156 459q-144 132 -427 133q-22 0 -45 -1l-105 -4h-2v-1190z" />
<glyph unicode="E" horiz-adv-x="1130" d="M86 0v33q0 45 41 57q10 4 23 4l94 4v1186l-150 12q-1 10 -1 18q0 72 59 72h864v-288q0 -57 -73 -57q-8 0 -17 1l-21 232l-514 10v-547l393 27q7 -38 7 -75t-7 -73l-393 23v-537l543 15l20 217q10 1 19 1q71 0 71 -56v-279h-958z" />
<glyph unicode="F" horiz-adv-x="1052" d="M86 0v16q0 53 29 70q14 6 35 8l94 4v1186l-150 12q-1 10 -1 18q0 72 59 72h862v-274q0 -54 -70 -54q-9 0 -20 1l-23 223l-508 2v-524l393 26q6 -35 6 -71.5t-6 -75.5l-393 23v-560l178 -12q1 -10 1 -19q0 -71 -56 -71h-430z" />
<glyph unicode="G" horiz-adv-x="1284" d="M80 658v31q0 314 160 518q168 214 479 214q207 0 310.5 -77.5t103.5 -184.5q0 -51 -30 -87t-97 -36q0 279 -316 279q-223 0 -338.5 -171t-115.5 -453.5t107.5 -444.5t342.5 -162q199 0 309 94v344l-229 13q-1 10 -1 20q0 72 56 72h430v-17q0 -72 -63 -78l-51 -6h-4v-381 q-68 -80 -203 -128t-279 -48q-266 0 -414.5 177.5t-156.5 511.5z" />
<glyph unicode="H" horiz-adv-x="1460" d="M86 0v16q0 53 29 70q14 6 35 8l94 4v1186l-150 12q-1 10 -1 19q0 71 57 71h399v-16q0 -55 -29 -67q-14 -8 -35 -11l-94 -4v-545h678v541l-147 12q-1 10 -1 19q0 71 56 71h397v-16q0 -55 -28 -67q-14 -8 -35 -11l-92 -4v-1186l147 -12q1 -10 1 -19q0 -71 -56 -71h-398v16 q0 53 29 70q14 6 35 8l92 4v545h-678v-541l150 -12q1 -10 1 -19q0 -71 -57 -71h-399z" />
<glyph unicode="I" horiz-adv-x="634" d="M86 0v16q0 53 29 70q14 6 35 8l94 4v1186l-150 12q-1 10 -1 19q0 71 57 71h399v-16q0 -55 -29 -67q-14 -8 -35 -11l-94 -4v-1186l150 -12q1 -9 1 -17q0 -73 -57 -73h-399z" />
<glyph unicode="J" horiz-adv-x="671" d="M-23 -8q0 94 93 94h8q4 -100 100 -100q61 0 91 57t30 203v1038l-168 12q-1 11 -1 20q0 70 58 70h408v-16q0 -55 -29 -67q-14 -8 -35 -11l-86 -4v-1022q0 -172 -81.5 -282.5t-221.5 -110.5q-70 0 -118 36t-48 83z" />
<glyph unicode="K" horiz-adv-x="1230" d="M86 0v16q0 53 29 70q14 6 35 8l94 4v1186l-150 12q-1 10 -1 19q0 71 57 71h399v-16q0 -55 -29 -67q-14 -8 -35 -11l-94 -4v-624l504 620l-131 12q-1 11 -1 20q0 70 58 70h353v-16q0 -55 -29 -67q-16 -10 -115 -15l-446 -540l467 -652l125 -12q8 -25 -3.5 -54.5 t-52.5 -29.5h-186l-445 633l-98 -119v-412l154 -12q1 -10 1 -19q0 -71 -57 -71h-403z" />
<glyph unicode="L" horiz-adv-x="1079" d="M86 0v16q0 53 29 70q14 6 35 8l94 4v1188l-152 12q-1 12 -1 22q0 70 59 71h407v-17q0 -55 -29 -67q-14 -8 -34 -11l-103 -6v-1188l533 11l22 225q10 1 20 1q70 0 70 -54v-285h-950z" />
<glyph unicode="M" horiz-adv-x="1654" d="M29 0v16q0 53 28 70q14 6 35 8l92 4l95 1188l-146 12q-1 12 -1 22q0 70 58 71h244l414 -930l381 930h254q58 0 58 -72q0 -10 -1 -21l-143 -12l92 -1180l135 -16q1 -11 1 -20q0 -70 -58 -70h-381v16q0 53 31 70q14 6 34 8l86 4l-77 1071l-383 -917q-34 -8 -64 -8 q-15 0 -29 2l-399 889l-78 -1033l150 -12q1 -10 1 -18q0 -72 -59 -72h-370z" />
<glyph unicode="N" horiz-adv-x="1402" d="M86 0v16q0 53 29 70q14 6 35 8l94 4v1186l-150 12q-1 10 -1 19q0 71 57 71h217l716 -1105v1003l-149 12q-1 10 -1 19q0 71 56 71h365v-16q0 -55 -29 -67q-14 -8 -35 -11l-96 -4v-1265q-51 -23 -107 -23l-731 1126v-1024l150 -12q1 -10 1 -19q0 -71 -56 -71h-365z" />
<glyph unicode="O" horiz-adv-x="1314" d="M80 662v23q0 315 154 520q160 212 448 212q166 0 293 -82q254 -164 260 -606v-17q-1 -334 -155 -536q-158 -207 -457 -207q-250 0 -393.5 180.5t-149.5 512.5zM231 694q-1 -282 103 -449q103 -166 316 -166h3q215 1 323.5 166t108.5 447q1 281 -105 450 q-104 167 -316 167h-5q-215 -2 -321.5 -168t-106.5 -447z" />
<glyph unicode="P" horiz-adv-x="1128" d="M86 0v16q0 53 29 70q14 6 35 8l94 4v1190l-150 12q-1 8 -1 16q0 75 54 75h431q252 0 380.5 -107.5t128.5 -279.5q0 -233 -152.5 -340t-408.5 -107q-68 0 -135 6v-461l156 -12q1 -10 1 -18q0 -72 -59 -72h-403zM391 657q41 -4 117 -4q422 0 422 326q0 321 -368 321 q-29 0 -60 -2l-111 -6v-635z" />
<glyph unicode="Q" horiz-adv-x="1341" d="M80 645v25q0 331 154 535q159 212 448 212q166 0 293 -82q254 -164 260 -606v-19q0 -294 -123 -488q-127 -199 -367 -242q274 -135 396 -136q51 0 102 33q17 -21 17 -63q0 -41 -37 -72t-92.5 -31t-114 15.5t-124 49.5t-109.5 59.5t-118.5 73.5t-99.5 62 q-223 20 -351 199.5t-134 474.5zM231 693.5q0 -281.5 103 -448.5q103 -166 316 -166h3q215 1 323.5 166t108.5 446.5t-105 450.5q-105 167 -316 167h-5q-215 -2 -321.5 -168t-106.5 -447.5z" />
<glyph unicode="R" horiz-adv-x="1181" d="M86 0v33q0 45 41 57q10 4 23 4l94 4v1190l-150 12q-1 8 -1 16q0 74 54 75h449q448 0 448 -338q0 -170 -105 -271.5t-277 -130.5q125 -264 261 -411.5t236 -147.5q-2 -55 -31.5 -89t-74.5 -34q-84 0 -189 109q-199 209 -327 563h-7q-68 0 -139 6v-545l156 -12q1 -10 1 -19 q0 -71 -56 -71h-406zM391 741q86 -4 121 -4q184 0 280.5 76t96.5 211q0 180 -115 236q-82 39 -207 39q-24 0 -49 -1l-123 -6h-4v-551z" />
<glyph unicode="S" horiz-adv-x="1015" d="M51 209q0 53 32 88t87 35q25 -123 108.5 -186.5t223 -63.5t229.5 77t90 203q0 119 -84 181q-66 49 -140.5 80.5t-129.5 56.5t-111.5 54.5t-122.5 76.5q-127 92 -127 250t122 255t302 101h16q179 0 285 -86q66 -55 66 -129t-38 -106q-36 -30 -85 -29h-6q0 238 -250 238 q-117 0 -193.5 -55.5t-76.5 -153.5q0 -117 112 -189q61 -39 100.5 -57.5t123.5 -54t130 -58t101 -58.5t82 -69q66 -84 66 -194q0 -184 -138.5 -315.5t-363.5 -131.5q-162 0 -286 65.5t-124 174.5z" />
<glyph unicode="T" horiz-adv-x="1234" d="M41 1141v245h1153v-245q0 -59 -72 -59q-9 0 -18 1l-14 199h-396v-1180l156 -12q1 -10 1 -19q0 -71 -58 -71h-408v16q0 53 29 70q14 6 35 8l98 4v1184h-402l-14 -199q-10 -1 -18 -1q-72 0 -72 59z" />
<glyph unicode="U" horiz-adv-x="1323" d="M47 1296q-1 10 -1 19q0 71 56 71h400v-16q0 -53 -31 -67q-14 -8 -35 -11l-92 -4l-2 -786q0 -426 315 -426q170 0 263.5 103.5t93.5 316.5v788l-150 12q-1 10 -1 18q0 72 59 72h356v-16q0 -55 -29 -67q-14 -8 -35 -11l-90 -4v-768q0 -262 -117.5 -406.5t-367.5 -144.5 q-442 0 -442 525v790z" />
<glyph unicode="V" horiz-adv-x="1257" d="M10 1296q-1 10 -1 18q0 72 59 72h378v-16q0 -55 -28 -67q-14 -8 -35 -11l-94 -4h-2l354 -1091l381 1087l-148 12q-1 9 -1 17q0 73 57 73h317v-16q0 -72 -63 -78l-41 -4l-469 -1288h-113l-436 1284z" />
<glyph unicode="W" horiz-adv-x="1935" d="M10 1296q-1 10 -1 19q0 71 57 71h372v-16q0 -55 -28 -67q-14 -8 -35 -11l-88 -4l297 -1075l350 1049h121l311 -1055l334 1077l-152 12q-1 10 -1 18q0 72 59 72h321q-2 -6 0 -16t-1 -23.5t-9 -23.5q-12 -27 -53 -31l-37 -4l-418 -1288h-123l-317 997l-346 -997h-117 l-385 1284z" />
<glyph unicode="X" horiz-adv-x="1275" d="M25 0v16q0 53 28 70q16 6 105 12l401 584l-409 604l-119 12q-1 12 -1 22q0 70 58 71h373v-17q0 -55 -29 -67q-14 -8 -104 -17l331 -489l297 485l-127 12q-1 12 -1 23q0 69 57 70h336v-17q0 -53 -31 -67q-14 -8 -80 -15h-12l-377 -581l414 -609l118 -12q1 -11 1 -20 q0 -70 -58 -70h-371v16q0 16 3 24.5t8 22.5q10 27 55 31l61 4h2l-333 494l-320 -490h2l129 -12q1 -10 1 -19q0 -71 -58 -71h-350z" />
<glyph unicode="Y" horiz-adv-x="1212" d="M10 1298q-1 12 -1 22q0 70 59 71h383v-17q0 -55 -29 -67q-14 -8 -35 -11l-92 -6l344 -616l332 612l-146 12q-1 12 -1 22q0 71 59 71h319v-17q0 -72 -63 -78l-43 -6l-408 -725v-463l150 -12q1 -10 1 -19q0 -71 -57 -71h-403v16q0 53 31 70q14 6 34 8l93 4v463l-410 725h-2 z" />
<glyph unicode="Z" horiz-adv-x="1091" d="M43 57l791 1239l-576 -18l-25 -184q-6 -47 -34.5 -64.5t-61.5 -9.5v383h869q18 -23 28 -55l-790 -1246l665 23l27 197q8 74 70 74q12 0 26 -3v-393h-964q-14 20 -25 57z" />
<glyph unicode="[" horiz-adv-x="458" d="M131 -358v1781h299v-92h-170v-1597h170v-92h-299z" />
<glyph unicode="\" horiz-adv-x="823" d="M39 1425h139l602 -1693h-137z" />
<glyph unicode="]" horiz-adv-x="442" d="M29 -266h170v1597h-170v92h299v-1781h-299v92z" />
<glyph unicode="^" horiz-adv-x="995" d="M106 418l359 919h86l338 -919h-133l-250 690l-262 -690h-138z" />
<glyph unicode="_" horiz-adv-x="786" d="M-78 -174h942v-113h-942v113z" />
<glyph unicode="`" horiz-adv-x="1130" d="M143 1313q18 35 55.5 65.5t73.5 34.5l338 -260q-22 -41 -59 -59z" />
<glyph unicode="a" horiz-adv-x="1028" d="M94 240q0 125 92.5 211t305.5 86q125 0 221 -29v162q0 117 -58.5 187.5t-171 70.5t-161 -60.5t-54.5 -140.5q-7 -1 -13 -1q-41 0 -69 22q-32 24 -32 79q0 88 90 146.5t233 58.5q125 0 238 -61q63 -33 102 -109t39 -184v-598l135 -17q0 -96 -127 -96t-147 129 q-131 -127 -316 -127q-141 0 -224 73t-83 198zM252 260q0 -82 51 -130t141 -48q143 0 269 111v192q-94 51 -219 51t-183.5 -47t-58.5 -129z" />
<glyph unicode="b" horiz-adv-x="1130" d="M31 1393l297 37v-543q150 145 320.5 145t284.5 -125t119 -377v-18q0 -239 -124 -388q-129 -155 -363 -155q-117 0 -237 54l-142 53v1216l-106 13q-49 4 -49 88zM328 180q111 -100 267.5 -100t230 121t73.5 301t-72.5 294.5t-224.5 114.5q-76 0 -135 -30.5t-139 -96.5 v-604z" />
<glyph unicode="c" horiz-adv-x="925" d="M80 474v15q0 225 125 381q129 162 358 162q131 0 208 -53t77 -141q0 -109 -107 -109h-8q-2 76 -52 134.5t-151 58.5q-145 0 -222 -121t-77 -305q0 -162 64 -279q74 -129 254 -129q147 0 280 109q27 -18 27 -50q0 -61 -116.5 -119.5t-250.5 -58.5q-195 0 -300 135.5 t-109 369.5z" />
<glyph unicode="d" horiz-adv-x="1114" d="M80 472v22q0 236 124 384q130 154 363 154q125 0 238 -53v313l-107 13q-49 4 -49 88l297 37v-1348l131 -16q-4 -97 -125 -97q-135 0 -145 150q-150 -150 -322 -150t-285.5 126t-119.5 377zM231 502q0 -180 74 -296t225 -116q76 0 135.5 31t139.5 98v602 q-111 101 -267 101h-2q-156 0 -230 -120q-75 -120 -75 -300z" />
<glyph unicode="e" horiz-adv-x="944" d="M80 475q0 256 135 406.5t319.5 150.5t266.5 -116q80 -114 80 -271v-8v-98h-643q-2 -20 -2 -64q0 -174 73.5 -281.5t229 -107.5t297.5 111q25 -20 24 -52q0 -57 -111.5 -116.5t-250.5 -59.5q-190 0 -304 125t-114 381zM250 631h481q0 137 -53 218t-154.5 81t-173 -80 t-100.5 -219z" />
<glyph unicode="f" horiz-adv-x="657" d="M92 0v16q0 49 29 62q14 8 35 10l86 4v815h-146v37q0 23 10.5 36t16.5 15q18 6 31 6h88v76q0 182 78.5 282.5t222.5 100.5h10q65 0 111 -26q49 -27 49 -77t-27 -75t-70 -25q-2 51 -31.5 80t-84.5 29q-117 0 -117 -242v-123h252q1 -10 1 -19q0 -75 -61 -75h-192v-811 l201 -12v-35q0 -25 -11 -31q-20 -18 -45 -18h-436z" />
<glyph unicode="g" horiz-adv-x="948" d="M37 -188q0 156 162 276q-52 27 -52 94t103 172q-156 80 -166 275q-1 15 -1 29q0 146 93 254q103 120 279 120q117 0 207 -57l247 65q18 -25 20.5 -61.5t-20.5 -56.5q-28 -13 -134 -13h-42q63 -82 63 -224v-13q-3 -150 -98.5 -254.5t-267.5 -104.5q-47 0 -94 11 q-55 -64 -55 -94q0 -15 14 -21q37 -14 111 -14l61 -2q250 -4 353.5 -58.5t103.5 -200.5q0 -178 -131 -287.5t-337 -109.5t-312.5 77t-106.5 198zM244 -290q86 -50 237.5 -50t243.5 69.5t92 168.5q0 96 -108 127q-94 25 -240.5 28.5t-196.5 12.5q-115 -100 -115 -202 q0 -104 87 -154zM223 671.5q0 -110.5 57 -187.5q55 -76 152 -76h6q101 2 159 79.5t58 187t-55 186.5q-54 75 -152 75h-6q-102 -2 -160.5 -78t-58.5 -186.5z" />
<glyph unicode="h" horiz-adv-x="1267" d="M92 1391l297 39v-543q141 145 322 145q143 0 245.5 -99t104.5 -315l2 -522l154 -12q1 -8 1 -16q0 -68 -57 -68h-389v16q0 66 66 72l84 4v514q0 150 -63.5 224.5t-165 74.5t-166 -32.5t-138.5 -98.5v-678l156 -12q1 -9 1 -17q0 -67 -59 -67h-389v16q0 49 29 62q14 8 35 10 l86 4v1200l-107 11q-49 6 -49 88z" />
<glyph unicode="i" horiz-adv-x="595" d="M92 999l297 33v-936l156 -12q1 -9 1 -17q0 -67 -59 -67h-389v16q0 49 29 62q14 8 35 10l86 4v811l-107 8q-49 6 -49 88zM201 1292q0 45 27.5 74t72.5 29t73.5 -29t28.5 -74t-28.5 -72.5t-73.5 -27.5t-72.5 27.5t-27.5 72.5z" />
<glyph unicode="j" horiz-adv-x="509" d="M-133 -355.5q0 50.5 27 73.5q24 22 62 22h7q4 -92 96 -92q70 0 106 59.5t36 210.5v985l-109 10q-47 6 -47 86l297 33v-1014q0 -217 -79 -349t-238 -132q-59 0 -108.5 28.5t-49.5 79zM156 1292q0 45 27.5 74t72.5 29t73.5 -29t28.5 -74t-28.5 -72.5t-73.5 -27.5 t-72.5 27.5t-27.5 72.5z" />
<glyph unicode="k" horiz-adv-x="1099" d="M92 1393l297 37v-951l381 426l-123 13q-1 9 -1 17q0 66 59 66h321v-14q0 -49 -29 -61q-14 -8 -94 -17l-293 -321l359 -492l137 -12q1 -9 1 -17q0 -67 -60 -67h-168l-359 489l-131 -143v-250l156 -12q1 -9 1 -18q0 -66 -57 -66h-391v16q0 49 29 62q14 8 35 10l86 4v1200 l-107 13q-49 4 -49 88z" />
<glyph unicode="l" horiz-adv-x="585" d="M92 1391l297 39v-1334l146 -12q1 -8 1 -16q0 -68 -57 -68h-385v16q0 66 66 72l88 4v1202l-107 11q-49 6 -49 86z" />
<glyph unicode="m" horiz-adv-x="1904" d="M92 995l264 35l25 -143h6q137 145 307 145q92 0 176 -45t129 -141q72 84 153 135t210 51t233.5 -100.5t104.5 -315.5v-520l155 -12q1 -10 1 -19q0 -65 -58 -65h-387v16q0 49 29 62q14 8 35 10l84 4v512q0 299 -242 299q-84 0 -147.5 -36t-139.5 -105q18 -57 19 -146v-520 l153 -12q1 -9 1 -18q0 -66 -56 -66h-389v16q0 49 28 62q14 8 35 10l84 4v512q0 147 -64.5 223t-178.5 76q-80 0 -141.5 -32.5t-131.5 -96.5v-678l156 -12q1 -9 1 -17q0 -67 -59 -67h-389v16q0 49 29 62q14 8 35 10l86 4v813l-90 2q-66 0 -66 88z" />
<glyph unicode="n" horiz-adv-x="1255" d="M92 995l264 35l27 -156h6q166 158 342 158q137 0 234.5 -96t97.5 -297v-543l143 -12q1 -10 1 -19q0 -65 -58 -65h-381v16q0 49 29 62q14 8 34 10l91 4v531q0 286 -226 286h-2q-84 0 -151.5 -32.5t-153.5 -104.5v-676l146 -12q1 -9 1 -18q0 -66 -57 -66h-385v16 q0 66 66 72l88 4v807l-107 12q-49 4 -49 84z" />
<glyph unicode="o" horiz-adv-x="1040" d="M81 479v12q0 241 121 389q124 152 333 152q156 0 280 -98q66 -53 106 -155.5t40 -246.5v-16q0 -242 -119 -392q-123 -154 -332 -154.5t-317.5 130.5t-111.5 379zM231 496q0 -186 74 -304q73 -117 211 -117h2q139 1 215 117.5t76 301.5q-1 186 -73 310q-72 123 -210 123 h-2q-140 -1 -216.5 -122t-76.5 -309z" />
<glyph unicode="p" horiz-adv-x="1122" d="M23 987l264 35l28 -141q159 152 327 152l1 -1q168 0 281.5 -126t119.5 -376v-21q0 -236 -124 -385q-129 -155 -363 -155q-117 0 -238 54v-365l156 -12q1 -9 1 -17q0 -67 -58 -67h-389v16q0 49 28 62q16 6 121 14v1241l-108 12q-47 4 -47 80zM319 180q106 -100 266 -100 t233 121t73 301t-73 294.5t-224 114.5q-76 0 -135.5 -30.5t-139.5 -96.5v-604z" />
<glyph unicode="q" horiz-adv-x="1071" d="M80 472v15q0 239 123 389q127 156 358 156q127 0 240 -51v10l143 10v-1343l152 -12q1 -9 1 -17q0 -67 -59 -67h-387v16q0 49 29 62q16 6 121 14v440q-141 -125 -313.5 -125t-288 127t-119.5 376zM231 502q0 -180 75 -294t229 -114q78 0 135 26.5t131 84.5v620 q-113 96 -267 97h-2q-153 0 -227 -120t-74 -300z" />
<glyph unicode="r" horiz-adv-x="831" d="M92 989l277 35l14 -158h6q62 66 153 116t149.5 50t95 -27.5t36.5 -86.5q0 -106 -35 -146q-22 -19 -64 -19q-9 0 -19 1q0 147 -78 147q-98 0 -238 -139v-666l176 -12q1 -9 1 -17q0 -67 -58 -67h-410v16q0 49 29 62q14 8 35 10l86 4v801l-111 12q-45 4 -45 84z" />
<glyph unicode="s" horiz-adv-x="808" d="M47 162q2 46 32 74q28 26 67 26h6q16 -84 82 -135q68 -51 166 -52h4q96 0 160 45q66 46 67 122v5q0 71 -46 109q-48 39 -138.5 73t-126 48.5t-88 43t-80.5 57.5q-68 72 -68 167q2 133 108 211q104 76 227 76h6q126 -2 208 -44q80 -41 80 -120q0 -58 -39 -84 q-32 -21 -68 -21q-6 0 -12 1v6q0 68 -44 111q-46 45 -134 47h-8q-82 0 -138 -40q-61 -43 -61 -112q1 -63 59 -101q60 -40 170.5 -83t150.5 -62.5t87 -52.5q85 -59 85 -178v-8q-3 -125 -109 -225q-104 -98 -278 -97h-7q-127 4 -223.5 54.5t-96.5 138.5z" />
<glyph unicode="t" horiz-adv-x="765" d="M43 907q-1 8 -1 15q0 79 60 79h91v244l141 35v-279h383q1 -9 1 -18q0 -53 -32 -76h-352v-602q0 -115 25.5 -166t98 -51t122 16.5t120.5 73.5q37 -10 37 -61t-99 -100.5t-192 -49.5q-143 0 -198 82t-55 238v620h-150z" />
<glyph unicode="u" horiz-adv-x="1171" d="M33 915v27q0 59 57 59h240v-604q0 -152 63.5 -228.5t189.5 -76.5t255 113v700l-158 10q-1 10 -1 18q0 68 56 68h244v-884l100 -11q47 -4 47 -88l-247 -20l-27 108q-137 -137 -313 -137q-141 0 -246 100.5t-105 315.5v520z" />
<glyph unicode="v" horiz-adv-x="978" d="M8 918q-1 8 -1 15q0 68 53 68h1h328v-14q0 -16 -3 -23.5t-9 -19.5q-8 -25 -53 -29l-78 -6l254 -714l266 710l-117 13q-1 9 -1 17q0 66 59 66h264v-9q0 -73 -62 -77l-12 -2l-369 -913h-96l-344 905z" />
<glyph unicode="w" horiz-adv-x="1441" d="M8 918q-1 8 -1 15q0 68 53 68h1h328v-14q0 -16 -3 -23.5t-9 -19.5q-8 -25 -53 -29l-76 -6l211 -712l252 718h69l221 -702l230 692l-117 13q-1 9 -1 18q0 65 56 65h265q1 -9 1 -16q0 -66 -61 -70l-12 -2l-340 -913h-86l-221 635l-238 -635h-84l-303 905z" />
<glyph unicode="x" horiz-adv-x="995" d="M18 0v16q0 66 66 72l70 4l278 402l-299 411l-102 13q-1 9 -1 17q0 66 56 66h2h332v-14q0 -45 -21.5 -57t-42.5 -15l-59 -6l233 -321l203 317l-106 13q-1 9 -1 18q0 65 55 65h1h287q-2 -6 0 -16t-1 -22.5t-10 -22.5q-12 -25 -53 -25l-49 -4h-2l-270 -397l303 -418l96 -12 q1 -10 1 -19q0 -65 -58 -65h-330v16q0 66 63 72l62 4l-238 328l-209 -324l121 -12q1 -9 1 -18q0 -66 -56 -66h-322z" />
<glyph unicode="y" horiz-adv-x="1013" d="M10 918q-1 9 -1 17q0 66 57 66h2h344v-14q0 -49 -29 -61q-16 -8 -113 -17l267 -686l262 682l-119 13q-1 10 -1 19q0 64 58 64h271q-2 -6 0 -15t-1 -20.5t-8 -21.5q-12 -25 -77 -31l-351 -862h2q-55 -147 -111 -253.5t-89 -145.5q-80 -100 -158 -100q-1 -1 -2 -1 q-77 0 -113 32q-37 32 -37 76t24 71.5t53.5 27.5t39.5 -4q-4 -18 -4 -32q0 -50 51 -50q53 0 121 121t121 256l-356 856h-2z" />
<glyph unicode="z" horiz-adv-x="819" d="M31 59l583 859l-405 -11l-8 -114q-4 -43 -39 -59.5t-58 -4.5v272h656q16 -23 26 -61l-577 -848l473 8l12 117q4 41 39 57.5t55 4.5v-279h-735q-16 23 -22 59z" />
<glyph unicode="{" horiz-adv-x="653" d="M102 500v55q66 25 91 57q47 53 47 142.5t-16.5 219.5t-16.5 206q0 123 74.5 196.5t190.5 73.5t157 -27l-13 -71q-41 4 -61 4q-215 0 -215 -187q0 -47 17.5 -176t17.5 -202q0 -223 -105 -256v-15q104 -33 105 -254q0 -66 -17.5 -199t-17.5 -182q0 -188 215 -188q20 0 61 4 l13 -70q-51 -27 -164 -26.5t-185.5 74t-72.5 196.5q0 72 16.5 204t16.5 221t-47 142q-20 27 -91 58z" />
<glyph unicode="|" horiz-adv-x="538" d="M205 -399v1849h129v-1849h-129z" />
<glyph unicode="}" horiz-adv-x="653" d="M-6 -369l12 70q41 -4 62 -4q215 0 215 188q0 49 -17.5 182.5t-17.5 198.5q0 221 104 254v15q-104 33 -104 256q0 74 17.5 202.5t17.5 175.5q0 186 -215 187q-20 0 -62 -4l-12 71q41 27 156.5 27t190.5 -73.5t75 -196.5q0 -76 -16.5 -206t-16.5 -219t47 -143 q25 -33 90 -57v-55q-70 -31 -90 -58q-47 -53 -47 -142t16.5 -221t16.5 -204q0 -123 -73 -196.5t-185.5 -73.5t-163.5 26z" />
<glyph unicode="~" horiz-adv-x="1122" d="M205 522q27 94 90 144.5t133 46.5t152 -63.5t135 -61.5t89 25.5t50 72.5l64 -20q-20 -94 -81 -148.5t-144 -50.5t-169 60.5t-130 58.5t-77 -25.5t-49 -66.5z" />
<glyph unicode="&#xa1;" horiz-adv-x="509" d="M147 1300.5q0 47.5 31 79t77 31.5t76.5 -31.5t30.5 -79t-30.5 -78t-76.5 -30.5t-77 30.5t-31 78zM182 -37l23 1022q49 16 96 0l41 -1032q-92 -15 -160 10z" />
<glyph unicode="&#xa2;" horiz-adv-x="980" d="M102 462q-4 222 100.5 377.5t295.5 186.5l-17 195q70 25 137 0l-12 -189q123 -4 193.5 -57t70.5 -137q0 -113 -114 -109q-2 82 -52.5 141.5t-150.5 59.5q-145 0 -222 -122t-77 -304t72.5 -300t233.5 -118t294 107q25 -18 25 -50q0 -51 -81 -100t-192 -68l12 -190 q-72 -27 -137 0l15 182q-186 6 -288 139.5t-106 355.5z" />
<glyph unicode="&#xa3;" horiz-adv-x="1040" d="M100 70q68 18 104 53t54 103.5t43 328.5h-182v100h192q12 117 13 142q31 469 381 469q92 0 159.5 -39t67.5 -109q0 -123 -119 -117q0 164 -139 164q-90 0 -151.5 -91t-76.5 -277q-8 -102 -12 -142h354v-100h-364q-18 -209 -37.5 -312.5t-69.5 -144.5h623q8 -98 -76 -98 h-751q-12 25 -13 70z" />
<glyph unicode="&#xa4;" horiz-adv-x="1193" d="M100 174l183 158q-72 96 -72 241.5t76 245.5l-187 162q49 66 95 90l161 -180q104 76 245.5 76t240.5 -70l157 174q45 -25 95 -90l-179 -154q82 -104 82 -253.5t-75 -249.5l172 -150q-47 -66 -95 -92l-153 172q-96 -74 -241.5 -74t-250.5 78l-159 -176q-47 27 -95 92z M340 573.5q0 -122.5 73.5 -199.5t192.5 -77t191.5 77t72.5 199.5t-72.5 199.5t-191.5 77t-192.5 -77t-73.5 -199.5z" />
<glyph unicode="&#xa5;" horiz-adv-x="1173" d="M25 1163q-8 92 57 92h379v-16q0 -55 -29 -68q-16 -10 -110 -14l303 -479l280 473l-143 12q-9 92 57 92h334v-16q0 -72 -66 -78l-47 -6h-4l-309 -500h203v-102h-250v-104h250v-103h-250v-244l151 -12q8 -90 -57 -90h-393v16q0 53 29 70q14 6 34 8l95 4v248h-279v103h279 v104h-279v102h223l-340 496z" />
<glyph unicode="&#xa6;" horiz-adv-x="538" d="M205 354h129v-753h-129v753zM205 696v754h129v-754h-129z" />
<glyph unicode="&#xa7;" horiz-adv-x="1083" d="M86 -303q0 53 32 88t87 35q25 -121 108.5 -183.5t219 -62.5t229.5 71.5t94 202.5q0 84 -53 156q-33 45 -150 98q-27 12 -114.5 50t-147 69t-125.5 78q-125 94 -125 250t131 260q-131 100 -131 256t128 253t298 101q184 4 299 -88q66 -53 66 -127t-38 -105.5t-91 -29.5 q0 111 -61.5 172.5t-183.5 61.5t-198.5 -54.5t-76.5 -150.5q0 -115 114 -189q61 -39 97 -56t127 -56q199 -82 287.5 -159t88.5 -228.5t-104 -272.5q104 -92 104 -233q0 -184 -138 -315.5t-363 -131.5q-162 0 -286 65.5t-124 174.5zM282.5 580.5q-0.5 -109.5 112.5 -183.5 q90 -57 220 -111.5t188 -86.5q53 70 53 163q0 86 -53 154q-18 25 -70 55q-66 39 -167 81t-195 91q-88 -53 -88.5 -162.5z" />
<glyph unicode="&#xa8;" horiz-adv-x="1228" d="M248 1258.5q0 44.5 30.5 76t74.5 31.5t75 -31.5t31 -76t-30 -75t-75 -30.5t-75.5 30.5t-30.5 75zM586 1258.5q0 44.5 30.5 76t74.5 31.5t75 -31.5t31 -76t-31 -75t-75 -30.5t-74.5 30.5t-30.5 75z" />
<glyph unicode="&#xa9;" horiz-adv-x="1339" d="M102 636q0 255 156 411.5t412 156.5t411.5 -155.5t155.5 -411.5t-154.5 -411.5t-411.5 -155.5t-413 155.5t-156 410.5zM221 634q0 -208 124 -335t325.5 -127t324.5 127t123 338t-125 338t-325.5 127t-323.5 -130t-123 -338zM427 625.5q-1 136.5 73.5 229.5t210.5 93 q75 0 119 -30.5t44 -71.5t-22.5 -57.5t-50.5 -16.5q0 41 -28 68.5t-90 27.5t-103 -64.5t-41 -162.5q0 -217 174 -217q92 0 153 47q14 -8 14.5 -40t-58 -64.5t-136.5 -32.5q-123 0 -190.5 77.5t-68.5 214z" />
<glyph unicode="&#xaa;" horiz-adv-x="667" d="M72 840.5q0 72.5 57 119t186 46.5q63 0 107 -9v60q0 135 -111 135q-57 0 -84.5 -28.5t-29.5 -71.5q-37 -4 -61.5 12t-24.5 61t54 79t150.5 34t163 -51t66.5 -164v-299l78 -8q0 -29 -21.5 -50.5t-64.5 -21.5q-84 0 -109 64q-70 -63 -163 -63.5t-143 41.5t-50 114.5z M207 854q0 -35 25.5 -58.5t76.5 -23.5t113 41v98q-51 21 -102.5 21t-82 -21.5t-30.5 -56.5z" />
<glyph unicode="&#xab;" horiz-adv-x="1138" d="M121 453q-10 43 0 90l500 413l61 -61l-393 -391v-12l397 -392l-65 -61zM512 453q-10 43 0 90l500 413l61 -61l-393 -391v-12l397 -392l-65 -61z" />
<glyph unicode="&#xac;" horiz-adv-x="983" d="M102 532v117h779v-117l-2 -223h-119l2 223h-660z" />
<glyph unicode="&#xad;" horiz-adv-x="794" d="M98 451v120h598v-120h-598z" />
<glyph unicode="&#xae;" horiz-adv-x="1218" d="M135 957q0 214 131 347.5t344 133.5t343 -131t130 -348.5t-131 -347.5t-342 -130t-343 131t-132 345zM240 958.5q0 -174.5 103 -280t268 -105.5t266.5 103.5t101.5 277.5t-99.5 281.5t-265 107.5t-270 -105t-104.5 -279.5zM401 723q0 57 29 59l31 2v390l-60 2q0 57 27 57 h186q184 0 185 -127q0 -117 -137 -145q94 -188 190 -189q-4 -57 -66.5 -57t-120 74.5t-90.5 164.5h-22v-170l63 -4q0 -57 -30 -57h-185zM553 1010q8 -2 47 -2t72 24.5t33 65.5q0 78 -111 78h-41v-166z" />
<glyph unicode="&#xaf;" horiz-adv-x="1228" d="M258 1184v116h539v-116h-539z" />
<glyph unicode="&#xb0;" horiz-adv-x="663" d="M106 1186q0 96 65 156.5t163 60.5t160.5 -59.5t62.5 -156.5t-62.5 -157.5t-162 -60.5t-163 60.5t-63.5 156.5zM213 1188q0 -55 34 -91t87 -36t85 34.5t32 90t-33 90.5t-86 35t-86 -34t-33 -89z" />
<glyph unicode="&#xb1;" horiz-adv-x="978" d="M102 106v115h775v-115h-775zM102 528v115h328v330h119v-330h328v-115h-328v-243h-119v243h-328z" />
<glyph unicode="&#xb2;" horiz-adv-x="657" d="M74 631q31 20 65.5 52t69.5 62.5t50 45t44 44t43 49t34.5 48.5t29.5 51q25 57 24.5 104.5t-31 79t-86.5 31.5q-129 0 -129 -160q-96 -4 -96 80q0 68 66.5 113t172 45t168 -52.5t62.5 -138.5q0 -188 -338 -434h285l8 68q4 29 27.5 39t44.5 2v-193h-502q-18 45 -12 64z" />
<glyph unicode="&#xb3;" horiz-adv-x="618" d="M70 666q0 63 73 69q4 -47 41 -76.5t100.5 -29.5t105.5 34.5t42 94.5q-4 137 -237 125v84q66 0 134 34.5t68 110.5q0 41 -25.5 64.5t-75.5 23.5t-78 -31.5t-30 -78.5q-45 2 -65.5 20t-17 57t57.5 73t148.5 34t154.5 -42t60 -116q0 -121 -161 -172q90 -10 143 -57t53 -129 t-79 -144.5t-189.5 -62.5t-166.5 32.5t-56 82.5z" />
<glyph unicode="&#xb4;" horiz-adv-x="1228" d="M369 1153l338 260q37 -4 74 -34.5t55 -65.5l-408 -219q-37 18 -59 59z" />
<glyph unicode="&#xb5;" horiz-adv-x="1153" d="M188 -399l13 731q-2 16 -2 53v616h141v-604q0 -152 63.5 -228.5t189.5 -76.5t247 105v804h141v-921l135 -17q0 -96 -125 -96t-145 123q-129 -121 -280.5 -121t-241.5 82l12 -450q-25 -10 -75 -10.5t-73 10.5z" />
<glyph unicode="&#xb6;" horiz-adv-x="1232" d="M100 1001q0 170 118 280t341 110h518q61 0 56 -91l-150 -12v-1472h-149v1472h-148v-1472h-151v788q-150 0 -281 80q-70 43 -112 125t-42 192z" />
<glyph unicode="&#xb7;" horiz-adv-x="385" d="M82 526q0 47 31.5 80t79 33t79 -33t31.5 -80t-31.5 -78.5t-79 -31.5t-79 31.5t-31.5 78.5z" />
<glyph unicode="&#xb8;" horiz-adv-x="1228" d="M438 -336q-6 43 25 64q47 -37 102 -37q94 0 94 76q0 35 -31.5 53t-117.5 18l51 199h80l-29 -123q84 0 125 -40t41 -108.5t-53 -113.5t-143 -45t-144 57z" />
<glyph unicode="&#xb9;" horiz-adv-x="559" d="M86 1167l166 88q25 12 63.5 12.5t38.5 -48.5v-564l119 -6q0 -66 -45 -65h-319v10q0 57 47 57l75 2v488l-81 -25q-25 -8 -44.5 14.5t-19.5 36.5z" />
<glyph unicode="&#xba;" horiz-adv-x="747" d="M92 967.5q-2 140.5 72 225.5t194.5 85t192.5 -75t73 -217t-73 -225t-201 -83t-191.5 74.5t-66.5 215zM221 974q0 -97 36 -154.5t99.5 -57.5t100.5 57.5t37 153.5t-35 157.5t-99.5 61.5t-101.5 -60.5t-37 -157.5z" />
<glyph unicode="&#xbb;" horiz-adv-x="1138" d="M61 100l400 392v12l-395 391l61 61l500 -413q12 -47 0 -90l-500 -414zM453 100l397 392v12l-393 391l61 61l500 -413q10 -47 0 -90l-500 -414z" />
<glyph unicode="&#xbc;" horiz-adv-x="1288" d="M57 1169l166 91q25 12 64 12t39 -51v-580l116 -8q0 -6 1 -21.5t-11 -31t-35 -15.5h-317v13q0 57 47 57l76 4v502l-82 -27q-27 -6 -46.5 17.5t-17.5 37.5zM236 0l725 1274h131l-727 -1274h-129zM672 207l348 487q55 14 102 4v-481h107v-78h-107v-147l-121 -12v159h-299 q-29 41 -30 68zM772 217h229v322z" />
<glyph unicode="&#xbd;" horiz-adv-x="1288" d="M37 1169l166 91q25 12 64.5 12t39.5 -51v-580l117 -8q0 -6 1 -21.5t-11.5 -31t-34.5 -15.5h-318v13q0 57 48 57l75 4v502l-84 -27q-27 -8 -45 14.5t-18 40.5zM207 0l727 1274h129l-725 -1274h-131zM739 63q31 20 66 52t69.5 62t50 45.5t44 45t43 49t35 48t30.5 49.5 q23 55 23 104t-30 81t-87 32q-129 0 -129 -160q-96 -4 -96 78q0 68 66.5 114t172 46t168 -52.5t62.5 -138.5q0 -188 -338 -434h285l8 68q4 29 27.5 39t43.5 2v-193h-501q-16 39 -13 63z" />
<glyph unicode="&#xbe;" horiz-adv-x="1288" d="M49 666q0 63 74 69q4 -47 41 -76.5t100.5 -29.5t105.5 34.5t40 94.5q-2 137 -236 125l-2 84q68 0 136.5 34.5t68.5 110.5q0 88 -101 88q-53 0 -79.5 -31.5t-28.5 -78.5q-45 2 -65.5 20t-17.5 57t57.5 73t148.5 34t154.5 -42t60.5 -116q0 -121 -162 -172q90 -10 143.5 -57 t53.5 -129t-79 -144.5t-189.5 -62.5t-167 32.5t-56.5 82.5zM274 0l727 1274h129l-727 -1274h-129zM690 207l348 487q55 14 103 4l2 -481h104v-78h-104v-147l-123 -12v159h-299q-27 37 -31 68zM791 217h229v322z" />
<glyph unicode="&#xbf;" horiz-adv-x="995" d="M96 270.5q0 161.5 123 280.5t283 156l12 290q45 6 100 0l11 -366q-164 -41 -269.5 -137.5t-105.5 -227.5q0 -100 66.5 -170.5t191.5 -70.5t194.5 85t69.5 195q125 0 125 -98q0 -107 -108.5 -194t-294 -87t-292 91.5t-106.5 253zM457 1300.5q0 47.5 30.5 79t77.5 31.5 t78 -31.5t31 -79t-32 -78t-78 -30.5t-76.5 30.5t-30.5 78z" />
<glyph unicode="&#xc0;" d="M23 0v16q0 53 28 70q14 6 35 8l82 4l395 1291q66 8 133 0l396 -1287l133 -12q7 -90 -56 -90h-393v16q0 53 29 70q14 6 35 8l94 4l-109 375h-434l-108 -371l153 -12q8 -90 -55 -90h-358zM358 1698q18 35 55 65.5t74 34.5l338 -260q-23 -41 -59 -59zM422 575h373l-185 642z " />
<glyph unicode="&#xc1;" d="M23 0v16q0 53 28 70q14 6 35 8l82 4l395 1291q66 8 133 0l396 -1287l133 -12q7 -90 -56 -90h-393v16q0 53 29 70q14 6 35 8l94 4l-109 375h-434l-108 -371l153 -12q8 -90 -55 -90h-358zM422 575h373l-185 642zM465 1554l338 261q37 -4 74 -35t55 -68l-406 -217 q-39 18 -61 59z" />
<glyph unicode="&#xc2;" d="M23 0v16q0 53 28 70q14 6 35 8l82 4l395 1291q66 8 133 0l396 -1287l133 -12q7 -90 -56 -90h-393v16q0 53 29 70q14 6 35 8l94 4l-109 375h-434l-108 -371l153 -12q8 -90 -55 -90h-358zM295 1532l270 248q70 16 127 0l269 -248q-27 -43 -58 -57l-274 180l-277 -180 q-35 18 -57 57zM422 575h373l-185 642z" />
<glyph unicode="&#xc3;" d="M23 0v16q0 53 28 70q14 6 35 8l82 4l395 1291q66 8 133 0l396 -1287l133 -12q7 -90 -56 -90h-393v16q0 53 29 70q14 6 35 8l94 4l-109 375h-434l-108 -371l153 -12q8 -90 -55 -90h-358zM289 1571q20 96 78.5 149.5t126 53.5t149.5 -54.5t133 -54.5t86 29.5t45 77.5 l62 -19q-17 -96 -71 -153.5t-135 -57.5t-167 51.5t-129 51.5t-71.5 -29t-43.5 -68zM422 575h373l-185 642z" />
<glyph unicode="&#xc4;" d="M23 0v16q0 53 28 70q14 6 35 8l82 4l395 1291q66 8 133 0l396 -1287l133 -12q7 -90 -56 -90h-393v16q0 53 29 70q14 6 35 8l94 4l-109 375h-434l-108 -371l153 -12q8 -90 -55 -90h-358zM350 1643.5q0 44.5 32 76t76 31.5t74.5 -31.5t30.5 -76t-29.5 -75t-74.5 -30.5 t-77 30.5t-32 75zM422 575h373l-185 642zM688 1644q0 42 32 74.5t76 32.5t74.5 -31.5t30.5 -76t-30.5 -75t-75.5 -30.5t-76 32t-31 74z" />
<glyph unicode="&#xc5;" d="M23 0v16q0 53 28 70q14 6 35 8l82 4l395 1291q66 8 133 0l396 -1287l133 -12q7 -90 -56 -90h-393v16q0 53 29 70q14 6 35 8l94 4l-109 375h-434l-108 -371l153 -12q8 -90 -55 -90h-358zM422 575h373l-185 642zM446 1673q0 80 52.5 130t137.5 50t134 -47t48 -128t-53 -131 t-135 -50t-133.5 48t-50.5 128zM541 1675q0 -43 24.5 -67.5t67.5 -24.5t67.5 24.5t24.5 67.5t-24.5 67.5t-67.5 24.5t-67.5 -24.5t-24.5 -67.5z" />
<glyph unicode="&#xc6;" horiz-adv-x="1771" d="M23 0v16q0 53 28 70q16 8 115 12l631 1291l845 2v-291q0 -63 -92 -53l-18 231l-516 10v-547l393 27q16 -66 2 -147l-395 20v-539l557 15l18 217q92 11 92 -55v-279h-972v16q0 53 28 70q14 6 35 8l94 4v541h-327l-258 -537l153 -12q8 -90 -55 -90h-358zM590 739h278v547 h-16z" />
<glyph unicode="&#xc7;" horiz-adv-x="1144" d="M79 663.5q-7 321.5 155.5 537.5t451.5 216q166 0 277.5 -74.5t111.5 -189.5t-129 -117q0 129 -73.5 200t-202.5 71q-211 0 -321.5 -170t-110.5 -451q0 -592 456 -592q213 0 369 125q27 -14 27 -45q0 -59 -112 -126.5t-273 -76.5l-15 -57q84 0 125 -40t41 -108.5 t-53 -113.5t-143.5 -45t-143.5 57q-6 43 25 64q47 -37 102 -37q94 0 94 76q0 35 -31.5 53t-117.5 18l35 131q-258 14 -397.5 193.5t-146.5 501z" />
<glyph unicode="&#xc8;" horiz-adv-x="1130" d="M86 0v33q0 45 41 57q10 4 23 4l94 4v1186l-150 12q-8 90 58 90h864v-288q0 -63 -90 -56l-21 232l-514 10v-547l393 27q14 -76 0 -148l-393 23v-537l543 15l20 217q90 8 90 -55v-279h-958zM356 1698q18 35 55.5 65.5t73.5 34.5l338 -260q-22 -41 -59 -59z" />
<glyph unicode="&#xc9;" horiz-adv-x="1130" d="M86 0v33q0 45 41 57q10 4 23 4l94 4v1186l-150 12q-8 90 58 90h864v-288q0 -63 -90 -56l-21 232l-514 10v-547l393 27q14 -76 0 -148l-393 23v-537l543 15l20 217q90 8 90 -55v-279h-958zM463 1554l336 261q37 -4 74 -35t55 -68l-406 -217q-37 16 -59 59z" />
<glyph unicode="&#xca;" horiz-adv-x="1130" d="M86 0v33q0 45 41 57q10 4 23 4l94 4v1186l-150 12q-8 90 58 90h864v-288q0 -63 -90 -56l-21 232l-514 10v-547l393 27q14 -76 0 -148l-393 23v-537l543 15l20 217q90 8 90 -55v-279h-958zM293 1532l270 248q68 16 127 0l268 -248q-31 -45 -59 -57l-274 180l-275 -180 q-35 18 -57 57z" />
<glyph unicode="&#xcb;" horiz-adv-x="1130" d="M86 0v33q0 45 41 57q10 4 23 4l94 4v1186l-150 12q-8 90 58 90h864v-288q0 -63 -90 -56l-21 232l-514 10v-547l393 27q14 -76 0 -148l-393 23v-537l543 15l20 217q90 8 90 -55v-279h-958zM348 1643.5q0 44.5 32 76t76 31.5t74.5 -31.5t30.5 -76t-30.5 -75t-74.5 -30.5 t-76 30.5t-32 75zM686 1643.5q0 44.5 31 76t75 31.5t75.5 -31.5t31.5 -76t-31.5 -75t-75.5 -30.5t-75 30.5t-31 75z" />
<glyph unicode="&#xcc;" horiz-adv-x="634" d="M55 1698q18 35 55 65.5t74 34.5l338 -260q-23 -41 -59 -59zM86 0v16q0 53 29 70q14 6 35 8l94 4v1186l-150 12q-8 90 56 90h399v-16q0 -55 -29 -67q-14 -8 -35 -11l-94 -4v-1186l150 -12q7 -90 -56 -90h-399z" />
<glyph unicode="&#xcd;" horiz-adv-x="634" d="M86 0v16q0 53 29 70q14 6 35 8l94 4v1186l-150 12q-8 90 56 90h399v-16q0 -55 -29 -67q-14 -8 -35 -11l-94 -4v-1186l150 -12q7 -90 -56 -90h-399zM162 1554l336 261q39 -4 76 -35t53 -68l-406 -217q-37 18 -59 59z" />
<glyph unicode="&#xce;" horiz-adv-x="634" d="M-8 1532l270 248q68 16 127 0l268 -248q-31 -45 -59 -57l-274 178l-275 -178q-35 18 -57 57zM86 0v16q0 53 29 70q14 6 35 8l94 4v1186l-150 12q-8 90 56 90h399v-16q0 -55 -29 -67q-14 -8 -35 -11l-94 -4v-1186l150 -12q7 -90 -56 -90h-399z" />
<glyph unicode="&#xcf;" horiz-adv-x="634" d="M47 1643.5q0 44.5 32 76t76 31.5t74.5 -31.5t30.5 -76t-29.5 -75t-74.5 -30.5t-77 30.5t-32 75zM86 0v16q0 53 29 70q14 6 35 8l94 4v1186l-150 12q-8 90 56 90h399v-16q0 -55 -29 -67q-14 -8 -35 -11l-94 -4v-1186l150 -12q7 -90 -56 -90h-399zM385 1643.5 q0 44.5 30.5 76t75 31.5t76 -31.5t31.5 -76t-31.5 -75t-76 -30.5t-75 30.5t-30.5 75z" />
<glyph unicode="&#xd0;" horiz-adv-x="1417" d="M86 0v33q0 23 11.5 36t17.5 15t13 5t17 3l97 8v539h-107v104h107v543l-148 12q-6 92 60 93h428q367 0 533.5 -168t166.5 -515.5t-178 -527.5t-520 -180h-498zM389 100l150 -2q286 -4 435.5 142.5t149.5 463t-155.5 459t-472.5 131.5l-105 -4h-2v-547h369v-104h-369v-539z " />
<glyph unicode="&#xd1;" horiz-adv-x="1402" d="M86 0v16q0 53 29 70q14 6 35 8l94 4v1186l-150 12q-8 90 56 90h217l716 -1105v1003l-149 12q-8 90 55 90h365v-16q0 -55 -29 -67q-14 -8 -35 -11l-96 -4v-1265q-51 -23 -107 -23l-731 1126v-1024l150 -12q8 -90 -55 -90h-365zM356 1571q18 96 78 149.5t127.5 53.5 t149.5 -54.5t133 -54.5t84 29.5t45 77.5l63 -19q-16 -94 -71.5 -152.5t-135 -58.5t-165.5 51.5t-129 51.5t-73 -29t-44 -68z" />
<glyph unicode="&#xd2;" horiz-adv-x="1314" d="M80 661.5q-6 331.5 153.5 543.5t448.5 212q166 0 293 -82q254 -164 260 -606q4 -346 -154.5 -553t-457.5 -207q-250 0 -393.5 180.5t-149.5 512zM231 693.5q0 -281.5 103.5 -448.5t318.5 -166t323.5 166t108.5 446.5t-105.5 450.5t-320.5 167t-321.5 -168t-106.5 -447.5z M416 1698q18 35 55 65.5t74 34.5l338 -260q-23 -41 -60 -59z" />
<glyph unicode="&#xd3;" horiz-adv-x="1314" d="M80 661.5q-6 331.5 153.5 543.5t448.5 212q166 0 293 -82q254 -164 260 -606q4 -346 -154.5 -553t-457.5 -207q-250 0 -393.5 180.5t-149.5 512zM231 693.5q0 -281.5 103.5 -448.5t318.5 -166t323.5 166t108.5 446.5t-105.5 450.5t-320.5 167t-321.5 -168t-106.5 -447.5z M522 1554l338 261q37 -4 74 -35t55 -68l-407 -217q-37 18 -60 59z" />
<glyph unicode="&#xd4;" horiz-adv-x="1314" d="M80 661.5q-6 331.5 153.5 543.5t448.5 212q166 0 293 -82q254 -164 260 -606q4 -346 -154.5 -553t-457.5 -207q-250 0 -393.5 180.5t-149.5 512zM231 693.5q0 -281.5 103.5 -448.5t318.5 -166t323.5 166t108.5 446.5t-105.5 450.5t-320.5 167t-321.5 -168t-106.5 -447.5z M352 1532l271 248q68 16 127 0l268 -248q-33 -45 -57 -57l-275 178l-276 -178q-35 18 -58 57z" />
<glyph unicode="&#xd5;" horiz-adv-x="1314" d="M80 661.5q-6 331.5 153.5 543.5t448.5 212q166 0 293 -82q254 -164 260 -606q4 -346 -154.5 -553t-457.5 -207q-250 0 -393.5 180.5t-149.5 512zM231 693.5q0 -281.5 103.5 -448.5t318.5 -166t323.5 166t108.5 446.5t-105.5 450.5t-320.5 167t-321.5 -168t-106.5 -447.5z M346 1571q21 96 79 149.5t125.5 53.5t149.5 -54.5t133.5 -54.5t86 29.5t45.5 77.5l61 -19q-16 -96 -70.5 -153.5t-135.5 -57.5t-167 51.5t-129 51.5t-72.5 -29t-43.5 -68z" />
<glyph unicode="&#xd6;" horiz-adv-x="1314" d="M80 661.5q-6 331.5 153.5 543.5t448.5 212q166 0 293 -82q254 -164 260 -606q4 -346 -154.5 -553t-457.5 -207q-250 0 -393.5 180.5t-149.5 512zM231 693.5q0 -281.5 103.5 -448.5t318.5 -166t323.5 166t108.5 446.5t-105.5 450.5t-320.5 167t-321.5 -168t-106.5 -447.5z M408 1643.5q0 44.5 31.5 76t75.5 31.5t75 -31.5t31 -76t-30 -75t-75 -30.5t-76.5 30.5t-31.5 75zM745 1643.5q0 44.5 31 76t76 31.5t75.5 -31.5t30.5 -76t-30.5 -75t-75.5 -30.5t-76 30.5t-31 75z" />
<glyph unicode="&#xd7;" horiz-adv-x="860" d="M102 342l244 244l-244 243l82 84l246 -243l244 243l84 -84l-244 -243l242 -244l-82 -84l-244 244l-244 -244z" />
<glyph unicode="&#xd8;" horiz-adv-x="1400" d="M80 627.5q-6 365.5 153.5 577.5t448.5 212q190 0 326 -104l61 104l109 -55l-82 -139q133 -174 138 -507t-153.5 -540t-457.5 -207q-123 0 -228 47l-28 -49l-109 60l35 57q-207 178 -213 543.5zM231 672q0 -303 131 -465l576 987q-104 115 -281 115q-213 -2 -319.5 -168 t-106.5 -469zM459 125q82 -47 194 -47q215 2 323.5 167t108.5 424t-71 410z" />
<glyph unicode="&#xd9;" horiz-adv-x="1323" d="M47 1296q-8 90 55 90h400v-16q0 -53 -31 -67q-14 -8 -35 -11l-92 -4l-2 -786q0 -426 315 -426q170 0 263.5 103.5t93.5 316.5v788l-150 12q-8 90 58 90h356v-16q0 -55 -29 -67q-14 -8 -35 -11l-90 -4v-768q0 -262 -117.5 -406.5t-367.5 -144.5q-442 0 -442 525v790z M397 1698q18 35 55 65.5t74 34.5l338 -260q-22 -41 -59 -59z" />
<glyph unicode="&#xda;" horiz-adv-x="1323" d="M47 1296q-8 90 55 90h400v-16q0 -53 -31 -67q-14 -8 -35 -11l-92 -4l-2 -786q0 -426 315 -426q170 0 263.5 103.5t93.5 316.5v788l-150 12q-8 90 58 90h356v-16q0 -55 -29 -67q-14 -8 -35 -11l-90 -4v-768q0 -262 -117.5 -406.5t-367.5 -144.5q-442 0 -442 525v790z M504 1554l338 261q37 -4 74 -35t55 -68l-406 -217q-39 18 -61 59z" />
<glyph unicode="&#xdb;" horiz-adv-x="1323" d="M47 1296q-8 90 55 90h400v-16q0 -53 -31 -67q-14 -8 -35 -11l-92 -4l-2 -786q0 -426 315 -426q170 0 263.5 103.5t93.5 316.5v788l-150 12q-8 90 58 90h356v-16q0 -55 -29 -67q-14 -8 -35 -11l-90 -4v-768q0 -262 -117.5 -406.5t-367.5 -144.5q-442 0 -442 525v790z M334 1532l270 248q70 16 127 0l268 -248q-27 -43 -57 -57l-274 180l-277 -180q-35 18 -57 57z" />
<glyph unicode="&#xdc;" horiz-adv-x="1323" d="M47 1296q-8 90 55 90h400v-16q0 -53 -31 -67q-14 -8 -35 -11l-92 -4l-2 -786q0 -426 315 -426q170 0 263.5 103.5t93.5 316.5v788l-150 12q-8 90 58 90h356v-16q0 -55 -29 -67q-14 -8 -35 -11l-90 -4v-768q0 -262 -117.5 -406.5t-367.5 -144.5q-442 0 -442 525v790z M389 1643.5q0 44.5 33 76t76 31.5t73.5 -31.5t30.5 -76t-29.5 -75t-74.5 -30.5t-77 30.5t-32 75zM727 1644q0 42 32 74.5t76 32.5t74.5 -31.5t30.5 -76t-30.5 -75t-74.5 -30.5t-76 32t-32 74z" />
<glyph unicode="&#xdd;" horiz-adv-x="1212" d="M10 1298q-10 92 58 93h383v-17q0 -55 -29 -67q-14 -8 -35 -11l-92 -6l344 -616l332 612l-146 12q-10 93 58 93h319v-17q0 -72 -63 -78l-43 -6l-408 -725v-463l150 -12q8 -90 -56 -90h-403v16q0 53 31 70q14 6 34 8l93 4v463l-410 725h-2zM465 1554l336 261q39 -4 76 -35 t53 -68l-406 -217q-37 18 -59 59z" />
<glyph unicode="&#xde;" horiz-adv-x="1228" d="M86 0v16q0 53 29 70q14 6 35 8l94 4v1188l-150 12q-8 92 56 93h399v-17q0 -55 -29 -67q-14 -8 -35 -11l-94 -6v-166h178q260 0 390.5 -107.5t130.5 -281.5q0 -229 -153 -332.5t-415 -103.5q-88 0 -131 2v-199l150 -12q8 -90 -56 -90h-399zM391 395l109 -2q217 0 321.5 79 t104.5 244t-104.5 240.5t-327.5 75.5h-103v-637z" />
<glyph unicode="&#xdf;" horiz-adv-x="1232" d="M92 0v16q0 51 31 64q14 6 35 8l88 2v838q0 281 128 405.5t331 120.5q141 -2 235 -60.5t94 -183.5q0 -123 -108 -217q-45 -39 -91.5 -73.5t-78 -74.5t-31.5 -83t38 -83t76 -60.5t129 -63.5t154.5 -103.5t63.5 -171t-96.5 -211t-255.5 -100.5q-115 0 -200 51.5t-85 139.5 q0 49 27.5 73.5t70.5 24.5q16 -84 71.5 -133t141.5 -49t141.5 51t55.5 125q0 39 -11.5 58.5t-17.5 29.5t-20.5 22.5t-22.5 19.5t-29.5 18.5t-29.5 17.5q-29 14 -83.5 41.5t-86 47t-76.5 56.5q-86 68 -86 172q0 117 106 211q45 39 91 78q109 90 108 178q0 152 -194 152 q-160 0 -239 -109.5t-79 -294.5v-950h-295z" />
<glyph unicode="&#xe0;" horiz-adv-x="1028" d="M94 240q0 125 92.5 211t305.5 86q125 0 221 -29v162q0 117 -58.5 187.5t-171 70.5t-161 -60.5t-54.5 -140.5q-49 -4 -81.5 20.5t-32.5 79.5q0 88 90 146.5t233 58.5q125 0 238 -61q63 -33 102 -109t39 -184v-598l135 -17q0 -96 -127 -96t-147 129q-131 -127 -316 -127 q-141 0 -224 73t-83 198zM207 1313q18 35 55 65.5t74 34.5l338 -260q-23 -41 -60 -59zM252 260q0 -82 51 -130t141 -48q143 0 269 111v192q-94 51 -219 51t-183.5 -47t-58.5 -129z" />
<glyph unicode="&#xe1;" horiz-adv-x="1028" d="M94 240q0 125 92.5 211t305.5 86q125 0 221 -29v162q0 117 -58.5 187.5t-171 70.5t-161 -60.5t-54.5 -140.5q-49 -4 -81.5 20.5t-32.5 79.5q0 88 90 146.5t233 58.5q125 0 238 -61q63 -33 102 -109t39 -184v-598l135 -17q0 -96 -127 -96t-147 129q-131 -127 -316 -127 q-141 0 -224 73t-83 198zM252 260q0 -82 51 -130t141 -48q143 0 269 111v192q-94 51 -219 51t-183.5 -47t-58.5 -129zM313 1153l338 260q37 -4 74 -34.5t55 -65.5l-407 -219q-37 18 -60 59z" />
<glyph unicode="&#xe2;" horiz-adv-x="1028" d="M94 240q0 125 92.5 211t305.5 86q125 0 221 -29v162q0 117 -58.5 187.5t-171 70.5t-161 -60.5t-54.5 -140.5q-49 -4 -81.5 20.5t-32.5 79.5q0 88 90 146.5t233 58.5q125 0 238 -61q63 -33 102 -109t39 -184v-598l135 -17q0 -96 -127 -96t-147 129q-131 -127 -316 -127 q-141 0 -224 73t-83 198zM145 1147l271 248q68 16 125 0l268 -248q-23 -39 -57 -57l-275 180l-274 -180q-35 18 -58 57zM252 260q0 -82 51 -130t141 -48q143 0 269 111v192q-94 51 -219 51t-183.5 -47t-58.5 -129z" />
<glyph unicode="&#xe3;" horiz-adv-x="1028" d="M94 240q0 125 92.5 211t305.5 86q125 0 221 -29v162q0 117 -58.5 187.5t-171 70.5t-161 -60.5t-54.5 -140.5q-49 -4 -81.5 20.5t-32.5 79.5q0 88 90 146.5t233 58.5q125 0 238 -61q63 -33 102 -109t39 -184v-598l135 -17q0 -96 -127 -96t-147 129q-131 -127 -316 -127 q-141 0 -224 73t-83 198zM133 1196q25 94 87.5 144.5t130 46t145 -63.5t131.5 -61q104 -2 133 98l63 -21q-51 -207 -229 -198q-70 4 -153 60t-126 59.5t-74.5 -24.5t-45.5 -67zM252 260q0 -82 51 -130t141 -48q143 0 269 111v192q-94 51 -219 51t-183.5 -47t-58.5 -129z" />
<glyph unicode="&#xe4;" horiz-adv-x="1028" d="M94 240q0 125 92.5 211t305.5 86q125 0 221 -29v162q0 117 -58.5 187.5t-171 70.5t-161 -60.5t-54.5 -140.5q-49 -4 -81.5 20.5t-32.5 79.5q0 88 90 146.5t233 58.5q125 0 238 -61q63 -33 102 -109t39 -184v-598l135 -17q0 -96 -127 -96t-147 129q-131 -127 -316 -127 q-141 0 -224 73t-83 198zM201 1258.5q0 44.5 30.5 76t74.5 31.5t75 -31.5t31 -76t-30 -75t-75 -30.5t-75.5 30.5t-30.5 75zM252 260q0 -82 51 -130t141 -48q143 0 269 111v192q-94 51 -219 51t-183.5 -47t-58.5 -129zM539 1258.5q0 44.5 30.5 76t74.5 31.5t75 -31.5t31 -76 t-31 -75t-75 -30.5t-74.5 30.5t-30.5 75z" />
<glyph unicode="&#xe5;" horiz-adv-x="1028" d="M94 240q0 125 92.5 211t305.5 86q125 0 221 -29v162q0 117 -58.5 187.5t-171 70.5t-161 -60.5t-54.5 -140.5q-49 -4 -81.5 20.5t-32.5 79.5q0 88 90 146.5t233 58.5q125 0 238 -61q63 -33 102 -109t39 -184v-598l135 -17q0 -96 -127 -96t-147 129q-131 -127 -316 -127 q-141 0 -224 73t-83 198zM252 260q0 -82 51 -130t141 -48q143 0 269 111v192q-94 51 -219 51t-183.5 -47t-58.5 -129zM295 1288q0 80 52 130t137 50t134.5 -47t48.5 -128t-53.5 -131t-135.5 -50t-133 48t-50 128zM389 1291q0 -42 25.5 -67.5t67.5 -25.5t67.5 25.5t25.5 67.5 t-25.5 66.5t-67.5 24.5t-67.5 -24.5t-25.5 -66.5z" />
<glyph unicode="&#xe6;" horiz-adv-x="1579" d="M94 240q0 127 92.5 212t307.5 85q115 0 219 -29v162q0 115 -58.5 186.5t-172 71.5t-162 -63.5t-52.5 -137.5q-47 -6 -80.5 18.5t-33.5 79.5q0 88 91 148.5t232 58.5q70 0 148 -24q156 -47 196 -168q63 94 159 143t200 49q174 0 255 -116.5t81 -278.5v-98h-644 q-4 -41 -4 -68q0 -170 75 -277.5t231.5 -107.5t293.5 111q25 -18 25 -52q0 -57 -110.5 -116.5t-249.5 -59.5q-236 0 -342 176q-61 -72 -161 -124t-235 -52t-218 72t-83 199zM252 260q0 -84 52 -131t145 -47q147 0 264 111v190q-92 53 -217 53t-184.5 -46t-59.5 -130z M885 631h479q2 135 -52.5 217t-155.5 82t-173 -81t-98 -218z" />
<glyph unicode="&#xe7;" horiz-adv-x="925" d="M80 459q-4 250 125 411.5t358 161.5q131 0 208 -53t77 -141q0 -113 -115 -109q-2 76 -52 134.5t-151 58.5q-145 0 -222 -121t-77 -305q0 -162 64 -279q74 -129 254 -129q147 0 280 109q27 -18 27 -50q0 -59 -108.5 -115.5t-237.5 -62.5l-12 -55q84 0 125 -40t41 -108.5 t-53.5 -113.5t-143.5 -45t-143 57q-6 43 24 64q47 -37 103 -37q94 0 94 76q0 35 -32 53t-118 18l35 135q-166 20 -256 152.5t-94 333.5z" />
<glyph unicode="&#xe8;" horiz-adv-x="944" d="M80 475q0 256 135 406.5t319.5 150.5t266.5 -116.5t80 -278.5v-98h-643q-2 -20 -2 -64q0 -174 73.5 -281.5t229 -107.5t297.5 111q25 -20 24 -52q0 -57 -111.5 -116.5t-250.5 -59.5q-190 0 -304 125t-114 381zM250 631h481q0 137 -53 218t-154.5 81t-173 -80t-100.5 -219 zM266 1313q18 35 55 65.5t74 34.5l338 -260q-23 -41 -59 -59z" />
<glyph unicode="&#xe9;" horiz-adv-x="944" d="M80 475q0 256 135 406.5t319.5 150.5t266.5 -116.5t80 -278.5v-98h-643q-2 -20 -2 -64q0 -174 73.5 -281.5t229 -107.5t297.5 111q25 -20 24 -52q0 -57 -111.5 -116.5t-250.5 -59.5q-190 0 -304 125t-114 381zM250 631h481q0 137 -53 218t-154.5 81t-173 -80t-100.5 -219 zM371 1153l338 260q37 -4 74 -34.5t55 -65.5l-408 -219q-37 18 -59 59z" />
<glyph unicode="&#xea;" horiz-adv-x="944" d="M80 475q0 256 135 406.5t319.5 150.5t266.5 -116.5t80 -278.5v-98h-643q-2 -20 -2 -64q0 -174 73.5 -281.5t229 -107.5t297.5 111q25 -20 24 -52q0 -57 -111.5 -116.5t-250.5 -59.5q-190 0 -304 125t-114 381zM203 1147l270 248q68 16 127 0l268 -248q-29 -41 -59 -57 l-274 180l-275 -180q-31 16 -57 57zM250 631h481q0 137 -53 218t-154.5 81t-173 -80t-100.5 -219z" />
<glyph unicode="&#xeb;" horiz-adv-x="944" d="M80 475q0 256 135 406.5t319.5 150.5t266.5 -116.5t80 -278.5v-98h-643q-2 -20 -2 -64q0 -174 73.5 -281.5t229 -107.5t297.5 111q25 -20 24 -52q0 -57 -111.5 -116.5t-250.5 -59.5q-190 0 -304 125t-114 381zM250 631h481q0 137 -53 218t-154.5 81t-173 -80t-100.5 -219 zM258 1258.5q0 44.5 30.5 76t75 31.5t75 -31.5t30.5 -76t-29.5 -75t-75 -30.5t-76 30.5t-30.5 75zM596 1258.5q0 44.5 30.5 76t74.5 31.5t75 -31.5t31 -76t-31 -75t-75 -30.5t-74.5 30.5t-30.5 75z" />
<glyph unicode="&#xec;" horiz-adv-x="595" d="M23 1313q18 35 55 65.5t74 34.5l337 -260q-23 -41 -59 -59zM92 999l297 33v-936l156 -12q8 -84 -58 -84h-389v16q0 49 29 62q14 8 35 10l86 4v811l-107 8q-49 6 -49 88z" />
<glyph unicode="&#xed;" horiz-adv-x="595" d="M92 999l297 33v-936l156 -12q8 -84 -58 -84h-389v16q0 49 29 62q14 8 35 10l86 4v811l-107 8q-49 6 -49 88zM129 1153l338 260q37 -4 74 -34.5t55 -65.5l-408 -219q-37 18 -59 59z" />
<glyph unicode="&#xee;" horiz-adv-x="595" d="M-41 1147l270 248q70 16 127 0l269 -248q-23 -39 -58 -57l-274 180l-277 -180q-31 16 -57 57zM92 999l297 33v-936l156 -12q8 -84 -58 -84h-389v16q0 49 29 62q14 8 35 10l86 4v811l-107 8q-49 6 -49 88z" />
<glyph unicode="&#xef;" horiz-adv-x="595" d="M16 1258.5q0 44.5 31 76t75 31.5t74.5 -31.5t30.5 -76t-29.5 -75t-74.5 -30.5t-76 30.5t-31 75zM92 999l297 33v-936l156 -12q8 -84 -58 -84h-389v16q0 49 29 62q14 8 35 10l86 4v811l-107 8q-49 6 -49 88zM354 1258.5q0 44.5 31 76t75 31.5t74.5 -31.5t30.5 -76 t-30.5 -75t-74.5 -30.5t-75 30.5t-31 75z" />
<glyph unicode="&#xf0;" horiz-adv-x="1052" d="M80 424q-6 252 124 405.5t357 153.5q106 0 184 -41q-68 141 -188 238l-188 -121l-54 88l152 96q-127 74 -236 88l56 96q154 -29 293 -110l172 108l55 -86l-135 -86q301 -241 301 -665q0 -283 -132 -451t-358 -168q-193 0 -296 123t-107 332zM231 460q0 -175 67 -272.5 t209 -97.5t228 132t86 356q0 100 -20 202q-96 92 -258 92t-237 -118.5t-75 -293.5z" />
<glyph unicode="&#xf1;" horiz-adv-x="1255" d="M92 995l264 35l27 -156h6q166 158 342 158q137 0 234.5 -96t97.5 -297v-543l143 -12q9 -84 -57 -84h-381v16q0 49 29 62q14 8 34 10l91 4v531q0 287 -228 286q-84 0 -151.5 -32.5t-153.5 -104.5v-676l146 -12q8 -84 -56 -84h-385v16q0 66 66 72l88 4v807l-107 12 q-49 4 -49 84zM307 1196q25 94 86.5 144.5t129 46t145 -63.5t131.5 -61q104 -2 133 98l63 -21q-51 -207 -229 -198q-70 4 -153 60t-125 59.5t-74.5 -24.5t-44.5 -67z" />
<glyph unicode="&#xf2;" horiz-adv-x="1040" d="M81 479q-3 248 121 400.5t333 152.5q156 0 280 -98q66 -53 106 -155.5t40 -246.5q4 -254 -119 -408.5t-332 -154.5t-317.5 131t-111.5 379zM231 496.5q0 -187.5 74 -305t213 -116.5t215 117.5t76 302t-72.5 309.5t-213 123t-216.5 -122t-76 -308.5zM256 1313 q18 35 55 65.5t74 34.5l338 -260q-22 -41 -59 -59z" />
<glyph unicode="&#xf3;" horiz-adv-x="1040" d="M81 479q-3 248 121 400.5t333 152.5q156 0 280 -98q66 -53 106 -155.5t40 -246.5q4 -254 -119 -408.5t-332 -154.5t-317.5 131t-111.5 379zM231 496.5q0 -187.5 74 -305t213 -116.5t215 117.5t76 302t-72.5 309.5t-213 123t-216.5 -122t-76 -308.5zM362 1153l338 260 q37 -4 74 -34.5t55 -65.5l-407 -219q-37 18 -60 59z" />
<glyph unicode="&#xf4;" horiz-adv-x="1040" d="M81 479q-3 248 121 400.5t333 152.5q156 0 280 -98q66 -53 106 -155.5t40 -246.5q4 -253 -119 -408t-332 -155t-317.5 131t-111.5 379zM193 1147l270 248q70 16 127 0l268 -248q-23 -39 -57 -57l-275 180l-276 -180q-31 16 -57 57zM231 496.5q0 -187.5 74 -305 t213 -116.5t215 117.5t76 302t-72.5 309.5t-213 123t-216.5 -122t-76 -308.5z" />
<glyph unicode="&#xf5;" horiz-adv-x="1040" d="M81 479q-3 248 121 400.5t333 152.5q156 0 280 -98q66 -53 106 -155.5t40 -246.5q4 -254 -119 -408.5t-332 -154.5t-317.5 131t-111.5 379zM182 1196q25 94 86.5 144.5t129 46t146.5 -63.5t132 -61q104 -2 133 98l63 -21q-51 -207 -229 -198q-70 4 -152.5 60t-125.5 59.5 t-75 -24.5t-46 -67zM231 496.5q0 -187.5 74 -305t213 -116.5t215 117.5t76 302t-72.5 309.5t-213 123t-216.5 -122t-76 -308.5z" />
<glyph unicode="&#xf6;" horiz-adv-x="1040" d="M81 479q-3 248 121 400.5t333 152.5q156 0 280 -98q66 -53 106 -155.5t40 -246.5q4 -254 -119 -408.5t-332 -154.5t-317.5 131t-111.5 379zM231 496.5q0 -187.5 74 -305t213 -116.5t215 117.5t76 302t-72.5 309.5t-213 123t-216.5 -122t-76 -308.5zM250 1258.5 q0 44.5 30.5 76t74.5 31.5t75 -31.5t31 -76t-30 -75t-75 -30.5t-75.5 30.5t-30.5 75zM588 1258.5q0 44.5 30.5 76t74.5 31.5t75 -31.5t31 -76t-31 -75t-75 -30.5t-74.5 30.5t-30.5 75z" />
<glyph unicode="&#xf7;" horiz-adv-x="978" d="M102 528v115h775v-115h-775zM375 280.5q0 47.5 30.5 79t77.5 31.5t78 -31.5t31 -79t-31 -79t-78 -31.5t-77.5 31.5t-30.5 79zM375 891q0 47 30.5 78.5t77.5 31.5t78 -31.5t31 -78.5t-31 -78t-77 -31t-77.5 31t-31.5 78z" />
<glyph unicode="&#xf8;" horiz-adv-x="1054" d="M80 468q-2 259 122 411.5t333 152.5q119 0 208 -49l31 55l105 -53l-43 -72q125 -131 127 -382.5t-121 -406.5t-340 -155q-104 0 -193 39l-24 -43l-103 58l31 53q-131 133 -133 392zM231 504q0 -180 62 -291l385 659q-64 54 -158 54q-137 0 -213 -121t-76 -301zM375 119 q59 -43 145 -43q137 0 213 116.5t76 293t-55 286.5z" />
<glyph unicode="&#xf9;" horiz-adv-x="1171" d="M33 915v27q0 59 57 59h240v-604q0 -152 63.5 -228.5t189.5 -76.5t255 113v700l-158 10q-8 86 55 86h244v-884l100 -11q47 -4 47 -88l-247 -20l-27 108q-137 -137 -313 -137q-141 0 -246 100.5t-105 315.5v520zM313 1313q18 35 55.5 65.5t73.5 34.5l338 -260 q-22 -41 -59 -59z" />
<glyph unicode="&#xfa;" horiz-adv-x="1171" d="M33 915v27q0 59 57 59h240v-604q0 -152 63.5 -228.5t189.5 -76.5t255 113v700l-158 10q-8 86 55 86h244v-884l100 -11q47 -4 47 -88l-247 -20l-27 108q-137 -137 -313 -137q-141 0 -246 100.5t-105 315.5v520zM420 1153l338 260q37 -4 74 -34.5t55 -65.5l-408 -219 q-37 18 -59 59z" />
<glyph unicode="&#xfb;" horiz-adv-x="1171" d="M33 915v27q0 59 57 59h240v-604q0 -152 63.5 -228.5t189.5 -76.5t255 113v700l-158 10q-8 86 55 86h244v-884l100 -11q47 -4 47 -88l-247 -20l-27 108q-137 -137 -313 -137q-141 0 -246 100.5t-105 315.5v520zM250 1147l270 248q68 16 127 0l268 -248q-31 -43 -57 -57 l-274 178l-277 -178q-31 16 -57 57z" />
<glyph unicode="&#xfc;" horiz-adv-x="1171" d="M33 915v27q0 59 57 59h240v-604q0 -152 63.5 -228.5t189.5 -76.5t255 113v700l-158 10q-8 86 55 86h244v-884l100 -11q47 -4 47 -88l-247 -20l-27 108q-137 -137 -313 -137q-141 0 -246 100.5t-105 315.5v520zM307 1258.5q0 44.5 31 76t75 31.5t74.5 -31.5t30.5 -76 t-29.5 -75t-74.5 -30.5t-76 30.5t-31 75zM645 1258.5q0 44.5 31 76t75 31.5t74.5 -31.5t30.5 -76t-30.5 -75t-74.5 -30.5t-75 30.5t-31 75z" />
<glyph unicode="&#xfd;" horiz-adv-x="1013" d="M10 918q-8 84 58 83h344v-14q0 -49 -29 -61q-16 -8 -113 -17l267 -686l262 682l-119 13q-9 83 57 83h271q-2 -6 0 -15t-1 -20.5t-8 -21.5q-12 -25 -77 -31l-351 -862h2q-55 -147 -111 -253.5t-89 -145.5q-80 -100 -158 -100.5t-115 31.5t-37 76t24 71.5t53.5 27.5 t39.5 -4q-18 -82 47 -82q53 0 121 121t121 256l-356 856h-2zM358 1153l338 260q37 -4 74 -34.5t55 -65.5l-407 -219q-37 18 -60 59z" />
<glyph unicode="&#xfe;" horiz-adv-x="1122" d="M23 1395l296 35v-545q160 147 326 147t279.5 -126t119 -376.5t-123.5 -405.5t-363 -155q-117 0 -238 54v-365l156 -12q8 -84 -57 -84h-389v16q0 49 28 62q16 6 121 14v1649l-108 12q-47 4 -47 80zM319 180q106 -100 266 -100t233 121t73 301t-73 294.5t-224 114.5 q-76 0 -135.5 -30.5t-139.5 -96.5v-604z" />
<glyph unicode="&#xff;" horiz-adv-x="1013" d="M10 918q-8 84 58 83h344v-14q0 -49 -29 -61q-16 -8 -113 -17l267 -686l262 682l-119 13q-9 83 57 83h271q-2 -6 0 -15t-1 -20.5t-8 -21.5q-12 -25 -77 -31l-351 -862h2q-55 -147 -111 -253.5t-89 -145.5q-80 -100 -158 -100.5t-115 31.5t-37 76t24 71.5t53.5 27.5 t39.5 -4q-18 -82 47 -82q53 0 121 121t121 256l-356 856h-2zM244 1258.5q0 44.5 30.5 76t74.5 31.5t75 -31.5t31 -76t-30 -75t-75 -30.5t-75.5 30.5t-30.5 75zM582 1258.5q0 44.5 30.5 76t74.5 31.5t75 -31.5t31 -76t-31 -75t-75 -30.5t-74.5 30.5t-30.5 75z" />
<glyph unicode="&#x152;" horiz-adv-x="1812" d="M79 662.5q-7 328.5 160 543.5t472 215q98 0 202 -30h770v-291q0 -61 -90 -53l-20 231l-516 10v-547l395 27q12 -70 0 -147l-395 20v-539l557 15l20 217q90 8 90 -55v-279h-864q-96 -31 -213 -31q-260 0 -410.5 182.5t-157.5 511zM236 691.5q0 -283.5 105 -448.5t339 -165 q135 0 229 63v1114q-92 57 -225 58q-227 -2 -337.5 -170t-110.5 -451.5z" />
<glyph unicode="&#x153;" horiz-adv-x="1669" d="M79 476q-3 249 118.5 402.5t337.5 153.5q104 0 203.5 -52t154.5 -169q63 106 162.5 163.5t216.5 57.5t194 -61q139 -109 140 -334v-98h-645l-3 -64q0 -174 74 -281.5t229.5 -107.5t297.5 111q25 -18 24 -52q0 -57 -111.5 -116.5t-250.5 -59.5q-244 0 -353 209 q-127 -209 -370 -209q-197 0 -306.5 129t-112.5 378zM231 499.5q0 -188.5 73 -310t210 -120.5t213 120.5t76 308t-73 312.5t-210 122t-213 -123t-76 -309.5zM973 631h481q2 135 -52 217t-155.5 82t-173.5 -80t-100 -219z" />
<glyph unicode="&#x178;" horiz-adv-x="1212" d="M10 1298q-10 92 58 93h383v-17q0 -55 -29 -67q-14 -8 -35 -11l-92 -6l344 -616l332 612l-146 12q-10 93 58 93h319v-17q0 -72 -63 -78l-43 -6l-408 -725v-463l150 -12q8 -90 -56 -90h-403v16q0 53 31 70q14 6 34 8l93 4v463l-410 725h-2zM350 1643.5q0 44.5 32 76 t76 31.5t74.5 -31.5t30.5 -76t-30.5 -75t-74.5 -30.5t-76 30.5t-32 75zM688 1643.5q0 44.5 31 76t75 31.5t75.5 -31.5t31.5 -76t-31.5 -75t-75.5 -30.5t-75 30.5t-31 75z" />
<glyph unicode="&#x2c6;" horiz-adv-x="1228" d="M219 1147l270 248q68 16 125 0l269 -248q-23 -39 -58 -57l-274 180l-275 -180q-35 18 -57 57z" />
<glyph unicode="&#x2dc;" horiz-adv-x="1185" d="M174 1196q25 94 86.5 144.5t129 46t146 -63.5t132.5 -61q100 -2 133 98l61 -21q-20 -94 -78.5 -148t-139.5 -50t-163 60t-125 59.5t-74.5 -24.5t-45.5 -67z" />
<glyph unicode="&#x2000;" horiz-adv-x="926" />
<glyph unicode="&#x2001;" horiz-adv-x="1853" />
<glyph unicode="&#x2002;" horiz-adv-x="926" />
<glyph unicode="&#x2003;" horiz-adv-x="1853" />
<glyph unicode="&#x2004;" horiz-adv-x="617" />
<glyph unicode="&#x2005;" horiz-adv-x="463" />
<glyph unicode="&#x2006;" horiz-adv-x="308" />
<glyph unicode="&#x2007;" horiz-adv-x="308" />
<glyph unicode="&#x2008;" horiz-adv-x="231" />
<glyph unicode="&#x2009;" horiz-adv-x="370" />
<glyph unicode="&#x200a;" horiz-adv-x="102" />
<glyph unicode="&#x2010;" horiz-adv-x="794" d="M98 451v120h598v-120h-598z" />
<glyph unicode="&#x2011;" horiz-adv-x="794" d="M98 451v120h598v-120h-598z" />
<glyph unicode="&#x2012;" horiz-adv-x="794" d="M98 451v120h598v-120h-598z" />
<glyph unicode="&#x2013;" horiz-adv-x="1009" d="M98 457v114h813v-114h-813z" />
<glyph unicode="&#x2014;" horiz-adv-x="1650" d="M98 457v114h1454v-114h-1454z" />
<glyph unicode="&#x2018;" horiz-adv-x="380" d="M86 1149.5q0 62.5 52 141.5t112 106q8 4 24.5 -10.5t16.5 -24.5q-59 -41 -84 -123q39 -4 63.5 -34.5t24.5 -75t-27.5 -73t-76 -28.5t-77 29.5t-28.5 92z" />
<glyph unicode="&#x2019;" horiz-adv-x="380" d="M86 1294q0 45 28.5 74t76 29t76 -30t28.5 -92.5t-52.5 -142t-111.5 -104.5q-8 -4 -23.5 9.5t-15.5 23.5q59 39 84 125q-41 4 -65.5 33.5t-24.5 74.5z" />
<glyph unicode="&#x201a;" horiz-adv-x="389" d="M86 80q0 45 29.5 74.5t78 29.5t79 -30.5t30.5 -100t-54 -154.5t-116 -112q-10 -4 -25.5 11.5t-15.5 23.5q63 45 86 145q-41 4 -66.5 36t-25.5 77z" />
<glyph unicode="&#x201c;" horiz-adv-x="620" d="M86 1149.5q0 62.5 52 141.5t112 106q8 4 24.5 -10.5t16.5 -24.5q-59 -41 -84 -123q39 -4 63.5 -34.5t24.5 -75t-27.5 -73t-76 -28.5t-77 29.5t-28.5 92zM324 1149.5q0 62.5 53 141.5t110 106q8 4 24.5 -10.5t16.5 -24.5q-59 -41 -84 -123q41 -4 66 -34.5t25 -75t-29 -73 t-77 -28.5t-76.5 29.5t-28.5 92z" />
<glyph unicode="&#x201d;" horiz-adv-x="620" d="M86 1294q0 45 28.5 74t76 29t76 -30t28.5 -92.5t-52.5 -142t-111.5 -104.5q-8 -4 -23.5 9.5t-15.5 23.5q59 39 84 125q-41 4 -65.5 33.5t-24.5 74.5zM324 1294q0 45 28.5 74t75.5 29t77 -30t30 -92.5t-53.5 -142t-112.5 -104.5q-8 -4 -23.5 9.5t-15.5 23.5q59 39 84 125 q-41 4 -65.5 33.5t-24.5 74.5z" />
<glyph unicode="&#x201e;" horiz-adv-x="620" d="M86 76q0 45 28.5 73.5t76 28.5t76 -29.5t28.5 -92t-52.5 -142.5t-111.5 -104q-8 -6 -23.5 8t-15.5 24q59 39 84 125q-41 4 -65.5 34t-24.5 75zM324 76q0 45 28.5 73.5t75.5 28.5t77 -29.5t30 -92t-53.5 -142.5t-112.5 -104q-8 -6 -23.5 8t-15.5 24q59 39 84 125 q-41 4 -65.5 34t-24.5 75z" />
<glyph unicode="&#x2022;" horiz-adv-x="911" d="M279 655.5q0 73.5 51 126t124.5 52.5t126 -52.5t52.5 -126t-52.5 -125t-126 -51.5t-124.5 51.5t-51 125z" />
<glyph unicode="&#x2026;" horiz-adv-x="1316" d="M100 80q0 47 32 77.5t78 30.5t76.5 -30.5t30.5 -77.5t-30.5 -79t-77.5 -32t-78 32t-31 79zM545 80q0 47 30.5 77.5t77.5 30.5t78 -30.5t31 -77.5t-31 -79t-78 -32t-77.5 32t-30.5 79zM989 80q0 47 31 77.5t77 30.5t77.5 -30.5t31.5 -77.5t-30.5 -79t-77.5 -32t-78 32 t-31 79z" />
<glyph unicode="&#x202f;" horiz-adv-x="370" />
<glyph unicode="&#x2039;" horiz-adv-x="747" d="M121 453q-10 43 0 90l500 413l61 -61l-393 -391v-12l397 -392l-65 -61z" />
<glyph unicode="&#x203a;" horiz-adv-x="747" d="M61 100l398 392v12l-393 391l61 61l500 -413q10 -47 0 -90l-500 -414z" />
<glyph unicode="&#x205f;" horiz-adv-x="463" />
<glyph unicode="&#x20ac;" horiz-adv-x="1091" d="M78 455v100h119v45q0 39 2 59h-121v103h129q33 236 157.5 374t333.5 138q139 0 224.5 -64.5t85.5 -162.5q0 -106 -119 -115q0 109 -59.5 175.5t-171 66.5t-196.5 -111t-110 -301h396v-103h-404v-43q0 -41 2 -61h402v-100h-394q27 -182 115 -283.5t237.5 -101.5t284.5 123 q23 -14 23 -43q0 -63 -105.5 -123t-242.5 -60q-190 0 -311.5 129t-149.5 359h-127z" />
<glyph unicode="&#x2122;" horiz-adv-x="1601" d="M94 1257v129h563v-129q0 -35 -61 -34l-8 96h-154v-498l80 -4q0 -6 1 -18.5t-9 -25.5t-29 -13h-241q4 59 38 59l43 2v498h-153l-10 -96q-60 -1 -60 34zM680 760q4 59 39 59l45 2l39 502l-74 4q0 59 37 59h149l187 -380l164 380h164q39 0 38 -59l-75 -4l41 -500l73 -6 q0 -57 -39 -57h-215q0 57 37 59l37 2l-35 436l-176 -395q-31 -8 -59 -4l-183 381l-32 -416l78 -6q0 -57 -37 -57h-203z" />
<glyph unicode="&#x25fc;" horiz-adv-x="1003" d="M0 0v1004h1004v-1004h-1004z" />
<glyph unicode="&#xfb01;" horiz-adv-x="1171" d="M92 0v16q0 49 29 62q14 8 35 10l86 4v815h-146v35q0 43 29 53q18 6 31 6h86v72q0 186 79.5 286.5t221.5 100.5q68 2 116 -26.5t48 -77.5t-28 -74t-71 -25q-2 51 -28.5 80t-67.5 29q-66 0 -97.5 -60.5t-31.5 -201.5v-103h240q8 -94 -60 -94h-180v-811l201 -12v-35 q0 -25 -11 -31q-20 -18 -45 -18h-436zM670 999l297 33v-936l155 -12q9 -84 -57 -84h-389v16q0 49 29 62q14 8 34 10l86 4v811l-106 8q-49 6 -49 88zM778 1292q0 45 28 74t73 29t73.5 -29t28.5 -74t-28.5 -72.5t-73.5 -27.5t-73 27.5t-28 72.5z" />
<glyph unicode="&#xfb02;" horiz-adv-x="1163" d="M92 0v16q0 49 29 62q14 8 35 10l86 4v815h-146v37q0 23 10.5 36t16.5 15q18 6 31 6h88v76q0 182 78.5 282.5t222.5 100.5q123 4 159 -65l265 35v-1334l145 -12q8 -84 -57 -84h-383v16q0 49 28 62q14 8 35 10l90 4v1202l-106 11q-6 0 -14 4q-23 -51 -89 -52 q-2 51 -31.5 80t-84.5 29q-117 0 -117 -242v-123h252q8 -94 -60 -94h-192v-811l201 -12v-35q0 -25 -11 -31q-20 -18 -45 -18h-436z" />
<glyph unicode="&#xfb03;" horiz-adv-x="1755" d="M94 0v16q0 49 29 62q14 8 35 10l86 4v815h-146v37q0 23 10.5 36t16.5 15q18 6 31 6h88v76q0 182 78.5 282.5t222.5 100.5q72 2 121 -25.5t49 -77.5t-26.5 -75t-70.5 -25q-2 51 -31.5 80t-82.5 29q-119 0 -119 -242v-123h438v72q0 186 80 286.5t221 100.5q68 2 116 -26.5 t48 -77.5t-27.5 -74t-70.5 -25q-2 51 -28.5 80t-67.5 29q-66 0 -97.5 -60.5t-31.5 -201.5v-103h241q4 -43 -15.5 -68.5t-45.5 -25.5h-180v-811l200 -12q0 -16 1 -34.5t-12 -34t-44 -15.5h-436v16q0 66 65 72l84 4v815h-438v-811l201 -12v-35q0 -25 -8 -31q-23 -18 -48 -18 h-436zM1251 999l297 33v-936l156 -12q9 -84 -57 -84h-390v16q0 49 29 62q14 8 35 10l86 4v811l-107 8q-49 6 -49 88zM1360 1292q0 45 27.5 74t72.5 29t74 -29t29 -74t-29 -72.5t-74 -27.5t-72.5 27.5t-27.5 72.5z" />
<glyph unicode="&#xfb04;" horiz-adv-x="1744" d="M92 0v16q0 49 29 62q14 8 35 10l86 4v815h-146v37q0 23 10.5 36t16.5 15q18 6 31 6h88v76q0 182 78.5 282.5t222.5 100.5q72 2 121 -25.5t49 -77.5t-27 -75t-70 -25q-2 51 -31.5 80t-84.5 29q-117 0 -117 -242v-123h440v76q0 182 79 282.5t224 100.5q121 4 158 -65 l266 35v-1334l146 -12q8 -84 -58 -84h-385v16q0 66 66 72l88 4v1202l-107 11q-6 0 -14 4q-23 -51 -88 -52q-2 51 -31.5 80t-72.5 29q-127 0 -127 -242v-123h270q8 -94 -59 -94h-211v-811l200 -12v-31q0 -23 -5 -29t-11 -12q-12 -12 -41 -12h-436v16q0 66 65 72l84 4v815 h-440v-811l201 -12v-35q0 -25 -11 -31q-20 -18 -45 -18h-436z" />
</font>
</defs>
</svg>
