<?xml version="1.0" standalone="no"?>
<!DOCTYPE svg PUBLIC "-//W3C//DTD SVG 1.1//EN" "http://www.w3.org/Graphics/SVG/1.1/DTD/svg11.dtd" >
<svg xmlns="http://www.w3.org/2000/svg" xmlns:xlink="http://www.w3.org/1999/xlink" version="1.1">
<metadata></metadata>
<defs>
<font id="karmasemibold" horiz-adv-x="1312" >
<font-face units-per-em="2048" ascent="1638" descent="-410" />
<missing-glyph horiz-adv-x="548" />
<glyph horiz-adv-x="0" />
<glyph horiz-adv-x="682" />
<glyph horiz-adv-x="0" />
<glyph horiz-adv-x="0" />
<glyph unicode="&#xd;" horiz-adv-x="681" />
<glyph unicode=" "  horiz-adv-x="548" />
<glyph unicode="&#x09;" horiz-adv-x="548" />
<glyph unicode="&#xa0;" horiz-adv-x="548" />
<glyph unicode="!" horiz-adv-x="495" d="M106 110.5q0 59.5 41 101.5t100.5 42t100.5 -42t41 -101.5t-41 -100.5t-100.5 -41t-100.5 41t-41 100.5zM143 1425q100 39 230 13l-56 -1010q-65 -20 -141 0z" />
<glyph unicode="&#x22;" horiz-adv-x="692" d="M109 1405q100 33 215 12l-54 -426q-57 -16 -120 0zM379 1405q100 33 215 12l-53 -426q-58 -16 -121 0z" />
<glyph unicode="#" horiz-adv-x="1435" d="M94 532h250l84 351h-201q-49 53 -55 141h287l80 338h161l-79 -338h301l79 338h160l-80 -338h205q49 -49 55 -141h-290l-84 -351h241q49 -53 56 -141h-328l-84 -356h-160l84 356h-301l-84 -356h-162l84 356h-163q-49 53 -56 141zM506 532h301l84 351h-301z" />
<glyph unicode="$" horiz-adv-x="1001" d="M90 195q0 61 39 100t119 39q8 -123 69.5 -178.5t175 -55.5t179 48.5t65.5 142.5q0 113 -82 172q-68 53 -155.5 89t-128.5 55.5t-93.5 52t-80.5 65.5q-72 74 -72 198t82 213t211 117l-19 207q27 14 82.5 14.5t83.5 -14.5l-16 -192q121 -2 216 -53t95 -164q0 -66 -42 -103 t-105 -26q0 217 -213 217q-90 0 -145.5 -45t-55.5 -104.5t18.5 -95.5t63.5 -67q66 -41 203 -98q178 -80 252.5 -150.5t74.5 -215t-98 -256t-264 -134.5l16 -198q-29 -14 -84 -14.5t-82 14.5l17 194q-133 10 -229.5 68.5t-96.5 157.5z" />
<glyph unicode="%" horiz-adv-x="1611" d="M92 922.5q0 179.5 74 271.5t215 92q279 0 278 -356q0 -182 -73.5 -273.5t-209.5 -91.5t-210 89t-74 268.5zM240 926q0 -254 134 -254t134 254t-131 254q-137 0 -137 -254zM354 0l729 1284h183l-727 -1284h-185zM952 327.5q0 180.5 75 271.5t214 91q279 0 279 -354 q0 -182 -74 -274.5t-210 -92.5t-210 89t-74 269.5zM1100 330q0 -254 134 -254t134 254t-131 254q-137 0 -137 -254z" />
<glyph unicode="&#x26;" horiz-adv-x="1509" d="M76 319q0 246 260 390q-150 201 -150 344t98.5 236t253 93t247 -77.5t92.5 -213t-86 -236.5t-209 -146q172 -209 376 -381q68 98 103 231l-129 12q-10 113 74 113h333v-18q0 -90 -71 -97l-66 -4q-47 -182 -137 -317q158 -109 252 -109q37 0 78 16.5t59 41.5 q29 -25 29 -80.5t-47 -103.5t-138 -48q-147 0 -356 146q-178 -147 -409.5 -147.5t-344 99t-112.5 256.5zM276 356q0 -108 75 -176.5t217.5 -68.5t262.5 86q-164 131 -352 342q-12 14 -35.5 39.5t-33.5 37.5q-133 -104 -134 -260zM377 1090q0 -115 139 -299q88 45 132 127.5 t44 174t-45 134.5t-110.5 43t-112.5 -51.5t-47 -128.5z" />
<glyph unicode="'" horiz-adv-x="419" d="M102 1405q100 33 215 12l-53 -426q-58 -16 -121 0z" />
<glyph unicode="(" horiz-adv-x="608" d="M109 550q0 284 106.5 540t263.5 403l78 -74q-104 -162 -176 -392t-72 -479t72 -475.5t174 -369.5l-82 -80q-160 152 -262 397.5t-102 529.5z" />
<glyph unicode=")" horiz-adv-x="608" d="M51 1419l78 74q158 -147 264.5 -403t106.5 -540t-102.5 -529.5t-262.5 -397.5l-82 80q102 143 174 369.5t72 475.5t-71.5 479t-176.5 392z" />
<glyph unicode="*" horiz-adv-x="1044" d="M104 1098q0 49 17.5 114.5t44.5 96.5l283 -154l-66 318q43 16 108.5 14t108.5 -17l-59 -313l282 150q25 -33 43.5 -98.5t18.5 -110.5l-324 -29l238 -217q-23 -37 -78 -77t-100 -50l-127 287l-123 -285q-43 10 -100.5 50t-77.5 77l233 215z" />
<glyph unicode="+" horiz-adv-x="1017" d="M102 489v146h334v334h150v-334h329v-146h-329v-333h-150v333h-334z" />
<glyph unicode="," horiz-adv-x="473" d="M96 113.5q0 58.5 38 97.5t101.5 39t102.5 -40t39 -125t-70.5 -192.5t-148.5 -140.5q-12 -6 -34 12.5t-22 30.5q82 57 113 174q-53 6 -86 46t-33 98.5z" />
<glyph unicode="-" horiz-adv-x="815" d="M88 453v159h639v-159h-639z" />
<glyph unicode="." horiz-adv-x="475" d="M96 110.5q0 59.5 41 101.5t100.5 42t100.5 -42t41 -101.5t-41 -100.5t-100.5 -41t-100.5 41t-41 100.5z" />
<glyph unicode="/" horiz-adv-x="788" d="M41 -217l528 1644h179l-529 -1644h-178z" />
<glyph unicode="0" horiz-adv-x="1077" d="M72 619.5q0 318.5 119.5 488.5t355.5 176q459 12 459 -651.5t-463 -663.5q-231 0 -351 166t-120 484.5zM274 606q0 -264 68 -379.5t205 -115.5t196.5 120.5t59.5 387t-61.5 395.5t-194.5 129q-272 0 -273 -537z" />
<glyph unicode="1" horiz-adv-x="794" d="M72 1100l286 162q41 23 93 22q74 0 73 -92v-1063l199 -12q12 -117 -80 -117h-534v16q0 72 43 95q16 10 36 10l129 4v924l-133 -43q-47 -14 -80.5 25.5t-31.5 68.5z" />
<glyph unicode="2" horiz-adv-x="1015" d="M76 111q250 225 338 321q262 287 262 502q0 96 -49 153.5t-146 57.5q-207 0 -207 -291q-68 -4 -119 28.5t-51 114.5q0 121 115 204t291 83t280.5 -96t104.5 -252q0 -201 -172 -412q-59 -72 -97 -114.5t-110 -106.5q-94 -86 -176 -153h471l14 120q6 49 45 66.5t76 5.5 v-340h-848q-27 80 -22 109z" />
<glyph unicode="3" horiz-adv-x="937" d="M72 178q0 49 32.5 87t96.5 40q6 -88 63.5 -142t162.5 -54t175 63.5t68 171.5q-2 72 -37 122t-94 73q-109 41 -263 32l-2 152q167 0 273 106q66 66 65 154q0 170 -157 170q-90 0 -134.5 -57.5t-48.5 -141.5q-76 2 -112.5 35t-34.5 88q4 88 96 147.5t248 59.5t256 -78 t100 -209q0 -96 -61.5 -181t-200.5 -132q150 -18 239 -105t89 -221q0 -164 -134 -276.5t-351 -112.5q-154 0 -244 58.5t-90 150.5z" />
<glyph unicode="4" horiz-adv-x="993" d="M35 385l581 881q90 23 164 10v-873h183v-141h-183v-262l-205 -20v282h-487q-45 63 -53 123zM201 403h374v572z" />
<glyph unicode="5" horiz-adv-x="929" d="M78 170q0 55 33.5 85t83.5 30q27 -182 215 -183q117 0 188.5 77t71.5 201t-73 179t-171 55t-219 -43l-27 15l29 678h588l-17 -166h-446l-12 -332q71 18 155 18q174 0 289 -91t115 -284.5t-134.5 -316.5t-340.5 -123q-147 0 -237.5 55.5t-90.5 145.5z" />
<glyph unicode="6" horiz-adv-x="989" d="M84 537q0 360 142.5 553.5t391.5 193.5q123 0 189.5 -43t66.5 -99.5t-30.5 -92t-100.5 -33.5q0 63 -36.5 101t-108.5 38q-125 0 -202 -120.5t-91 -366.5q135 80 284.5 80t247 -93.5t97.5 -270.5t-114.5 -296t-311.5 -119q-424 0 -424 568zM301 543q0 -238 56.5 -339.5 t158.5 -101.5q207 0 207 251t-217 251q-115 0 -205 -61z" />
<glyph unicode="7" horiz-adv-x="835" d="M53 934v330h742q23 -41 22 -103l-506 -1188l-205 70l523 1049l-445 -2l-12 -103q-6 -37 -55 -52t-64 -1z" />
<glyph unicode="8" horiz-adv-x="960" d="M72 289q-2 213 239 358q-170 125 -170 295q0 141 99.5 241.5t262.5 100.5t255 -75.5t92 -204.5q0 -184 -193 -314q113 -66 177.5 -141.5t64.5 -186.5q0 -152 -117.5 -272.5t-304 -120.5t-295 90.5t-110.5 229.5zM274 307q0 -94 54.5 -152.5t160 -58.5t164 54.5 t58.5 136.5q0 147 -252 272q-29 14 -43 23q-141 -113 -142 -275zM332 998.5q0 -74.5 51 -128t174 -122.5q106 98 107 233q0 88 -46.5 133t-116 45t-119.5 -43t-50 -117.5z" />
<glyph unicode="9" horiz-adv-x="948" d="M29 869q0 175 114.5 295t309.5 120q426 0 426 -575q0 -354 -143.5 -547t-397.5 -193q-117 0 -183.5 43t-66.5 113q0 43 31 79t100 34q0 -63 37 -101.5t109 -38.5q125 0 201.5 121t90.5 369q-129 -80 -281.5 -80t-249.5 93t-97 268zM239.5 900q0.5 -251 213.5 -251 q119 0 209 62q0 239 -55.5 339.5t-160.5 100.5q-207 0 -206.5 -251z" />
<glyph unicode=":" horiz-adv-x="487" d="M96 115.5q0 62.5 43 105.5t105.5 43t104.5 -43t42 -105.5t-42 -105.5t-104.5 -43t-105.5 43t-43 105.5zM96 780.5q0 63.5 43 106.5t105.5 43t104.5 -43t42 -106.5t-42 -105.5t-104.5 -42t-105.5 42t-43 105.5z" />
<glyph unicode=";" horiz-adv-x="487" d="M96 819.5q0 59.5 41 100.5t100.5 41t100.5 -41t41 -100.5t-41 -101.5t-100.5 -42t-100.5 42t-41 101.5zM111 87q0 58 37.5 97t101 39t102.5 -40t39 -125t-70.5 -192.5t-148.5 -139.5q-12 -6 -33.5 12t-21.5 31q82 57 112 174q-53 6 -85.5 46t-32.5 98z" />
<glyph unicode="&#x3c;" horiz-adv-x="997" d="M68 524v101l745 387l76 -140l-580 -299l572 -290l-74 -142z" />
<glyph unicode="=" horiz-adv-x="1017" d="M102 340v145h813v-145h-813zM102 645v146h813v-146h-813z" />
<glyph unicode="&#x3e;" horiz-adv-x="985" d="M96 707l76 57l746 -156v-41l-740 -151l-74 55l568 117z" />
<glyph unicode="?" horiz-adv-x="1017" d="M88 1176q0 106 110.5 195t306 89t310.5 -96t115 -261t-124 -287t-302 -157l-12 -237q-51 -12 -140 0l-12 338q371 96 371 340q0 94 -57.5 160.5t-170 66.5t-176 -91t-63.5 -181q-68 0 -112 29.5t-44 91.5zM281 110.5q0 59.5 40.5 101.5t100 42t100.5 -42t41 -101.5 t-41 -100.5t-100.5 -41t-100 41t-40.5 100.5z" />
<glyph unicode="@" horiz-adv-x="2074" d="M154 519q0 392 258 637t682 245q373 0 601 -181.5t228 -472t-169 -464.5t-445 -174q-78 0 -116 20.5t-40 73.5q-131 -102 -276.5 -102.5t-233.5 100t-62.5 317.5t147.5 350t329 133q106 0 196 -45l2 13l205 14l-104 -747q195 -4 312.5 129t117.5 352q0 252 -190.5 405.5 t-501.5 153.5q-360 0 -579.5 -210t-219.5 -545t222 -534.5t587 -199.5q285 0 457 113l24 -115q-229 -123 -506 -123q-418 0 -671.5 232.5t-253.5 624.5zM787.5 545q-19.5 -133 22.5 -214t143.5 -81t213.5 90l64 459q-72 72 -183.5 71.5t-176 -96.5t-84 -229z" />
<glyph unicode="A" d="M25 0v16q0 96 79 105l80 4l394 1272q39 4 83.5 4t94.5 -4l389 -1268l139 -12q1 -14 1 -26q0 -91 -79 -91h-446v16q0 96 80 105l71 4l-90 328h-393l-94 -324l162 -12q1 -14 1 -25q0 -92 -81 -92h-391zM463 575h323l-157 566z" />
<glyph unicode="B" horiz-adv-x="1175" d="M86 0q2 57 17.5 87t56.5 32l78 8v1143l-150 12q-1 10 -1 19q-1 35 17 63q22 35 54 35h450q231 0 342 -96.5t111 -235.5q0 -240 -244 -330q135 -20 221 -101t86 -216v-6q0 -192 -131 -302q-133 -112 -375 -112h-532zM453 129l114 -2h5q331 0 331 268q0 145 -90 209 q-87 62 -265 62h-11l-84 -2v-535zM453 776h59q172 0 249 67.5t77 200t-80 191.5q-68 50 -177 50q-18 0 -38 -1l-90 -4v-504z" />
<glyph unicode="C" horiz-adv-x="1200" d="M75 675v12q0 327 168 531q171 208 488 209q174 0 284.5 -77.5t110.5 -188.5q0 -74 -46 -112.5t-128 -38.5q0 129 -62.5 197.5t-180.5 68.5q-197 0 -303.5 -159t-106.5 -426t103.5 -413.5t327.5 -146.5t380 125q31 -20 31 -59q0 -76 -138.5 -152t-326.5 -76 q-293 0 -445.5 185.5t-155.5 520.5z" />
<glyph unicode="D" horiz-adv-x="1421" d="M84 0v12q0 103 68 107l81 8v1141l-145 12v11q0 51 16 78q18 30 72 30h461q360 0 535.5 -170t175.5 -518.5t-183.5 -529.5t-521.5 -181h-559zM449 131l139 -6q22 -1 43 -1q241 0 361 127q130 138 130 450.5t-134 447.5q-125 126 -387 126q-19 0 -40 -1l-110 -4h-2v-1139z " />
<glyph unicode="E" horiz-adv-x="1157" d="M84 0v25q0 45 12.5 59t20.5 22q18 14 47 15l72 4v1143l-148 12q-1 14 -1 25q0 92 81 92h885v-301q0 -74 -90 -74q-13 0 -27 2l-18 240l-467 6v-522l376 36q11 -43 11 -91q0 -43 -9 -91l-378 23v-496l501 16l19 238q15 2 27 2q87 0 87 -72v-313h-1001z" />
<glyph unicode="F" horiz-adv-x="1071" d="M84 0v16q0 96 80 105l72 4v1143l-148 12q-1 14 -1 25q0 92 81 92h870v-295q0 -74 -89 -74q-13 0 -27 2l-19 230l-450 10v-506l374 37q12 -47 12 -95q0 -44 -10 -88l-376 21v-510l184 -12q1 -14 1 -25q0 -92 -81 -92h-473z" />
<glyph unicode="G" horiz-adv-x="1355" d="M75 675v12q0 329 169 534q172 209 495 209q225 0 342 -77t117 -190q0 -70 -46 -111.5t-130 -41.5q0 150 -72.5 218t-234.5 68q-213 0 -314.5 -158.5t-101.5 -437.5q0 -575 432 -575q180 0 273 86v299l-269 12q-1 14 -1 26q0 91 79 91h510v-16q0 -96 -80 -105l-55 -4h-8 v-342q-59 -90 -200.5 -146.5t-309.5 -56.5q-287 0 -439.5 184.5t-155.5 521.5z" />
<glyph unicode="H" horiz-adv-x="1527" d="M84 0v16q0 96 80 105l72 4v1143l-148 12q-1 14 -1 26q0 91 79 91h438v-17q0 -96 -80 -104l-73 -4v-516h626v512l-147 12q-1 14 -1 26q0 91 79 91h436v-17q0 -96 -80 -104l-72 -4v-1143l148 -12q1 -14 1 -26q0 -91 -79 -91h-438v16q0 49 14 68q27 33 68 37l71 4v506h-626 v-502l149 -12q1 -14 1 -25q0 -92 -81 -92h-436z" />
<glyph unicode="I" horiz-adv-x="686" d="M84 0v16q0 96 80 105l72 4v1143l-148 12q-1 14 -1 26q0 91 79 91h438v-17q0 -96 -80 -104l-73 -4v-1143h2l147 -12q1 -14 1 -25q0 -92 -81 -92h-436z" />
<glyph unicode="J" horiz-adv-x="776" d="M20 23.5q0 62.5 35 100.5q33 36 104 36h7q4 -139 102 -140q47 0 69.5 52.5t22.5 189.5v1006h-2l-155 12q-1 14 -1 26q0 91 79 91h444v-17q0 -49 -14 -67q-27 -33 -68 -37l-68 -4v-993q0 -178 -96 -293t-260 -115q-86 0 -142.5 45t-56.5 107.5z" />
<glyph unicode="K" horiz-adv-x="1282" d="M84 0v16q0 96 80 105l72 4v1143l-148 12q-1 14 -1 26q0 91 79 91h438v-17q0 -96 -80 -104l-73 -4v-578l452 576l-133 10q-1 14 -1 25q0 92 81 92h383q0 -61 -14 -82q-27 -39 -66 -39l-82 -4l-405 -504l450 -641l129 -12q5 -9 5 -22q0 -20 -13 -48q-20 -45 -72 -45h-223 l-416 594l-75 -92v-373l163 -12q1 -14 1 -26q0 -91 -80 -91h-451z" />
<glyph unicode="L" horiz-adv-x="1120" d="M84 0v16q0 96 80 105l72 4v1143l-146 12q-1 14 -1 26q0 93 79 93h467v-15q0 -74 -43 -98q-16 -8 -37 -8l-102 -6h-2v-1143l477 12l28 262q16 2 30 2q87 0 87 -71v-334h-989z" />
<glyph unicode="M" horiz-adv-x="1759" d="M25 0v16q0 96 79 105l86 4l80 1143l-141 12q-1 14 -1 26q0 93 79 93h309l383 -860l338 860h330q81 0 81 -93q0 -12 -1 -26l-144 -12l86 -1137l144 -14q1 -14 1 -26q0 -91 -79 -91h-432v16q0 96 80 105l67 4l-74 1024l-374 -916q-41 -13 -76 -13q-21 0 -39 5l-397 885 l-68 -981l160 -12q1 -14 1 -26q0 -91 -79 -91h-399z" />
<glyph unicode="N" horiz-adv-x="1413" d="M84 0v16q0 96 80 105l72 4v1143l-148 12q-1 14 -1 26q0 91 79 91h250l667 -1010v881l-147 12q-1 14 -1 25q0 92 81 92h358v-17q0 -96 -80 -104l-73 -4v-1247q-59 -27 -138 -27l-708 1071v-940l147 -12q1 -14 1 -26q0 -91 -79 -91h-360z" />
<glyph unicode="O" horiz-adv-x="1374" d="M75 682v12q0 332 168 530q171 202 474 203q257 0 419 -177q163 -178 163 -531q-1 -347 -169 -548q-170 -202 -479 -202q-270 0 -421.5 186.5t-154.5 526.5zM297 701.5q0 -279.5 96 -433t287 -155.5q197 2 297 152.5t100 430.5q0 278 -98 434q-97 155 -289 155h-2 q-194 -1 -292.5 -152.5t-98.5 -431z" />
<glyph unicode="P" horiz-adv-x="1179" d="M84 0v16q0 96 80 105l72 4v1147l-150 12v11q0 104 70 104h460q252 0 387.5 -106.5t135.5 -288.5q0 -229 -155 -348t-425 -119h-108v-408l167 -12q1 -14 1 -26q0 -91 -80 -91h-455zM451 651h86q182 0 279 86t97 244q0 157 -86 235q-78 70 -219 71q-15 0 -30 -1l-127 -4 v-631z" />
<glyph unicode="Q" horiz-adv-x="1384" d="M76 672v16q0 339 167 536q171 203 474 203q258 0 419 -177q163 -178 163 -512q0 -327 -133 -520q-134 -195 -382 -238q264 -106 402 -107q53 0 104 33q17 -21 17 -72q0 -49 -47 -86q-48 -37 -122.5 -37t-203.5 54.5t-195.5 93.5t-203.5 121q-217 41 -337 221t-122 471z M297 701.5q0 -279.5 96 -433t287 -155.5q197 2 297 152.5t100 430t-98 434.5q-97 155 -289 155h-2q-194 -1 -292.5 -152.5t-98.5 -431z" />
<glyph unicode="R" horiz-adv-x="1247" d="M84 0v25q0 45 12.5 59t20.5 22q18 14 47 15l72 4v1147l-150 12v11q0 104 70 104h462q485 0 486 -357q0 -158 -96.5 -262t-272.5 -139q123 -244 256 -379t250 -135q-6 -70 -52 -114t-125 -44t-185 109q-199 205 -322 547q-70 0 -106 2v-498l165 -12q1 -12 1 -23 q0 -94 -78 -94h-455zM451 741q27 -2 73 -2q356 0 357 285q0 263 -274 263q-14 0 -29 -1l-123 -4h-4v-541z" />
<glyph unicode="S" horiz-adv-x="1062" d="M51 225q0 70 45 114t135 44q18 -274 283 -274q141 0 223 67.5t82 175.5q0 106 -90 172q-49 35 -90 55.5t-125 56.5t-126 56.5t-105.5 59.5t-94.5 75q-77 93 -77 214q0 185 135 284.5t325 101.5h15q185 0 295 -96q61 -57 61 -140t-47 -123q-39 -33 -97 -33q-12 0 -24 1 q0 252 -235 252q-106 0 -174 -49t-68 -137q0 -68 39 -111q16 -16 26.5 -27.5t36 -26.5t38 -23.5t44 -24t43.5 -21.5q59 -20 103 -43q207 -90 293 -170t86 -227q0 -199 -142.5 -329t-382.5 -130q-170 0 -300 66.5t-130 189.5z" />
<glyph unicode="T" horiz-adv-x="1275" d="M41 1124v273h1194v-273q0 -57 -47 -69q-31 -8 -68 -8l-18 215h-357v-1133l164 -12q1 -14 1 -26q0 -91 -79 -91h-466v16q0 96 79 105l88 4v1137h-358l-16 -215q-84 0 -105 30q-12 18 -12 47z" />
<glyph unicode="U" horiz-adv-x="1351" d="M33 1280q-1 14 -1 26q0 91 79 91h436v-17q0 -96 -80 -104l-72 -4l-2 -731q0 -223 71 -325.5t228 -102.5q336 0 336 409l-2 746l-145 12q-2 15 -2 28q0 89 79 89h365v-17q0 -96 -80 -104l-72 -4v-707q0 -596 -509 -596q-240 0 -361 140.5t-121 447.5v711z" />
<glyph unicode="V" horiz-adv-x="1298" d="M6 1280q-1 14 -1 26q0 91 79 91h436v-17q0 -49 -14 -67q-27 -33 -66 -37l-73 -4l309 -1004l334 1000l-156 12q-2 20 -1 40.5t20.5 48.5t58.5 28h362v-17q0 -96 -82 -104l-47 -4l-444 -1272h-170l-422 1268z" />
<glyph unicode="W" horiz-adv-x="1968" d="M6 1280q-1 14 -1 26q0 91 77 91h426v-17q0 -96 -80 -104l-70 -4l267 -1004l325 994h152l291 -998l299 1004l-146 12q-1 14 -1 26q0 91 79 91h340v-19q0 -68 -31 -88q-16 -12 -80 -18l-403 -1272h-182l-283 885l-303 -885h-184l-377 1268z" />
<glyph unicode="X" horiz-adv-x="1359" d="M27 1280q-1 14 -1 27q0 92 78 92h463v-15q0 -98 -80 -106l-67 -6l297 -436l276 432l-153 12q-1 14 -1 26q0 93 81 93h405v-15q0 -98 -80 -106l-63 -4h-4l-381 -557l397 -588l141 -12q1 -14 1 -25q0 -92 -81 -92h-464v16q0 49 14 68q27 33 65 37l64 4h4l-293 434 l-276 -430h2l153 -12q1 -14 1 -26q0 -91 -79 -91h-413v16q0 49 14 68q27 33 68 37l71 4l379 549l-401 594z" />
<glyph unicode="Y" horiz-adv-x="1267" d="M6 1280q-1 14 -1 26q0 93 79 93h453v-15q0 -74 -43 -98q-16 -8 -37 -8l-76 -6h-2l301 -543l293 539l-152 12q-1 14 -1 26q0 93 79 93h363v-15q0 -98 -80 -106l-47 -6l-392 -694v-449h2l148 -12q1 -13 1 -25q0 -92 -81 -92h-438v16q0 96 80 105l73 4v448l-397 695z" />
<glyph unicode="Z" horiz-adv-x="1163" d="M35 88l780 1180l-526 -19l-21 -174q-13 -102 -96 -102q-17 0 -37 4v426h920q43 -31 45 -84l-776 -1188l618 29l25 180q13 98 96 98q16 0 35 -4v-434h-1030q-27 51 -33 88z" />
<glyph unicode="[" horiz-adv-x="534" d="M152 -334v1807h333v-117h-163v-1571h163v-119h-333z" />
<glyph unicode="\" horiz-adv-x="788" d="M41 1427h178l529 -1644h-179z" />
<glyph unicode="]" horiz-adv-x="528" d="M49 -215h164v1571h-164v117h334v-1807h-334v119z" />
<glyph unicode="^" horiz-adv-x="1036" d="M117 418l358 919h107l338 -919h-185l-211 579l-221 -579h-186z" />
<glyph unicode="_" horiz-adv-x="806" d="M-68 -156h942v-137h-942v137z" />
<glyph unicode="`" horiz-adv-x="899" d="M145 1339q16 37 62.5 78t89.5 47l342 -272q-23 -49 -78 -76z" />
<glyph unicode="a" horiz-adv-x="1052" d="M74 250q0 131 99 217t321 86q96 0 188 -16v114q0 260 -203 260q-82 0 -130 -55t-52 -139q-12 -1 -22 -1q-55 0 -94 26q-46 30 -46 94q0 94 97.5 155.5t264.5 61.5t280.5 -90.5t113.5 -298.5v-566l135 -16q0 -113 -148.5 -113t-183.5 113q-133 -113 -290.5 -113t-243.5 75 t-86 206zM295 271.5q0 -74.5 43 -115.5t140 -41t204 75v203q-82 35 -179 35t-152.5 -41t-55.5 -115.5z" />
<glyph unicode="b" horiz-adv-x="1175" d="M27 1409l362 43v-520q135 121 303 121t286 -122t122 -380v-15q0 -247 -125 -405q-129 -162 -375 -162q-115 0 -211 43l-207 68v1208l-92 8q-64 7 -64 91q0 10 1 22zM389 205q105 -90 234 -90q258 0 258 397q0 178 -64.5 281.5t-185.5 103.5t-242 -109v-583z" />
<glyph unicode="c" horiz-adv-x="952" d="M75 496q0 244 134 400q135 157 364 157q141 0 228.5 -59.5t87.5 -147.5t-47 -121q-40 -28 -89 -28q-9 0 -18 1q-2 82 -49 145.5t-141 63.5q-121 0 -186.5 -105.5t-65.5 -281.5q0 -391 303 -391q137 0 270 109q16 -10 26.5 -34t10.5 -40q0 -63 -118.5 -129t-266.5 -66 q-210 1 -326 139q-118 140 -117 388z" />
<glyph unicode="d" horiz-adv-x="1155" d="M76 471v15q0 248 126 405q130 162 373 162q115 0 211 -43v278l-90 8q-66 7 -66 91q0 10 1 22l364 43v-1352l133 -14q0 -119 -156.5 -119t-180.5 127q-135 -125 -304.5 -125t-288 122t-122.5 380zM293 507q0 -173 66.5 -276.5t187.5 -103.5t239 106v584q-102 90 -237 90 t-195.5 -113.5t-60.5 -286.5z" />
<glyph unicode="e" horiz-adv-x="991" d="M76 487.5q0 262.5 133 414t335 151.5t294 -121q91 -118 90 -297v-8v-111h-633v-39q0 -170 65.5 -260t218 -90t291.5 111q35 -25 35 -74q0 -66 -112.5 -130.5t-270.5 -64.5q-211 0 -328.5 128t-117.5 390.5zM307 639h414q-6 272 -184 272q-186 0 -230 -272z" />
<glyph unicode="f" horiz-adv-x="749" d="M74 0v16q0 94 80 103l69 4v774h-145q0 125 84 125h61v63q0 176 97.5 286t261.5 112q206 0 206 -128q0 -60 -37.5 -90t-99.5 -30q0 61 -28.5 92t-71.5 31q-119 0 -119 -250v-86h258q1 -12 1 -23q0 -102 -83 -102h-176v-770l205 -12q1 -12 1 -22q0 -93 -79 -93h-485z" />
<glyph unicode="g" horiz-adv-x="974" d="M39 -187q0 130 133 240q-37 33 -37 97q0 92 103 208q-158 90 -162 297v12q0 160 104 271q107 115 287 115q121 0 211 -52l264 70q18 -25 20 -76q1 -5 1 -10q0 -43 -21 -61q-26 -13 -126 -13h-40q57 -81 57 -213q0 -14 -1 -30q-7 -152 -110.5 -257.5t-275.5 -105.5 q-47 0 -102 10q-38 -53 -38 -77q0 -27 48 -33q45 -6 172 -10q223 -8 323.5 -63.5t100.5 -194.5q0 -184 -140 -296t-350 -112t-315.5 77t-105.5 207zM270 -267q72 -44 211.5 -44t229.5 55t90 129t-77 93.5t-236.5 25.5t-217.5 18q-74 -83 -74 -157q0 -76 74 -120zM274 672.5 q0 -111.5 48 -176.5q46 -63 127 -63h3q83 1 132 67.5t49 176t-46 177.5q-45 66 -128 66h-5q-87 -2 -133.5 -69t-46.5 -178.5z" />
<glyph unicode="h" horiz-adv-x="1306" d="M74 1407l364 43v-532q143 135 302 135t265.5 -103.5t106.5 -320.5l2 -502l150 -12q1 -13 1 -25q0 -90 -81 -90h-428v16q0 94 80 103l69 4v508q0 131 -54 188.5t-173 57.5t-240 -109v-641l150 -12q1 -14 1 -25q0 -90 -79 -90h-432v16q0 94 80 103l71 4v1163l-90 8 q-66 8 -65 113z" />
<glyph unicode="i" horiz-adv-x="630" d="M74 1012l364 41v-926l150 -12q1 -14 1 -25q0 -90 -79 -90h-432v16q0 94 80 103l71 4v768l-90 10q-66 6 -65 111zM186 1302.5q0 57.5 38 95.5t94.5 38t94.5 -38t38 -95.5t-38 -95.5t-94.5 -38t-94.5 38t-38 95.5z" />
<glyph unicode="j" horiz-adv-x="565" d="M-154 -335q0 54 36 83q34 27 86 27h7q4 -104 86 -105q63 0 96 54.5t33 216.5v952l-96 10q-61 4 -61 111l366 39v-951q0 -283 -103 -429q-102 -144 -279 -144h-5q-82 0 -124 41t-42 95zM147 1303.5q0 56.5 38 94.5t95.5 38t95.5 -38t38 -94.5t-38 -94.5t-95.5 -38 t-95.5 38t-38 94.5z" />
<glyph unicode="k" horiz-adv-x="1161" d="M74 1409l364 43v-932l324 375l-119 12q-1 13 -1 25q0 90 81 90h350v-14q0 -49 -14 -68q-27 -33 -68 -37l-49 -2l-266 -297l344 -477l137 -12q1 -9 1 -18q0 -39 -22 -65q-26 -32 -65 -32h-201l-325 457l-107 -117v-213l152 -12q1 -13 1 -25q0 -90 -81 -90h-430v16 q0 94 80 103l69 4v1165l-90 8q-66 8 -65 113z" />
<glyph unicode="l" horiz-adv-x="626" d="M74 1409l364 41v-1323l146 -12q1 -14 1 -25q0 -90 -79 -90h-430v16q0 49 14 66q27 33 68 37l71 4v1165l-90 8q-66 8 -65 113z" />
<glyph unicode="m" horiz-adv-x="1945" d="M74 1004l332 40l16 -131h6q51 45 83 70t95.5 47.5t142 22.5t159.5 -42t130 -130q168 172 348 172q152 0 259.5 -103.5t107.5 -320.5v-502l150 -12q1 -14 1 -25q0 -90 -79 -90h-428v16q0 94 80 103l67 4v508q0 129 -54 187.5t-170 58.5t-239 -113q16 -59 17 -135v-502 l149 -12q1 -13 1 -25q0 -90 -81 -90h-430v16q0 94 80 103l72 4v508q0 246 -211 246q-117 0 -240 -107v-643l150 -12q1 -14 1 -25q0 -90 -79 -90h-432v16q0 94 80 103l71 4v762l-84 6q-72 6 -71 113z" />
<glyph unicode="n" horiz-adv-x="1302" d="M74 1004l332 40l18 -137h6q158 145 316 145q1 0 1 1q155 1 261 -101t106 -315v-510l143 -12q2 -15 2 -27q0 -88 -79 -88h-426v16q0 94 80 103l71 4v514q0 242 -198 242q-82 0 -141.5 -26t-127.5 -85v-641l146 -12q1 -14 1 -25q0 -90 -79 -90h-430v16q0 49 14 66 q27 33 68 37l71 4v760l-90 10q-66 6 -65 111z" />
<glyph unicode="o" horiz-adv-x="1083" d="M75 496q0 252 127 404q128 152 343 152.5t339 -134t125 -393.5v-4q0 -255 -127 -403q-128 -148 -352 -148q-226 -2 -340 132q-116 134 -115 394zM293 506q-1 -184 63 -293q63 -108 181 -108h3q120 1 185.5 106.5t65.5 290.5q1 184 -63 298q-63 114 -182 114h-2 q-120 -1 -185.5 -112.5t-65.5 -295.5z" />
<glyph unicode="p" horiz-adv-x="1171" d="M25 999l329 41l21 -118q145 131 313 131t287 -122t123 -380v-15q0 -248 -126 -405q-130 -162 -374 -162q-115 0 -211 43v-329l150 -13q1 -13 1 -25q0 -89 -79 -89h-2h-430v14q0 96 79 104l72 4v1203l-96 12q-57 6 -57 106zM387 203q106 -88 239.5 -88t193 112.5 t59.5 286.5t-65.5 278.5t-186.5 104.5t-240 -106v-588z" />
<glyph unicode="q" horiz-adv-x="1120" d="M76 472v15q0 247 125 404q129 162 372 162q137 0 246 -60l174 29v-1339l140 -13q1 -13 1 -25q0 -89 -79 -89h-422v14q0 96 80 104l71 4v404q-135 -113 -301 -113t-284.5 123t-122.5 380zM293 510q0 -176 66.5 -279.5t187.5 -103.5t237 100v592q-106 88 -233 88 q-199 0 -246 -252q-12 -66 -12 -145z" />
<glyph unicode="r" horiz-adv-x="882" d="M74 999l334 43l16 -163h6q55 65 145.5 119.5t155 54.5t106.5 -37t42 -130t-56 -145q-26 -20 -75 -20q-14 0 -29 2q0 88 -18.5 119.5t-59.5 31.5q-98 0 -205 -135v-612l170 -12q1 -13 1 -25q0 -90 -81 -90h-448v16q0 94 80 103l69 4v760l-98 10q-55 6 -55 106z" />
<glyph unicode="s" horiz-adv-x="858" d="M49 174q2 63 45 98t103 35q14 -94 75.5 -147.5t154.5 -54.5h5q90 0 144 34q56 35 55.5 101.5t-50 101.5t-145.5 73t-145 61.5t-103 62.5q-106 78 -106 216t114.5 218t251 80t223.5 -44t87 -139q0 -66 -43 -100q-35 -27 -82 -27q-11 0 -23 2v5q0 70 -53 118 q-55 50 -134 51h-5q-76 0 -120 -32q-46 -33 -46 -86t58.5 -90t164 -79t148.5 -64.5t92 -59.5q93 -69 93 -204q0 -138 -112 -238q-109 -97 -295 -97h-8q-137 2 -240.5 54.5t-103.5 150.5z" />
<glyph unicode="t" horiz-adv-x="813" d="M20 897q0 125 84 125h78v254l209 31v-285h375q4 -27 -6 -57q-16 -63 -68 -68h-301v-582q0 -184 115 -184q74 0 125 19.5t117 70.5q10 -2 24 -24.5t14 -46.5q0 -72 -106.5 -126.5t-216.5 -54.5q-164 0 -222.5 92.5t-58.5 255.5v580h-162z" />
<glyph unicode="u" horiz-adv-x="1208" d="M25 899v19q0 104 77 104h283v-629q0 -262 215 -262q117 0 223 86v678l-157 4v25q0 49 12 63l18 21q14 14 45 14h291v-893l66 -4q61 -2 61 -113l-274 -26l-37 112q-145 -129 -300 -129t-263.5 103.5t-108.5 320.5v502z" />
<glyph unicode="v" horiz-adv-x="1034" d="M4 907v11q0 104 74 104h377l-2 -39q0 -45 -43 -70q-16 -8 -88 -14l221 -590l227 588l-100 10q-1 14 -1 25q0 90 79 90h284q0 -113 -69 -119l-25 -2l-369 -901h-120l-357 895z" />
<glyph unicode="w" horiz-adv-x="1476" d="M4 907v11q0 104 74 104h377l-2 -39q0 -45 -43 -70q-16 -8 -86 -14l170 -582l213 609l129 2l182 -590l188 559l-94 10q-1 14 -1 25q0 90 79 90h283v-6q0 -107 -68 -113l-25 -2l-344 -901h-118l-195 578l-219 -578h-117l-295 895z" />
<glyph unicode="x" horiz-adv-x="1044" d="M16 0v16q0 94 80 103l58 4l258 377l-285 395l-107 12q-6 10 3 47q14 68 75 68h387v-14q0 -88 -79 -105l-33 -4l196 -272l170 268h-2l-94 12q-1 14 -1 25q0 90 79 90h299v-18q0 -68 -37 -89q-18 -10 -86 -14l-256 -375l289 -399l102 -12q1 -14 1 -25q0 -90 -79 -90h-393 v14q0 47 14 64q27 33 66 41l39 4h4l-199 276l-174 -272l111 -12q1 -14 1 -25q0 -90 -79 -90h-328z" />
<glyph unicode="y" horiz-adv-x="1064" d="M6 907q-1 14 -1 25q0 90 79 90h393v-14q0 -88 -80 -105l-43 -4l230 -577l221 573l-105 12q-1 14 -1 25q0 90 79 90h285v-18q0 -88 -80 -101l-14 -2l-342 -838h2q-111 -262 -156 -337q-117 -190 -256 -193q-80 0 -126 39t-46 94t32 89t70.5 34t49.5 -4q-10 -27 0 -62.5 t47 -35.5q55 0 122.5 126t112.5 259l-360 823h-6z" />
<glyph unicode="z" horiz-adv-x="878" d="M31 92l559 817l-348 -12l-13 -111q-6 -50 -47 -68q-24 -10 -47 -11l-35 6v309h701q37 -37 41 -98l-549 -803l409 10l17 111q6 50 47 68q24 10 47 11l35 -6v-315h-787q-29 51 -30 92z" />
<glyph unicode="{" horiz-adv-x="718" d="M102 516v68q68 29 91 57q47 53 47 139t-16.5 224.5t-16.5 207.5q0 121 82 196t215 75t180 -27l-8 -96q-33 4 -62 4q-106 0 -166.5 -42t-60.5 -120q0 -43 17.5 -171t17.5 -225t-31 -164t-80 -83v-18q49 -16 80 -83t31 -152t-17.5 -223t-17.5 -187q0 -78 60.5 -119 t166.5 -41q29 0 62 4l8 -98q-74 -27 -196.5 -27t-201.5 73.5t-79 196.5q0 66 16.5 206t16.5 227.5t-47 140.5q-23 29 -91 57z" />
<glyph unicode="|" horiz-adv-x="579" d="M205 -397v1880h170v-1880h-170z" />
<glyph unicode="}" horiz-adv-x="718" d="M23 -358l8 98q33 -4 61 -4q106 0 166.5 41t60.5 119q0 49 -17 187t-17 223t30.5 151.5t79.5 83.5v18q-49 16 -79.5 83t-30.5 164t17 225t17 171q0 78 -60 120t-167 42q-29 0 -61 -4l-8 96q47 27 180 27t215 -75t82 -196q0 -70 -16.5 -208t-16.5 -224t47 -139 q23 -29 90 -57v-68q-68 -29 -90 -57q-47 -53 -47 -140.5t16.5 -227.5t16.5 -206q0 -123 -79 -196.5t-202 -73.5t-196 27z" />
<glyph unicode="~" horiz-adv-x="1187" d="M205 506q23 109 87 173t146 62t174.5 -62.5t150.5 -61.5t97 28t53 76l70 -21q-43 -244 -252 -241q-86 2 -183 57t-140 55t-78 -26.5t-51 -65.5z" />
<glyph unicode="&#xa1;" horiz-adv-x="495" d="M106 1300.5q0 59.5 41 100.5t100.5 41t100.5 -41t41 -100.5t-41 -101.5t-100.5 -42t-100.5 42t-41 101.5zM143 -14l33 997q76 20 141 0l56 -1010q-130 -26 -230 13z" />
<glyph unicode="&#xa2;" horiz-adv-x="1036" d="M102 482.5q-2 230.5 104.5 383t301.5 181.5l-14 192q27 14 81 13t84 -13l-16 -188q127 -11 201 -67t74 -140t-48.5 -118t-105.5 -28q-2 86 -49 148.5t-155.5 62.5t-173 -104.5t-64.5 -272.5q0 -406 296 -405q156 0 277 104q39 -27 39 -77t-85 -104t-208 -75l18 -204 q-29 -14 -84 -14.5t-81 14.5l16 196q-190 10 -298 147.5t-110 368z" />
<glyph unicode="&#xa3;" horiz-adv-x="1087" d="M96 98q111 31 148 129q35 74 51 316h-174v125h182q4 84 6 129q25 485 404 485q113 0 188.5 -48t75.5 -128q0 -145 -152 -135q0 182 -139 182q-172 0 -192 -356q-8 -121 -9 -129h330v-125h-338q-14 -182 -35.5 -276.5t-68.5 -129.5h618q9 -137 -100 -137h-782 q-16 37 -13 98z" />
<glyph unicode="&#xa4;" horiz-adv-x="1218" d="M96 182l189 158q-72 94 -72 237.5t74 245.5l-191 158q23 31 62 70t63 51l162 -187q96 59 228 59.5t223 -59.5l163 187q25 -12 64 -51t61 -70l-190 -158q72 -104 72 -244.5t-70 -238.5l188 -158q-23 -31 -61.5 -69.5t-63.5 -53.5l-161 189q-92 -61 -225.5 -61.5 t-225.5 61.5l-164 -189q-25 14 -63.5 53.5t-61.5 69.5zM381 580.5q0 -105.5 62.5 -170t165 -64.5t165 64.5t62.5 170t-62.5 170t-165 64.5t-165 -64.5t-62.5 -170z" />
<glyph unicode="&#xa5;" horiz-adv-x="1290" d="M31 1147q-12 117 78 117h436v-15q0 -53 -15 -69q-27 -33 -65 -37l-57 -2l276 -432l258 426l-149 12q-13 117 77 117h394v-15q0 -98 -80 -106l-64 -4h-4l-299 -473h178v-123h-233v-105h233v-123h-233v-186h2l147 -12q12 -117 -77 -117h-433v16q0 49 15 68q27 33 67 37 l72 4v190h-252v123h252v105h-252v123h184l-327 469z" />
<glyph unicode="&#xa6;" horiz-adv-x="579" d="M205 365h170v-762h-170v762zM205 721v762h170v-762h-170z" />
<glyph unicode="&#xa7;" horiz-adv-x="1146" d="M96 -326q0 70 45 113t135 43q18 -272 283 -272q137 0 221 65.5t84 175.5q0 109 -90 172q-72 53 -185.5 101.5t-155.5 69t-105.5 59.5t-94.5 75q-78 94 -77 218q0 176 137 282q-137 102 -137 276.5t137 274.5t323 100q195 4 310 -96q61 -57 61 -140t-47 -123t-121 -30 q0 250 -235 250q-106 0 -174 -49t-68 -135q0 -109 125 -180q55 -31 123.5 -62t81.5 -37q205 -88 292 -169t87 -241.5t-115 -285.5q115 -92 115 -254q0 -199 -142.5 -328t-382.5 -129q-170 0 -300 66.5t-130 189.5zM342 551q0 -68 39 -109q16 -18 26.5 -29.5t36 -26.5 t38 -23.5t44 -23.5t43.5 -20q135 -53 244 -110q51 61 51 129t-19.5 108.5t-68.5 75.5q-82 57 -204.5 109.5t-147.5 64.5q-82 -49 -82 -145z" />
<glyph unicode="&#xa8;" horiz-adv-x="1228" d="M207 1296.5q0 53.5 39 91t92 37.5t91 -37.5t38 -91t-38 -91.5t-91 -38t-92 38t-39 91.5zM578 1295.5q0 52.5 38.5 91t92 38.5t91.5 -37.5t38 -91t-38 -91.5t-92.5 -38t-92 38t-37.5 90.5z" />
<glyph unicode="&#xa9;" horiz-adv-x="1419" d="M102 631.5q0 273.5 165 443.5t439.5 170t442.5 -167t168 -441.5t-167 -441t-441.5 -166.5t-440.5 164.5t-166 438zM260 634q0 -212 122 -338t327.5 -126t327.5 126t122 341t-124 341t-328.5 126t-325.5 -129t-121 -341zM455 631.5q0 142.5 77.5 232.5t215.5 90 q86 0 136 -34.5t50 -84t-30 -70t-62 -15.5q0 41 -28 71.5t-84 30.5t-92 -54.5t-36 -140.5q0 -221 164 -221q86 0 156 58q20 -14 20 -54.5t-66.5 -76t-154.5 -35.5q-123 0 -194.5 80.5t-71.5 223z" />
<glyph unicode="&#xaa;" horiz-adv-x="733" d="M74 805q0 82 66.5 133t211.5 51q57 0 105 -8v45q0 156 -112 156t-114 -113q-47 -4 -79.5 17.5t-32.5 72.5t63.5 90t173.5 39q260 0 260 -252v-317l80 -8q0 -80 -100 -80t-129 65q-82 -66 -181.5 -65.5t-155.5 46.5t-56 128zM246 813q0 -72 96 -72q51 0 115 37v101 q-44 16 -95 16q-117 0 -116 -82z" />
<glyph unicode="&#xab;" horiz-adv-x="1220" d="M102 455q-16 53 0 108l500 424l96 -86l-354 -385v-16l363 -383l-105 -86zM567 455q-12 53 0 108l500 424l96 -86l-352 -385v-16l363 -383l-107 -86z" />
<glyph unicode="&#xac;" horiz-adv-x="1017" d="M102 498v145h813v-385h-147l2 240h-668z" />
<glyph unicode="&#xad;" horiz-adv-x="815" d="M88 453v159h639v-159h-639z" />
<glyph unicode="&#xae;" horiz-adv-x="1263" d="M115 945.5q0 234.5 145.5 378.5t377.5 144t371.5 -145t139.5 -380.5t-143.5 -376t-372.5 -142.5q-231 2 -374.5 144.5t-143.5 377zM250 946q0 -184 106.5 -293.5t277.5 -109.5t275.5 107.5t104.5 291.5t-102.5 296t-275.5 112t-279.5 -110t-106.5 -294zM418 1159 q0 66 31 66h186q201 0 201 -133q0 -119 -136 -150q94 -176 197 -176q-10 -70 -76.5 -70t-125 73t-91.5 163h-20v-156l67 -4q4 -14 -3 -39.5t-34 -25.5h-194q0 66 35 67l22 2v379zM584 997h12q129 0 129 86q0 76 -96 76h-45v-162z" />
<glyph unicode="&#xaf;" horiz-adv-x="1228" d="M238 1184v133h579v-133h-579z" />
<glyph unicode="&#xb0;" horiz-adv-x="747" d="M117 1185.5q0 110.5 72.5 179.5t185 69t184.5 -68t72 -178.5t-73 -180t-185.5 -69.5t-184 68.5t-71.5 179zM256 1187q0 -54 33 -89t86 -35t85 35t32 88t-33 88t-86.5 35t-85 -34t-31.5 -88z" />
<glyph unicode="&#xb1;" horiz-adv-x="1017" d="M102 41v145h813v-145h-813zM102 489v146h334v334h150v-334h329v-146h-329v-217h-150v217h-334z" />
<glyph unicode="&#xb2;" horiz-adv-x="698" d="M76 651q6 4 46 37t53 43t51 42t54.5 49.5t47 48t45 54t30.5 52.5q31 53 31 104.5t-24.5 82t-77.5 30.5t-83 -47t-30 -117q-125 -4 -125 90q0 72 72 119t185.5 47t181 -54t67.5 -142q0 -119 -105.5 -232t-226.5 -188h271l8 71q2 29 28.5 39.5t53.5 1.5v-213h-533 q-27 63 -20 82z" />
<glyph unicode="&#xb3;" horiz-adv-x="647" d="M72 680q0 31 23.5 52.5t68.5 21.5q2 -45 38 -75t94 -30t96 33t38 84q-2 133 -227 117v100q66 0 131 33t65 105.5t-84 72.5q-98 0 -108 -109q-96 2 -96 74q2 53 58 90t163.5 37t172 -43t64.5 -117q0 -121 -170 -168q96 -12 148.5 -61t52.5 -132t-80 -145.5t-202.5 -62.5 t-184 36t-61.5 87z" />
<glyph unicode="&#xb4;" horiz-adv-x="1228" d="M340 1192l342 272q43 -6 89.5 -47t62.5 -78l-416 -223q-55 27 -78 76z" />
<glyph unicode="&#xb5;" horiz-adv-x="1181" d="M147 -438l13 760q-4 45 -4 71v629h209v-629q0 -262 215 -262q113 0 215 80v811h206v-924l136 -16q0 -113 -147.5 -113t-182.5 111q-129 -111 -283 -111q-94 0 -172 39l10 -446q-27 -16 -110.5 -16.5t-104.5 16.5z" />
<glyph unicode="&#xb6;" horiz-adv-x="1423" d="M96 984.5q0 189.5 113.5 302t308.5 112.5h739q74 0 70 -115l-149 -12v-1456h-213v1456h-195v-1456h-213v764q-199 0 -330 107.5t-131 297z" />
<glyph unicode="&#xb7;" horiz-adv-x="458" d="M82 556q0 62 43 105.5t105.5 43.5t104.5 -43.5t42 -105.5t-42 -104t-104.5 -42t-105.5 42t-43 104z" />
<glyph unicode="&#xb8;" horiz-adv-x="1228" d="M436 -352q-2 23 6.5 47t18.5 31q39 -33 109.5 -33t70.5 65q0 35 -29.5 53.5t-115.5 18.5l55 207h98l-31 -129q84 0 126 -42t42 -110.5t-55 -117t-148.5 -48.5t-146.5 58z" />
<glyph unicode="&#xb9;" horiz-adv-x="585" d="M72 1159l188 105q29 14 86 14q45 0 45 -61v-549l123 -9q0 -84 -55 -84h-359v15q0 66 56 72l73 4v450l-79 -24q-33 -10 -56.5 20.5t-21.5 46.5z" />
<glyph unicode="&#xba;" horiz-adv-x="792" d="M87 948.5q-1 157.5 80 248.5t224.5 91t218 -91t74.5 -244.5t-81 -239.5t-226.5 -86t-217 82t-72.5 239.5zM254 954.5q0 -104.5 35 -162t97.5 -57.5t96 56.5t33.5 154.5q0 234 -129 234q-61 0 -97 -60.5t-36 -165z" />
<glyph unicode="&#xbb;" horiz-adv-x="1220" d="M49 117l363 383v16l-355 385l97 86l499 -424q16 -55 0 -108l-499 -424zM514 117l363 383v16l-353 385l97 86l499 -424q12 -55 0 -108l-499 -424z" />
<glyph unicode="&#xbc;" horiz-adv-x="1429" d="M59 1161l191 105q29 14 84 14q45 0 45 -61v-557l123 -9q-1 -86 -56 -86h-354v15q0 68 53 73l74 4v457l-80 -24q-33 -10 -57.5 20.5t-22.5 48.5zM279 0l729 1284h182l-729 -1284h-182zM768 205l356 502q72 14 133 8l3 -492h96v-94h-96v-145l-162 -11v156h-295 q-29 39 -35 76zM899 223h199v283z" />
<glyph unicode="&#xbd;" horiz-adv-x="1429" d="M39 1157l190 105q27 16 84 16q45 0 45 -61v-558l121 -8q0 -8 1 -27.5t-14 -39t-42 -19.5h-354v13q0 70 55 75l72 4v457l-80 -24q-33 -10 -56.5 20.5t-21.5 46.5zM254 0l727 1284h182l-727 -1284h-182zM838 82q6 4 59 47t72 59q111 98 130 124t48 65q49 68 49 127 t-24.5 90t-78 31t-83 -47.5t-29.5 -116.5q-125 -4 -125 90q0 72 71.5 119t185.5 47t181.5 -54.5t67.5 -142.5q0 -119 -106.5 -232.5t-225.5 -187.5h270l9 72q4 29 30.5 39t53.5 2v-213h-535q-25 59 -20 82z" />
<glyph unicode="&#xbe;" horiz-adv-x="1429" d="M63 680q0 31 24 52.5t69 21.5q2 -45 37.5 -75t94 -30t96.5 33t38 84q-2 133 -227 117v100q66 0 131 33t65 105.5t-84 72.5q-98 0 -108 -109q-96 2 -97 74q2 53 59.5 90t164 37t171 -43t64.5 -117q0 -121 -170 -168q96 -12 148.5 -61t52.5 -132t-80 -145.5t-203 -62.5 t-184.5 36t-61.5 87zM319 0l728 1284h182l-727 -1284h-183zM782 205l357 502q72 14 133 8l2 -492h96v-94h-96v-145l-162 -11v156h-295q-29 39 -35 76zM913 223h199v281z" />
<glyph unicode="&#xbf;" horiz-adv-x="1017" d="M88 290q0 165 124 286.5t302 156.5l12 238q51 12 140 0l12 -338q-371 -96 -371 -340q0 -94 57.5 -160.5t170 -66.5t176 91t63.5 181q68 0 112 -29.5t44 -91.5q0 -106 -110.5 -195.5t-306.5 -89.5t-310.5 96.5t-114.5 261.5zM455 1282q0 59 41 100t100 41t100 -41t41 -100 t-41 -101t-100 -42t-100 42t-41 101z" />
<glyph unicode="&#xc0;" d="M25 0v16q0 96 79 105l80 4l394 1272q78 8 178 0l389 -1268l139 -12q12 -117 -78 -117h-446v16q0 96 80 105l71 4l-90 328h-393l-94 -324l162 -12q12 -117 -80 -117h-391zM371 1714q16 37 62 78t89 47l342 -272q-23 -49 -78 -76zM463 575h323l-157 566z" />
<glyph unicode="&#xc1;" d="M25 0v16q0 96 79 105l80 4l394 1272q78 8 178 0l389 -1268l139 -12q12 -117 -78 -117h-446v16q0 96 80 105l71 4l-90 328h-393l-94 -324l162 -12q12 -117 -80 -117h-391zM463 575h323l-157 566zM500 1573l340 272q43 -6 88 -47t65 -78l-418 -223q-53 27 -75 76z" />
<glyph unicode="&#xc2;" d="M25 0v16q0 96 79 105l80 4l394 1272q78 8 178 0l389 -1268l139 -12q12 -117 -78 -117h-446v16q0 96 80 105l71 4l-90 328h-393l-94 -324l162 -12q12 -117 -80 -117h-391zM317 1548l279 254q74 18 145 0l273 -254q-31 -49 -70 -69l-280 176l-281 -176q-39 25 -66 69z M463 575h323l-157 566z" />
<glyph unicode="&#xc3;" d="M25 0v16q0 96 79 105l80 4l394 1272q78 8 178 0l389 -1268l139 -12q12 -117 -78 -117h-446v16q0 96 80 105l71 4l-90 328h-393l-94 -324l162 -12q12 -117 -80 -117h-391zM319 1565q18 111 76 175t130.5 64t157.5 -58t137 -58t86 28.5t46 75.5l66 -18q-37 -246 -225 -246 q-76 0 -164 53t-128 53t-71 -26.5t-43 -67.5zM463 575h323l-157 566z" />
<glyph unicode="&#xc4;" d="M25 0v16q0 96 79 105l80 4l394 1272q78 8 178 0l389 -1268l139 -12q12 -117 -78 -117h-446v16q0 96 80 105l71 4l-90 328h-393l-94 -324l162 -12q12 -117 -80 -117h-391zM342 1671q0 53 39 91t93 38t91 -38t37 -91t-37 -91t-91 -38t-93 38t-39 91zM463 575h323l-157 566z M715 1671q0 53 38 91t91 38t91 -38t38 -91t-38 -91t-92.5 -38t-91 38t-36.5 91z" />
<glyph unicode="&#xc5;" d="M25 0v16q0 96 79 105l80 4l394 1272q78 8 178 0l389 -1268l139 -12q12 -117 -78 -117h-446v16q0 96 80 105l71 4l-90 328h-393l-94 -324l162 -12q12 -117 -80 -117h-391zM463 575h323l-157 566zM479 1673q0 82 54.5 134.5t141.5 52.5t138 -50.5t49 -132.5t-55 -133 t-138 -51t-137.5 49t-52.5 131zM582 1675q0 -41 24.5 -65.5t65.5 -24.5t65.5 24.5t24.5 65.5t-24.5 64.5t-65.5 23.5t-65.5 -23.5t-24.5 -64.5z" />
<glyph unicode="&#xc6;" horiz-adv-x="1820" d="M25 0v16q0 96 79 105l80 4l621 1272l903 2v-303q0 -82 -117 -70l-18 238l-467 8v-522l377 36q20 -82 2 -182l-379 21v-496l508 16l18 238q117 12 117 -70v-313h-1010v25q0 45 12.5 59t20.5 22q18 14 47 15l72 4v487h-326l-229 -483l160 -12q12 -117 -80 -117h-391z M625 735h266v533l-12 2z" />
<glyph unicode="&#xc7;" horiz-adv-x="1200" d="M75 683q-3 327 168 535.5t488 208.5q174 0 284.5 -77.5t110.5 -188.5q0 -74 -46 -112.5t-128 -38.5q0 129 -62.5 197.5t-180.5 68.5q-197 0 -303.5 -159t-106.5 -426t103.5 -413.5t327.5 -146.5t380 125q31 -20 31 -59q0 -70 -121 -141.5t-293 -84.5l-14 -63 q86 0 128 -42t42 -110.5t-55.5 -117t-149.5 -48.5t-148 58q-2 23 6.5 47t18.5 31q39 -33 109.5 -33t70.5 65q0 35 -29.5 53.5t-115.5 18.5l37 141q-268 14 -408.5 199.5t-143.5 512.5z" />
<glyph unicode="&#xc8;" horiz-adv-x="1157" d="M84 0v25q0 45 12.5 59t20.5 22q18 14 47 15l72 4v1143l-148 12q-12 117 80 117h885v-301q0 -84 -117 -72l-18 240l-467 6v-522l376 36q20 -82 2 -182l-378 23v-496l501 16l19 238q115 12 114 -70v-313h-1001zM350 1714q16 37 62.5 78t89.5 47l342 -272q-23 -49 -78 -76z " />
<glyph unicode="&#xc9;" horiz-adv-x="1157" d="M84 0v25q0 45 12.5 59t20.5 22q18 14 47 15l72 4v1143l-148 12q-12 117 80 117h885v-301q0 -84 -117 -72l-18 240l-467 6v-522l376 36q20 -82 2 -182l-378 23v-496l501 16l19 238q115 12 114 -70v-313h-1001zM479 1573l340 272q43 -6 89.5 -47t64.5 -78l-418 -223 q-53 27 -76 76z" />
<glyph unicode="&#xca;" horiz-adv-x="1157" d="M84 0v25q0 45 12.5 59t20.5 22q18 14 47 15l72 4v1143l-148 12q-12 117 80 117h885v-301q0 -84 -117 -72l-18 240l-467 6v-522l376 36q20 -82 2 -182l-378 23v-496l501 16l19 238q115 12 114 -70v-313h-1001zM297 1548l278 254q74 18 146 0l272 -254q-29 -47 -67 -69 l-281 178l-283 -178q-39 25 -65 69z" />
<glyph unicode="&#xcb;" horiz-adv-x="1157" d="M84 0v25q0 45 12.5 59t20.5 22q18 14 47 15l72 4v1143l-148 12q-12 117 80 117h885v-301q0 -84 -117 -72l-18 240l-467 6v-522l376 36q20 -82 2 -182l-378 23v-496l501 16l19 238q115 12 114 -70v-313h-1001zM324 1671q0 53 37.5 91t92 38t91.5 -38t37 -91t-37 -91 t-91.5 -38t-92 38t-37.5 91zM694 1671q0 53 38 91t91.5 38t92 -38t38.5 -91t-37.5 -91t-93 -38t-92.5 38t-37 91z" />
<glyph unicode="&#xcc;" horiz-adv-x="686" d="M51 1714q16 37 62.5 78t89.5 47l342 -272q-23 -49 -78 -76zM84 0v16q0 96 80 105l72 4v1143l-148 12q-12 117 78 117h438v-17q0 -96 -80 -104l-73 -4v-1143h2l147 -12q12 -117 -80 -117h-436z" />
<glyph unicode="&#xcd;" horiz-adv-x="686" d="M84 0v16q0 96 80 105l72 4v1143l-148 12q-12 117 78 117h438v-17q0 -96 -80 -104l-73 -4v-1143h2l147 -12q12 -117 -80 -117h-436zM180 1573l340 272q43 -6 89.5 -47t64.5 -78l-418 -223q-53 25 -76 76z" />
<glyph unicode="&#xce;" horiz-adv-x="686" d="M-4 1548l280 254q74 18 144 0l274 -254q-31 -49 -69 -69l-281 176l-281 -176q-41 23 -67 69zM84 0v16q0 96 80 105l72 4v1143l-148 12q-12 117 78 117h438v-17q0 -96 -80 -104l-73 -4v-1143h2l147 -12q12 -117 -80 -117h-436z" />
<glyph unicode="&#xcf;" horiz-adv-x="686" d="M23 1671q0 53 38.5 91t92 38t91.5 -38t38 -91t-38 -91t-91.5 -38t-92 38t-38.5 91zM84 0v16q0 96 80 105l72 4v1143l-148 12q-12 117 78 117h438v-17q0 -96 -80 -104l-73 -4v-1143h2l147 -12q12 -117 -80 -117h-436zM393 1671q0 53 39 91t92.5 38t91 -38t37.5 -91 t-37.5 -91t-92 -38t-92.5 38t-38 91z" />
<glyph unicode="&#xd0;" horiz-adv-x="1454" d="M84 0q-4 115 68 119l81 8v500h-112v127h112v514l-145 12q-2 59 16.5 89t71.5 30h461q360 0 535.5 -170t175.5 -518.5t-183.5 -529.5t-521.5 -181h-559zM449 131l139 -6q274 -12 404 126t130 450.5t-134 447.5t-427 125l-110 -4h-2v-516h319v-127h-319v-496z" />
<glyph unicode="&#xd1;" horiz-adv-x="1413" d="M84 0v16q0 96 80 105l72 4v1143l-148 12q-12 117 78 117h250l667 -1010v881l-147 12q-12 117 80 117h358v-17q0 -96 -80 -104l-73 -4v-1247q-59 -27 -138 -27l-708 1071v-940l147 -12q12 -117 -78 -117h-360zM367 1565q18 111 75.5 175t130 64t157.5 -58t137.5 -58 t86 28.5t45.5 75.5l66 -18q-37 -246 -225 -246q-78 0 -166 53t-127 53t-70 -26.5t-43 -67.5z" />
<glyph unicode="&#xd2;" horiz-adv-x="1374" d="M75 682q-3 340 168 542.5t474 202.5q258 0 419.5 -177t162.5 -527t-168.5 -552t-479.5 -202q-270 0 -421.5 186.5t-154.5 526.5zM297 701.5q0 -279.5 96 -433t287 -155.5q197 2 297 152.5t100 430t-98 435t-291.5 154.5t-292 -152.5t-98.5 -431zM414 1714q16 37 62 78 t89 47l342 -272q-23 -49 -78 -76z" />
<glyph unicode="&#xd3;" horiz-adv-x="1374" d="M75 682q-3 340 168 542.5t474 202.5q258 0 419.5 -177t162.5 -527t-168.5 -552t-479.5 -202q-270 0 -421.5 186.5t-154.5 526.5zM297 701.5q0 -279.5 96 -433t287 -155.5q197 2 297 152.5t100 430t-98 435t-291.5 154.5t-292 -152.5t-98.5 -431zM541 1573l340 272 q43 -6 89 -47t64 -78l-416 -223q-55 27 -77 76z" />
<glyph unicode="&#xd4;" horiz-adv-x="1374" d="M75 682q-3 340 168 542.5t474 202.5q258 0 419.5 -177t162.5 -527t-168.5 -552t-479.5 -202q-270 0 -421.5 186.5t-154.5 526.5zM297 701.5q0 -279.5 96 -433t287 -155.5q197 2 297 152.5t100 430t-98 435t-291.5 154.5t-292 -152.5t-98.5 -431zM358 1548l281 254 q74 18 143 0l275 -254q-31 -49 -70 -69l-280 176l-281 -176q-41 23 -68 69z" />
<glyph unicode="&#xd5;" horiz-adv-x="1374" d="M75 682q-3 340 168 542.5t474 202.5q258 0 419.5 -177t162.5 -527t-168.5 -552t-479.5 -202q-270 0 -421.5 186.5t-154.5 526.5zM297 701.5q0 -279.5 96 -433t287 -155.5q197 2 297 152.5t100 430t-98 435t-291.5 154.5t-292 -152.5t-98.5 -431zM362 1565 q17 108 75.5 173.5t131 65.5t156.5 -58t137 -58t88 28.5t45 75.5l64 -18q-37 -246 -223 -246q-78 0 -166 53t-127 53t-70 -26.5t-43 -67.5z" />
<glyph unicode="&#xd6;" horiz-adv-x="1374" d="M75 682q-3 340 168 542.5t474 202.5q258 0 419.5 -177t162.5 -527t-168.5 -552t-479.5 -202q-270 0 -421.5 186.5t-154.5 526.5zM297 701.5q0 -279.5 96 -433t287 -155.5q197 2 297 152.5t100 430t-98 435t-291.5 154.5t-292 -152.5t-98.5 -431zM385 1671q0 53 39 91 t92 38t91 -38t38 -91t-38 -91t-91 -38t-92 38t-39 91zM756 1671q0 53 37.5 91t92 38t92.5 -38t38 -91t-38 -91t-92.5 -38t-92 38t-37.5 91z" />
<glyph unicode="&#xd7;" horiz-adv-x="894" d="M102 322l240 239l-240 240l105 104l239 -239l240 239l107 -106l-240 -240l238 -237l-105 -105l-237 238l-240 -240z" />
<glyph unicode="&#xd8;" horiz-adv-x="1421" d="M75.5 656.5q-3.5 365.5 167.5 568t474 202.5q160 0 284 -67l48 80l131 -66l-62 -104q180 -186 181 -541.5t-169 -557.5t-479 -202q-141 0 -254 54l-35 -60l-131 72l43 74q-195 182 -198.5 547.5zM297 709.5q0 -271.5 84 -418.5l532 915q-90 78 -227 78 q-193 0 -291 -151.5t-98 -423zM483 172q82 -59 197 -59q197 2 297 152.5t100 408.5t-69 403z" />
<glyph unicode="&#xd9;" horiz-adv-x="1351" d="M33 1280q-12 117 78 117h436v-17q0 -96 -80 -104l-72 -4l-2 -731q0 -223 71 -325.5t228 -102.5q336 0 336 409l-2 746l-145 12q-13 117 77 117h365v-17q0 -96 -80 -104l-72 -4v-707q0 -596 -509 -596q-240 0 -361 140.5t-121 447.5v711zM391 1714q16 37 62.5 78t89.5 47 l342 -272q-23 -49 -78 -76z" />
<glyph unicode="&#xda;" horiz-adv-x="1351" d="M33 1280q-12 117 78 117h436v-17q0 -96 -80 -104l-72 -4l-2 -731q0 -223 71 -325.5t228 -102.5q336 0 336 409l-2 746l-145 12q-13 117 77 117h365v-17q0 -96 -80 -104l-72 -4v-707q0 -596 -509 -596q-240 0 -361 140.5t-121 447.5v711zM520 1573l340 272q43 -6 89.5 -47 t62.5 -78l-416 -223q-53 25 -76 76z" />
<glyph unicode="&#xdb;" horiz-adv-x="1351" d="M33 1280q-12 117 78 117h436v-17q0 -96 -80 -104l-72 -4l-2 -731q0 -223 71 -325.5t228 -102.5q336 0 336 409l-2 746l-145 12q-13 117 77 117h365v-17q0 -96 -80 -104l-72 -4v-707q0 -596 -509 -596q-240 0 -361 140.5t-121 447.5v711zM336 1548l280 254q74 18 144 0 l274 -254q-31 -49 -69 -69l-281 176l-281 -176q-41 23 -67 69z" />
<glyph unicode="&#xdc;" horiz-adv-x="1351" d="M33 1280q-12 117 78 117h436v-17q0 -96 -80 -104l-72 -4l-2 -731q0 -223 71 -325.5t228 -102.5q336 0 336 409l-2 746l-145 12q-13 117 77 117h365v-17q0 -96 -80 -104l-72 -4v-707q0 -596 -509 -596q-240 0 -361 140.5t-121 447.5v711zM362 1671q0 53 39 91t92.5 38 t91.5 -38t38 -91t-38 -91t-91.5 -38t-92.5 38t-39 91zM733 1671q0 53 39 91t92.5 38t91 -38t37.5 -91t-37.5 -91t-92 -38t-92.5 38t-38 91z" />
<glyph unicode="&#xdd;" horiz-adv-x="1267" d="M6 1280q-12 119 78 119h453v-15q0 -74 -43 -98q-16 -8 -37 -8l-76 -6h-2l301 -543l293 539l-152 12q-12 119 78 119h363v-15q0 -98 -80 -106l-47 -6l-392 -694v-449h2l148 -12q12 -117 -80 -117h-438v16q0 96 80 105l73 4v448l-397 695zM496 1573l342 272q43 -6 89 -47 t62 -78l-416 -223q-55 27 -77 76z" />
<glyph unicode="&#xde;" horiz-adv-x="1212" d="M84 0v16q0 96 80 105l72 4v1143l-148 12q-12 119 78 119h438v-15q0 -74 -43 -98q-16 -8 -37 -8l-73 -6v-131h139q258 0 396 -108.5t138 -310.5t-154.5 -313.5t-424.5 -111.5h-94v-168h2l147 -12q12 -117 -80 -117h-436zM451 412h61q188 0 287.5 80.5t99.5 232.5 q0 301 -346 301h-102v-614z" />
<glyph unicode="&#xdf;" horiz-adv-x="1300" d="M74 0v16q0 49 14 66q27 33 68 37l71 2v799q0 285 128 423t354 138q172 -2 273 -72t101 -197q0 -123 -102 -215q-43 -39 -84 -71q-102 -82 -102 -138q0 -59 84 -112q43 -29 125 -70q129 -59 188 -127.5t59 -167.5q0 -137 -103.5 -239.5t-275.5 -102.5q-127 0 -226 53.5 t-99 151.5q0 61 43 96t102 35q12 -88 70.5 -143.5t138.5 -55.5t126 42t46 101.5t-44 97.5t-119.5 78t-104.5 56.5t-74 48t-67 60.5q-57 74 -57.5 149.5t29.5 129t73 91t86 72.5q102 82 102 172q0 137 -178 137q-283 0 -283 -419v-922h-362z" />
<glyph unicode="&#xe0;" horiz-adv-x="1052" d="M74 250q0 131 99 217t321 86q96 0 188 -16v114q0 260 -203 260q-82 0 -130 -55t-52 -139q-70 -6 -116 24.5t-46 94.5q0 94 97.5 155.5t264.5 61.5t280.5 -90.5t113.5 -298.5v-566l135 -16q0 -113 -148.5 -113t-183.5 113q-133 -113 -290.5 -113t-243.5 75t-86 206z M201 1339q16 37 62 78t89 47l342 -272q-23 -49 -78 -76zM295 271.5q0 -74.5 43 -115.5t140 -41t204 75v203q-82 35 -179 35t-152.5 -41t-55.5 -115.5z" />
<glyph unicode="&#xe1;" horiz-adv-x="1052" d="M74 250q0 131 99 217t321 86q96 0 188 -16v114q0 260 -203 260q-82 0 -130 -55t-52 -139q-70 -6 -116 24.5t-46 94.5q0 94 97.5 155.5t264.5 61.5t280.5 -90.5t113.5 -298.5v-566l135 -16q0 -113 -148.5 -113t-183.5 113q-133 -113 -290.5 -113t-243.5 75t-86 206z M295 271.5q0 -74.5 43 -115.5t140 -41t204 75v203q-82 35 -179 35t-152.5 -41t-55.5 -115.5zM330 1192l342 272q43 -6 89 -47t62 -78l-415 -223q-55 27 -78 76z" />
<glyph unicode="&#xe2;" horiz-adv-x="1052" d="M74 250q0 131 99 217t321 86q96 0 188 -16v114q0 260 -203 260q-82 0 -130 -55t-52 -139q-70 -6 -116 24.5t-46 94.5q0 94 97.5 155.5t264.5 61.5t280.5 -90.5t113.5 -298.5v-566l135 -16q0 -113 -148.5 -113t-183.5 113q-133 -113 -290.5 -113t-243.5 75t-86 206z M147 1174l279 253q76 18 145 0l275 -253q-35 -51 -70 -70l-280 178l-283 -178q-39 25 -66 70zM295 271.5q0 -74.5 43 -115.5t140 -41t204 75v203q-82 35 -179 35t-152.5 -41t-55.5 -115.5z" />
<glyph unicode="&#xe3;" horiz-adv-x="1052" d="M74 250q0 131 99 217t321 86q96 0 188 -16v114q0 260 -203 260q-82 0 -130 -55t-52 -139q-70 -6 -116 24.5t-46 94.5q0 94 97.5 155.5t264.5 61.5t280.5 -90.5t113.5 -298.5v-566l135 -16q0 -113 -148.5 -113t-183.5 113q-133 -113 -290.5 -113t-243.5 75t-86 206z M150 1194q20 109 78.5 172.5t131 61t155.5 -61.5t138 -59q104 -2 133 102l64 -20q-39 -246 -227 -242q-78 2 -166 56t-126 55.5t-70 -25.5t-44 -66zM295 271.5q0 -74.5 43 -115.5t140 -41t204 75v203q-82 35 -179 35t-152.5 -41t-55.5 -115.5z" />
<glyph unicode="&#xe4;" horiz-adv-x="1052" d="M74 250q0 131 99 217t321 86q96 0 188 -16v114q0 260 -203 260q-82 0 -130 -55t-52 -139q-70 -6 -116 24.5t-46 94.5q0 94 97.5 155.5t264.5 61.5t280.5 -90.5t113.5 -298.5v-566l135 -16q0 -113 -148.5 -113t-183.5 113q-133 -113 -290.5 -113t-243.5 75t-86 206z M174 1296.5q0 53.5 39 91t92 37.5t91 -37.5t38 -91t-38 -91.5t-91 -38t-92 38t-39 91.5zM295 271.5q0 -74.5 43 -115.5t140 -41t204 75v203q-82 35 -179 35t-152.5 -41t-55.5 -115.5zM545 1295.5q0 52.5 39 91t92 38.5t91 -37.5t38 -91t-38 -91.5t-92 -38t-92 38t-38 90.5z " />
<glyph unicode="&#xe5;" horiz-adv-x="1052" d="M74 250q0 131 99 217t321 86q96 0 188 -16v114q0 260 -203 260q-82 0 -130 -55t-52 -139q-70 -6 -116 24.5t-46 94.5q0 94 97.5 155.5t264.5 61.5t280.5 -90.5t113.5 -298.5v-566l135 -16q0 -113 -148.5 -113t-183.5 113q-133 -113 -290.5 -113t-243.5 75t-86 206z M295 271.5q0 -74.5 43 -115.5t140 -41t204 75v203q-82 35 -179 35t-152.5 -41t-55.5 -115.5zM311 1298.5q0 81.5 53.5 134t140.5 52.5t138 -50.5t50 -132t-55 -133t-139 -51.5t-136.5 49.5t-51.5 131zM414 1300q0 -41 23.5 -65.5t64.5 -24.5t65.5 25t24.5 65.5t-24.5 64.5 t-65.5 24q-88 0 -88 -89z" />
<glyph unicode="&#xe6;" horiz-adv-x="1597" d="M74 250q0 131 99 217t323 86q86 0 186 -18v116q0 260 -195 260q-94 0 -141 -57t-49 -137q-70 -6 -116 23.5t-46 93.5q0 94 98.5 156.5t253.5 62.5q250 0 336 -150q129 150 332 150t293 -122t86 -304v-111h-631v-39q0 -168 64.5 -259t219 -91t292.5 111q35 -25 34 -74 q0 -66 -112.5 -130.5t-270.5 -64.5q-244 0 -358 166q-158 -166 -381 -166q-143 0 -230 75t-87 206zM295 268q0 -154 170 -153q117 0 217 80v196q-80 37 -177 37t-153.5 -41t-56.5 -119zM915 639h414q-6 272 -184 272q-186 0 -230 -272z" />
<glyph unicode="&#xe7;" horiz-adv-x="952" d="M76 479q-2 260 133 417t364 157q141 0 228.5 -59.5t87.5 -147.5t-47 -121t-107 -27q-2 82 -49 145.5t-141 63.5q-121 0 -186.5 -105.5t-65.5 -281.5q0 -391 303 -391q137 0 270 109q16 -10 26.5 -34t10.5 -40q0 -59 -106.5 -123t-245.5 -72l-14 -61q84 0 126 -42 t42 -110.5t-55.5 -117t-148.5 -48.5t-147 58q-2 23 6.5 47t18.5 31q39 -33 109.5 -33t70.5 65q0 35 -29.5 53.5t-115.5 18.5l39 143q-178 20 -277.5 156.5t-99.5 349.5z" />
<glyph unicode="&#xe8;" horiz-adv-x="991" d="M76 487.5q0 262.5 133 414t334.5 151.5t294 -121t90.5 -305v-111h-633v-39q0 -170 65.5 -260t218 -90t291.5 111q35 -25 35 -74q0 -66 -112.5 -130.5t-270.5 -64.5q-211 0 -328.5 128t-117.5 390.5zM260 1339q16 37 62.5 78t89.5 47l342 -272q-23 -49 -78 -76zM307 639 h414q-6 272 -184 272q-186 0 -230 -272z" />
<glyph unicode="&#xe9;" horiz-adv-x="991" d="M76 487.5q0 262.5 133 414t334.5 151.5t294 -121t90.5 -305v-111h-633v-39q0 -170 65.5 -260t218 -90t291.5 111q35 -25 35 -74q0 -66 -112.5 -130.5t-270.5 -64.5q-211 0 -328.5 128t-117.5 390.5zM307 639h414q-6 272 -184 272q-186 0 -230 -272zM387 1192l342 272 q43 -6 89.5 -47t62.5 -78l-416 -223q-55 27 -78 76z" />
<glyph unicode="&#xea;" horiz-adv-x="991" d="M76 487.5q0 262.5 133 414t334.5 151.5t294 -121t90.5 -305v-111h-633v-39q0 -170 65.5 -260t218 -90t291.5 111q35 -25 35 -74q0 -66 -112.5 -130.5t-270.5 -64.5q-211 0 -328.5 128t-117.5 390.5zM207 1174l278 253q74 18 146 0l272 -253q-29 -47 -67 -70l-281 178 l-283 -178q-39 25 -65 70zM307 639h414q-6 272 -184 272q-186 0 -230 -272z" />
<glyph unicode="&#xeb;" horiz-adv-x="991" d="M76 487.5q0 262.5 133 414t334.5 151.5t294 -121t90.5 -305v-111h-633v-39q0 -170 65.5 -260t218 -90t291.5 111q35 -25 35 -74q0 -66 -112.5 -130.5t-270.5 -64.5q-211 0 -328.5 128t-117.5 390.5zM233 1296.5q0 53.5 39 91t92.5 37.5t91.5 -37.5t38 -91t-38 -91.5 t-91.5 -38t-92.5 38t-39 91.5zM307 639h414q-6 272 -184 272q-186 0 -230 -272zM604 1295.5q0 52.5 38 91t92 38.5t92 -37.5t38 -91t-38 -91.5t-92 -38t-92 38t-38 90.5z" />
<glyph unicode="&#xec;" horiz-adv-x="630" d="M20 1339q16 37 62.5 78t89.5 47l342 -272q-23 -49 -78 -76zM74 1012l364 41v-926l150 -12q12 -115 -78 -115h-432v16q0 94 80 103l71 4v768l-90 10q-66 6 -65 111z" />
<glyph unicode="&#xed;" horiz-adv-x="630" d="M74 1012l364 41v-926l150 -12q12 -115 -78 -115h-432v16q0 94 80 103l71 4v768l-90 10q-66 6 -65 111zM150 1192l342 272q43 -6 89 -47t62 -78l-416 -223q-55 27 -77 76z" />
<glyph unicode="&#xee;" horiz-adv-x="630" d="M-33 1174l279 253q73 18 145 0l273 -253q-29 -47 -68 -70l-281 178l-282 -178q-39 25 -66 70zM74 1012l364 41v-926l150 -12q12 -115 -78 -115h-432v16q0 94 80 103l71 4v768l-90 10q-66 6 -65 111z" />
<glyph unicode="&#xef;" horiz-adv-x="630" d="M-6 1296.5q0 53.5 39 91t92 37.5t91 -37.5t38 -91t-38 -91.5t-91 -38t-92 38t-39 91.5zM74 1012l364 41v-926l150 -12q12 -115 -78 -115h-432v16q0 94 80 103l71 4v768l-90 10q-66 6 -65 111zM365 1295.5q0 52.5 38.5 91t92 38.5t91.5 -37.5t38 -91t-38 -91.5t-92.5 -38 t-92 38t-37.5 90.5z" />
<glyph unicode="&#xf0;" horiz-adv-x="1107" d="M76 444.5q-4 225.5 127 382t372 156.5q94 0 168 -29q-59 129 -168 220l-196 -130l-62 105l152 96q-109 61 -227 80l63 113q156 -25 301 -103l170 109l62 -96l-123 -82q317 -234 317 -666q0 -287 -139 -459t-379 -172q-203 0 -318.5 125t-119.5 350.5zM293 456 q0 -155 59 -242t170 -87q137 0 214 128t77 345q0 70 -10 141q-104 96 -246 97q-150 0 -211 -121q-53 -106 -53 -261z" />
<glyph unicode="&#xf1;" horiz-adv-x="1302" d="M74 1004l332 40l18 -137h6q158 145 315.5 145.5t263 -101t105.5 -314.5v-510l143 -12q13 -115 -77 -115h-426v16q0 94 80 103l71 4v514q0 242 -198 242q-82 0 -141.5 -26t-127.5 -85v-641l146 -12q12 -115 -78 -115h-430v16q0 49 14 66q27 33 68 37l71 4v760l-90 10 q-66 6 -65 111zM338 1194q18 109 76.5 172.5t131 61t156.5 -61.5t138 -59q104 -2 133 102l63 -20q-35 -246 -227 -242q-78 2 -166 56t-126 55.5t-69 -24.5t-45 -67z" />
<glyph unicode="&#xf2;" horiz-adv-x="1083" d="M75 492q-1 256 127 408.5t343 152.5t339 -134.5t125 -393.5t-127 -407.5t-352.5 -148.5t-339 133.5t-115.5 389.5zM254 1339q16 37 62 78t90 47l342 -272q-23 -49 -78 -76zM293 506q0 -184 63.5 -293t183 -108t185.5 106.5t66 290t-63.5 299t-183.5 113.5t-185.5 -112.5 t-65.5 -295.5z" />
<glyph unicode="&#xf3;" horiz-adv-x="1083" d="M75 492q-1 256 127 408.5t343 152.5t339 -134.5t125 -393.5t-127 -407.5t-352.5 -148.5t-339 133.5t-115.5 389.5zM293 506q0 -184 63.5 -293t183 -108t185.5 106.5t66 290t-63.5 299t-183.5 113.5t-185.5 -112.5t-65.5 -295.5zM383 1192l342 272q43 -6 89.5 -47 t62.5 -78l-416 -223q-55 27 -78 76z" />
<glyph unicode="&#xf4;" horiz-adv-x="1083" d="M75 492q-1 256 127 408.5t343 152.5t339 -134.5t125 -393.5t-127 -407.5t-352.5 -148.5t-339 133.5t-115.5 389.5zM201 1174l278 253q74 18 146 0l272 -253q-29 -47 -68 -70l-280 178l-283 -178q-39 25 -65 70zM293 506q0 -184 63.5 -293t183 -108t185.5 106.5t66 290 t-63.5 299t-183.5 113.5t-185.5 -112.5t-65.5 -295.5z" />
<glyph unicode="&#xf5;" horiz-adv-x="1083" d="M75 492q-1 256 127 408.5t343 152.5t339 -134.5t125 -393.5t-127 -407.5t-352.5 -148.5t-339 133.5t-115.5 389.5zM203 1194q20 109 78.5 172.5t131 61t155.5 -61.5t135.5 -60t88 27.5t46.5 75.5l65 -20q-39 -246 -229 -242q-78 2 -165 56t-125 55.5t-70 -25.5t-44 -66z M293 506q0 -184 63.5 -293t183 -108t185.5 106.5t66 290t-63.5 299t-183.5 113.5t-185.5 -112.5t-65.5 -295.5z" />
<glyph unicode="&#xf6;" horiz-adv-x="1083" d="M75 492q-1 256 127 408.5t343 152.5t339 -134.5t125 -393.5t-127 -407.5t-352.5 -148.5t-339 133.5t-115.5 389.5zM227 1296.5q0 53.5 39 91t92.5 37.5t91 -37.5t37.5 -91t-37.5 -91.5t-91 -38t-92.5 38t-39 91.5zM293 506q0 -184 63.5 -293t183 -108t185.5 106.5t66 290 t-63.5 299t-183.5 113.5t-185.5 -112.5t-65.5 -295.5zM598 1295.5q0 52.5 39 91t92 38.5t91 -37.5t38 -91t-38 -91.5t-92 -38t-92 38t-38 90.5z" />
<glyph unicode="&#xf7;" horiz-adv-x="1017" d="M102 489v146h813v-146h-813zM367 223.5q0 59.5 42 101.5t101 42t100 -42t41 -101.5t-41 -100.5t-100 -41t-101 41t-42 100.5zM367 903.5q0 59.5 42 100t101 40.5t100 -40.5t41 -100t-41 -101.5t-100 -42t-101 42t-42 101.5z" />
<glyph unicode="&#xf8;" horiz-adv-x="1083" d="M75 481.5q-1 266.5 127 419t359 152.5q106 0 193 -39l30 55l131 -65l-43 -74q135 -137 136.5 -400.5t-127 -412t-361.5 -148.5q-104 0 -184 31l-25 -43l-129 72l29 51q-135 135 -136 401.5zM293 529.5q0 -160.5 33 -250.5l344 591q-55 45 -127 45q-119 -2 -184.5 -113.5 t-65.5 -272zM420 143q49 -37 121 -37q119 0 184.5 105.5t65.5 264.5t-33 255z" />
<glyph unicode="&#xf9;" horiz-adv-x="1208" d="M25 899v19q0 104 77 104h283v-629q0 -262 215 -262q117 0 223 86v678l-157 4v25q0 49 12 63l18 21q14 14 45 14h291v-893l66 -4q61 -2 61 -113l-274 -26l-37 112q-145 -129 -300 -129t-263.5 103.5t-108.5 320.5v502zM297 1339q16 37 62.5 78t89.5 47l342 -272 q-23 -49 -78 -76z" />
<glyph unicode="&#xfa;" horiz-adv-x="1208" d="M25 899v19q0 104 77 104h283v-629q0 -262 215 -262q117 0 223 86v678l-157 4v25q0 49 12 63l18 21q14 14 45 14h291v-893l66 -4q61 -2 61 -113l-274 -26l-37 112q-145 -129 -300 -129t-263.5 103.5t-108.5 320.5v502zM424 1192l342 272q43 -6 89.5 -47t62.5 -78 l-416 -223q-55 27 -78 76z" />
<glyph unicode="&#xfb;" horiz-adv-x="1208" d="M25 899v19q0 104 77 104h283v-629q0 -262 215 -262q117 0 223 86v678l-157 4v25q0 49 12 63l18 21q14 14 45 14h291v-893l66 -4q61 -2 61 -113l-274 -26l-37 112q-145 -129 -300 -129t-263.5 103.5t-108.5 320.5v502zM242 1174l280 253q74 18 144 0l274 -253 q-31 -49 -70 -70l-280 176l-281 -176q-41 23 -67 70z" />
<glyph unicode="&#xfc;" horiz-adv-x="1208" d="M25 899v19q0 104 77 104h283v-629q0 -262 215 -262q117 0 223 86v678l-157 4v25q0 49 12 63l18 21q14 14 45 14h291v-893l66 -4q61 -2 61 -113l-274 -26l-37 112q-145 -129 -300 -129t-263.5 103.5t-108.5 320.5v502zM268 1296.5q0 53.5 39 91t92.5 37.5t91 -37.5 t37.5 -91t-37.5 -91.5t-91 -38t-92.5 38t-39 91.5zM639 1295.5q0 52.5 39 91t92 38.5t91 -37.5t38 -91t-38 -91.5t-92 -38t-92 38t-38 90.5z" />
<glyph unicode="&#xfd;" horiz-adv-x="1064" d="M6 907q-12 115 78 115h393v-14q0 -88 -80 -105l-43 -4l230 -577l221 573l-105 12q-12 115 78 115h285v-18q0 -88 -80 -101l-14 -2l-342 -838h2q-111 -262 -156 -337q-117 -190 -256 -193q-80 0 -126 39t-46 94t32 89t70.5 34t49.5 -4q-10 -27 0 -62.5t47 -35.5 q55 0 122.5 126t112.5 259l-360 823h-6zM410 1192l342 272q43 -6 89 -47t62 -78l-416 -223q-55 27 -77 76z" />
<glyph unicode="&#xfe;" horiz-adv-x="1171" d="M25 1407l362 41v-516q139 121 304 121t284 -122t123 -380t-126 -420t-374 -162q-115 0 -211 43v-329l150 -13q12 -115 -80 -114h-430v14q0 96 79 104l72 4v1610l-96 12q-57 6 -57 107zM387 203q106 -88 239.5 -88t193 112.5t59.5 286.5t-65.5 278.5t-186.5 104.5 t-240 -106v-588z" />
<glyph unicode="&#xff;" horiz-adv-x="1064" d="M6 907q-12 115 78 115h393v-14q0 -88 -80 -105l-43 -4l230 -577l221 573l-105 12q-12 115 78 115h285v-18q0 -88 -80 -101l-14 -2l-342 -838h2q-111 -262 -156 -337q-117 -190 -256 -193q-80 0 -126 39t-46 94t32 89t70.5 34t49.5 -4q-10 -27 0 -62.5t47 -35.5 q55 0 122.5 126t112.5 259l-360 823h-6zM254 1296.5q0 53.5 39 91t92 37.5t91 -37.5t38 -91t-38 -91.5t-91 -38t-92 38t-39 91.5zM625 1295.5q0 52.5 37.5 91t92 38.5t92.5 -37.5t38 -91t-38 -91.5t-92.5 -38t-92 38t-37.5 90.5z" />
<glyph unicode="&#x152;" horiz-adv-x="1861" d="M75 682q-3 330 166 539t486 209q115 0 213 -31h809v-303q0 -82 -115 -70l-20 238l-465 8v-522l377 36q18 -92 2 -182l-379 21v-496l508 16l18 238q115 12 115 -70v-313h-907q-100 -31 -221 -31q-268 0 -426 191.5t-161 521.5zM299 702q0 -291 86 -440t305 -151 q154 2 244 86v1020q-92 72 -238 71q-397 -2 -397 -586z" />
<glyph unicode="&#x153;" horiz-adv-x="1703" d="M75 492q-1 256 126 408.5t359.5 152.5t348.5 -183q137 182 365 183q186 0 278.5 -121t87.5 -305v-111h-630v-39q0 -170 65.5 -260t216 -90t293.5 111q35 -25 35 -74q0 -66 -112.5 -130.5t-270.5 -64.5q-229 0 -350 170q-135 -170 -358.5 -170t-338 133.5t-115.5 389.5z M293 505.5q0 -186.5 63.5 -295t183 -107.5t184 107.5t64.5 292t-64.5 300.5t-182 113.5t-183 -113t-65.5 -298zM1022 639h414q-7 272 -185 272q-186 0 -229 -272z" />
<glyph unicode="&#x178;" horiz-adv-x="1267" d="M6 1280q-12 119 78 119h453v-15q0 -74 -43 -98q-16 -8 -37 -8l-76 -6h-2l301 -543l293 539l-152 12q-12 119 78 119h363v-15q0 -98 -80 -106l-47 -6l-392 -694v-449h2l148 -12q12 -117 -80 -117h-438v16q0 96 80 105l73 4v448l-397 695zM340 1671q0 53 39 91t92 38 t91 -38t38 -91t-38 -91t-91 -38t-92 38t-39 91zM711 1671q0 53 37.5 91t92 38t92.5 -38t38 -91t-38 -91t-92.5 -38t-92 38t-37.5 91z" />
<glyph unicode="&#x2c6;" horiz-adv-x="1228" d="M203 1174l278 253q74 18 146 0l272 -253q-29 -47 -68 -70l-280 178l-283 -178q-39 25 -65 70z" />
<glyph unicode="&#x2dc;" horiz-adv-x="1085" d="M170 1194q18 109 76.5 172.5t131.5 61t155.5 -61.5t138.5 -59q104 -2 133 102l63 -20q-37 -246 -227 -242q-78 2 -166 56t-126 55.5t-69.5 -25.5t-43.5 -66z" />
<glyph unicode="&#x2000;" horiz-adv-x="930" />
<glyph unicode="&#x2001;" horiz-adv-x="1860" />
<glyph unicode="&#x2002;" horiz-adv-x="930" />
<glyph unicode="&#x2003;" horiz-adv-x="1860" />
<glyph unicode="&#x2004;" horiz-adv-x="620" />
<glyph unicode="&#x2005;" horiz-adv-x="465" />
<glyph unicode="&#x2006;" horiz-adv-x="310" />
<glyph unicode="&#x2007;" horiz-adv-x="310" />
<glyph unicode="&#x2008;" horiz-adv-x="232" />
<glyph unicode="&#x2009;" horiz-adv-x="372" />
<glyph unicode="&#x200a;" horiz-adv-x="103" />
<glyph unicode="&#x2010;" horiz-adv-x="815" d="M88 453v159h639v-159h-639z" />
<glyph unicode="&#x2011;" horiz-adv-x="815" d="M88 453v159h639v-159h-639z" />
<glyph unicode="&#x2012;" horiz-adv-x="815" d="M88 453v159h639v-159h-639z" />
<glyph unicode="&#x2013;" horiz-adv-x="1058" d="M88 471v145h883v-145h-883z" />
<glyph unicode="&#x2014;" horiz-adv-x="1699" d="M88 473v145h1524v-145h-1524z" />
<glyph unicode="&#x2018;" horiz-adv-x="471" d="M96 1082q0 81 70 186.5t147 138.5q12 8 33 -10.5t21 -32.5q-82 -55 -111 -166q53 -6 86 -45t33 -97.5t-38 -96t-100.5 -37.5t-101.5 39.5t-39 120.5z" />
<glyph unicode="&#x2019;" horiz-adv-x="471" d="M96 1275q0 58 38 96t100.5 38t101.5 -40t39 -121t-69.5 -186.5t-147.5 -137.5q-12 -8 -34 11t-22 32q80 57 113 166q-53 6 -86 45t-33 97z" />
<glyph unicode="&#x201a;" horiz-adv-x="473" d="M96 113.5q0 58.5 38 97.5t101.5 39t102.5 -40t39 -125t-70.5 -192.5t-148.5 -140.5q-12 -6 -34 12.5t-22 30.5q82 57 113 174q-53 6 -86 46t-33 98.5z" />
<glyph unicode="&#x201c;" horiz-adv-x="786" d="M96 1082q0 81 70 186.5t147 138.5q12 8 33 -10.5t21 -32.5q-82 -55 -111 -166q53 -6 86 -45t33 -97.5t-38 -96t-100.5 -37.5t-101.5 39.5t-39 120.5zM412 1082q0 81 69.5 186.5t147.5 138.5q12 8 32.5 -10.5t20.5 -32.5q-82 -59 -111 -166q54 -6 86.5 -45t32.5 -96.5 t-38 -96t-100.5 -38.5t-101 39.5t-38.5 120.5z" />
<glyph unicode="&#x201d;" horiz-adv-x="786" d="M96 1275q0 58 38 96t100.5 38t101.5 -40t39 -121t-69.5 -186.5t-147.5 -137.5q-12 -8 -34 11t-22 32q80 57 113 166q-53 6 -86 45t-33 97zM412 1275q0 58 37.5 96t100 38t101.5 -40t39 -122t-70.5 -186.5t-148.5 -136.5q-10 -8 -31.5 11t-21.5 32q80 57 112 166 q-53 6 -85.5 45t-32.5 97z" />
<glyph unicode="&#x201e;" horiz-adv-x="786" d="M96 113.5q0 58.5 38 96.5t100.5 38t101.5 -40t39 -121t-69.5 -187.5t-147.5 -139.5q-12 -6 -34 12.5t-22 30.5q78 57 113 168q-53 6 -86 45t-33 97.5zM412 113.5q0 58.5 37.5 96.5t100 38t101.5 -40t39 -122t-70.5 -187.5t-148.5 -138.5q-10 -6 -31.5 12.5t-21.5 30.5 q78 57 112 168q-53 6 -85.5 45t-32.5 97.5z" />
<glyph unicode="&#x2022;" horiz-adv-x="962" d="M258 720q0 93 65.5 158.5t158.5 65.5t158 -65.5t65 -158.5t-63.5 -157.5t-158 -64.5t-160 64.5t-65.5 157.5z" />
<glyph unicode="&#x2026;" horiz-adv-x="1769" d="M147 110.5q0 59.5 41 101.5t100.5 42t100.5 -42t41 -101.5t-41 -100.5t-100.5 -41t-100.5 41t-41 100.5zM727 110.5q0 59.5 42 101.5t101.5 42t100.5 -42t41 -100.5t-41 -100.5t-100.5 -42t-101.5 41t-42 100.5zM1309 111.5q0 58.5 41 100.5t100 42t101 -42t42 -101.5 t-42 -100.5t-100 -41t-100 42t-42 100.5z" />
<glyph unicode="&#x202f;" horiz-adv-x="372" />
<glyph unicode="&#x2039;" horiz-adv-x="755" d="M102 455q-16 53 0 108l500 424l96 -86l-354 -385v-16l363 -383l-105 -86z" />
<glyph unicode="&#x203a;" horiz-adv-x="755" d="M49 117l363 383v16l-355 385l97 86l499 -424q16 -55 0 -108l-499 -424z" />
<glyph unicode="&#x205f;" horiz-adv-x="465" />
<glyph unicode="&#x20ac;" horiz-adv-x="1103" d="M70 434v123h112v49q0 37 2 56h-114v124h127q39 231 174 364.5t344 133.5q147 0 237 -65.5t90 -165.5q0 -68 -43 -105t-114 -37q0 106 -53.5 172t-155 66t-178 -97.5t-101.5 -265.5h367v-124h-379v-35q0 -47 2 -70h377v-123h-363q31 -156 113 -240.5t216 -84.5t280 114 q27 -16 26 -55q0 -80 -109.5 -140.5t-252.5 -60.5q-197 0 -320 125t-159 342h-125z" />
<glyph unicode="&#x2122;" horiz-adv-x="1615" d="M100 1253v144h574v-144q0 -39 -78 -39l-8 101h-125v-467l82 -4q0 -6 1 -22.5t-9.5 -34t-30.5 -17.5h-281q4 49 14.5 62.5t26.5 13.5l43 2v467h-125l-8 -101q-76 0 -76 39zM678 770q0 74 39 76l51 2l37 471l-86 4q0 74 39 74h182l160 -350l143 350h197q27 0 35 -28t4 -46 l-84 -4l37 -469l84 -6q0 -74 -39 -74h-248q0 74 39 76l35 2l-27 391l-154 -369q-39 -8 -82 -4l-153 336l-25 -352l78 -6q0 -6 1 -22.5t-10 -34t-30 -17.5h-223z" />
<glyph unicode="&#x25fc;" horiz-adv-x="1024" d="M0 0v1024h1024v-1024h-1024z" />
<glyph unicode="&#xfb01;" horiz-adv-x="1251" d="M74 0v16q0 94 80 103l69 4v774h-145q0 125 86 125h59v49q-2 188 100.5 298t258.5 114q80 0 132 -32t52 -94.5t-39 -92t-98 -29.5q-2 123 -78 123q-119 0 -119 -258v-78h221q6 -57 -19.5 -91t-64.5 -34h-137v-770l205 -12q10 -115 -78 -115h-485zM694 1012l365 41v-926 l149 -12q12 -115 -80 -115h-432v16q0 49 15 66q27 33 67 37l72 4v768l-90 10q-74 6 -66 111zM805 1302.5q0 57.5 38 95.5t95 38t94 -38t37 -95.5t-37 -95.5t-94 -38t-95 38t-38 95.5z" />
<glyph unicode="&#xfb02;" horiz-adv-x="1247" d="M74 0v16q0 94 80 103l69 4v774h-145q0 125 84 125h61v63q0 176 97.5 286t252 111t197.5 -65l289 33v-1323l145 -12q12 -115 -80 -115h-428v16q0 94 80 103l74 4v1165l-74 6q-33 -59 -125 -59q0 61 -28.5 92t-71.5 31q-119 0 -119 -250v-86h258q10 -125 -82 -125h-176 v-770l205 -12q10 -115 -78 -115h-485z" />
<glyph unicode="&#xfb03;" horiz-adv-x="1875" d="M76 0v16q0 94 80 103l69 4v774h-145q0 125 84 125h61v63q0 176 97.5 286t261.5 112q207 0 207 -129q0 -59 -38 -89t-100 -30q0 61 -28.5 92t-71.5 31q-119 0 -119 -250v-86h416v49q-2 188 100.5 298t257.5 114q80 0 132.5 -32t52.5 -94.5t-39 -92t-99 -29.5 q-2 123 -79 123q-119 0 -119 -258v-78h223q4 -29 -6 -61q-21 -64 -80 -64h-137v-770l207 -12q10 -115 -78 -115h-486v16q0 94 80 103l70 4v774h-416v-770l205 -12q10 -115 -78 -115h-485zM1321 1012l365 41v-926l147 -12q12 -115 -78 -115h-432v16q0 94 80 103l74 4v768 l-91 10q-74 6 -65 111zM1432 1302.5q0 57.5 37.5 95.5t94 38t94.5 -38t38 -95.5t-38 -95.5t-94.5 -38t-94 38t-37.5 95.5z" />
<glyph unicode="&#xfb04;" horiz-adv-x="1873" d="M74 0v16q0 94 80 103l69 4v774h-145q0 125 84 125h61v63q0 176 97.5 286t261.5 112q207 0 206 -129q0 -59 -37.5 -89t-99.5 -30q0 61 -28.5 92t-71.5 31q-119 0 -119 -250v-86h418v63q0 174 98.5 285t253 112t197.5 -65l287 33v-1323l145 -12q12 -115 -78 -115h-430v16 q0 49 14 66q27 33 68 37l72 4v1165l-74 6q-33 -59 -123 -59q-2 61 -29.5 92t-72.5 31q-119 0 -119 -250v-86h266q10 -125 -82 -125h-184v-770l207 -12v-25q0 -90 -80 -90h-486v16q0 94 80 103l70 4v774h-418v-770l205 -12q10 -115 -78 -115h-485z" />
</font>
</defs>
</svg>
